<?xml version="1.0" encoding="utf-8"?>
<!-- Generator: Adobe Illustrator 17.0.0, SVG Export Plug-In . SVG Version: 6.00 Build 0)  -->
<!DOCTYPE svg PUBLIC "-//W3C//DTD SVG 1.1//EN" "http://www.w3.org/Graphics/SVG/1.1/DTD/svg11.dtd">
<svg version="1.1" id="Layer_1" xmlns="http://www.w3.org/2000/svg" xmlns:xlink="http://www.w3.org/1999/xlink" x="0px" y="0px"
	 width="820px" height="360px" viewBox="0 0 820 360" enable-background="new 0 0 820 360" xml:space="preserve">
<g opacity="0.05">
	<ellipse fill="#161616" cx="-856.599" cy="-120.911" rx="2.341" ry="2.328"/>
	<ellipse fill="#161616" cx="-852.013" cy="-116.352" rx="2.341" ry="2.328"/>
	<ellipse fill="#161616" cx="-847.427" cy="-111.792" rx="2.341" ry="2.327"/>
	<ellipse fill="#161616" cx="-842.841" cy="-107.232" rx="2.341" ry="2.328"/>
	<ellipse fill="#161616" cx="-847.427" cy="-102.672" rx="2.341" ry="2.328"/>
	<ellipse fill="#161616" cx="-852.013" cy="-98.113" rx="2.341" ry="2.327"/>
	<ellipse fill="#161616" cx="-856.599" cy="-93.553" rx="2.341" ry="2.327"/>
	<ellipse fill="#161616" cx="-865.771" cy="-120.911" rx="2.341" ry="2.328"/>
	<ellipse fill="#161616" cx="-861.185" cy="-116.352" rx="2.341" ry="2.328"/>
	<ellipse fill="#161616" cx="-856.599" cy="-111.792" rx="2.341" ry="2.327"/>
	<ellipse fill="#161616" cx="-852.013" cy="-107.232" rx="2.341" ry="2.328"/>
	<ellipse fill="#161616" cx="-856.599" cy="-102.672" rx="2.341" ry="2.328"/>
	<ellipse fill="#161616" cx="-861.185" cy="-98.113" rx="2.341" ry="2.327"/>
	<ellipse fill="#161616" cx="-865.771" cy="-93.553" rx="2.341" ry="2.327"/>
	<ellipse fill="#161616" cx="-874.943" cy="-120.911" rx="2.341" ry="2.328"/>
	<ellipse fill="#161616" cx="-870.357" cy="-116.352" rx="2.341" ry="2.328"/>
	<ellipse fill="#161616" cx="-865.771" cy="-111.792" rx="2.341" ry="2.327"/>
	<ellipse fill="#161616" cx="-861.185" cy="-107.232" rx="2.341" ry="2.328"/>
	<ellipse fill="#161616" cx="-865.771" cy="-102.672" rx="2.341" ry="2.328"/>
	<ellipse fill="#161616" cx="-870.357" cy="-98.113" rx="2.341" ry="2.327"/>
	<ellipse fill="#161616" cx="-874.943" cy="-93.553" rx="2.341" ry="2.327"/>
	<ellipse fill="#161616" cx="-884.115" cy="-120.911" rx="2.341" ry="2.328"/>
	<ellipse fill="#161616" cx="-879.529" cy="-116.352" rx="2.341" ry="2.328"/>
	<ellipse fill="#161616" cx="-874.943" cy="-111.792" rx="2.341" ry="2.327"/>
	<ellipse fill="#161616" cx="-870.357" cy="-107.232" rx="2.341" ry="2.328"/>
	<ellipse fill="#161616" cx="-874.943" cy="-102.672" rx="2.341" ry="2.328"/>
	<ellipse fill="#161616" cx="-879.529" cy="-98.113" rx="2.341" ry="2.327"/>
	<ellipse fill="#161616" cx="-884.115" cy="-93.553" rx="2.341" ry="2.327"/>
</g>
<g>
	<rect x="-479.473" y="-238" fill="#0D1321" width="170" height="170"/>
</g>
<g>
	<rect x="-275.483" y="-238" fill="#FFCC00" width="170" height="170"/>
</g>
<rect x="-675.514" y="-238" fill="#00CC66" width="170" height="170"/>
<rect x="-886.456" fill="#00CC66" width="820" height="360"/>
<rect x="-1120.843" y="691.563" opacity="0.8" fill="#00CC66" width="820" height="360"/>
<g>
	<g opacity="0.05">
		<ellipse fill="#161616" cx="-680.987" cy="61.379" rx="2.341" ry="2.328"/>
		<ellipse fill="#161616" cx="-676.401" cy="65.939" rx="2.341" ry="2.328"/>
		<ellipse fill="#161616" cx="-671.815" cy="70.499" rx="2.341" ry="2.327"/>
		<ellipse fill="#161616" cx="-667.229" cy="75.059" rx="2.341" ry="2.328"/>
		<ellipse fill="#161616" cx="-671.815" cy="79.618" rx="2.341" ry="2.328"/>
		<ellipse fill="#161616" cx="-676.401" cy="84.178" rx="2.341" ry="2.327"/>
		<ellipse fill="#161616" cx="-680.987" cy="88.738" rx="2.341" ry="2.327"/>
		<ellipse fill="#161616" cx="-690.159" cy="61.379" rx="2.341" ry="2.328"/>
		<ellipse fill="#161616" cx="-685.573" cy="65.939" rx="2.341" ry="2.328"/>
		<ellipse fill="#161616" cx="-680.987" cy="70.499" rx="2.341" ry="2.327"/>
		<ellipse fill="#161616" cx="-676.401" cy="75.059" rx="2.341" ry="2.328"/>
		<ellipse fill="#161616" cx="-680.987" cy="79.618" rx="2.341" ry="2.328"/>
		<ellipse fill="#161616" cx="-685.573" cy="84.178" rx="2.341" ry="2.327"/>
		<ellipse fill="#161616" cx="-690.159" cy="88.738" rx="2.341" ry="2.327"/>
		<ellipse fill="#161616" cx="-699.331" cy="61.379" rx="2.341" ry="2.328"/>
		<ellipse fill="#161616" cx="-694.745" cy="65.939" rx="2.341" ry="2.328"/>
		<ellipse fill="#161616" cx="-690.159" cy="70.499" rx="2.341" ry="2.327"/>
		<ellipse fill="#161616" cx="-685.573" cy="75.059" rx="2.341" ry="2.328"/>
		<ellipse fill="#161616" cx="-690.159" cy="79.618" rx="2.341" ry="2.328"/>
		<ellipse fill="#161616" cx="-694.745" cy="84.178" rx="2.341" ry="2.327"/>
		<ellipse fill="#161616" cx="-699.331" cy="88.738" rx="2.341" ry="2.327"/>
		<ellipse fill="#161616" cx="-708.503" cy="61.379" rx="2.341" ry="2.328"/>
		<ellipse fill="#161616" cx="-703.917" cy="65.939" rx="2.341" ry="2.328"/>
		<ellipse fill="#161616" cx="-699.331" cy="70.499" rx="2.341" ry="2.327"/>
		<ellipse fill="#161616" cx="-694.745" cy="75.059" rx="2.341" ry="2.328"/>
		<ellipse fill="#161616" cx="-699.331" cy="79.618" rx="2.341" ry="2.328"/>
		<ellipse fill="#161616" cx="-703.917" cy="84.178" rx="2.341" ry="2.327"/>
		<ellipse fill="#161616" cx="-708.503" cy="88.738" rx="2.341" ry="2.327"/>
	</g>
	<g>
		<ellipse fill="#FFCC00" cx="-677.712" cy="58.447" rx="2.341" ry="2.328"/>
		<ellipse fill="#FFCC00" cx="-673.126" cy="63.007" rx="2.341" ry="2.328"/>
		<ellipse fill="#FFCC00" cx="-668.54" cy="67.566" rx="2.341" ry="2.327"/>
		<ellipse fill="#FFCC00" cx="-663.954" cy="72.126" rx="2.341" ry="2.328"/>
		<ellipse fill="#FFCC00" cx="-668.54" cy="76.686" rx="2.341" ry="2.328"/>
		<ellipse fill="#FFCC00" cx="-673.126" cy="81.246" rx="2.341" ry="2.327"/>
		<ellipse fill="#FFCC00" cx="-677.712" cy="85.805" rx="2.341" ry="2.327"/>
		<ellipse fill="#FFCC00" cx="-686.884" cy="58.447" rx="2.341" ry="2.328"/>
		<ellipse fill="#FFCC00" cx="-682.298" cy="63.007" rx="2.341" ry="2.328"/>
		<ellipse fill="#FFCC00" cx="-677.712" cy="67.566" rx="2.341" ry="2.327"/>
		<ellipse fill="#FFCC00" cx="-673.126" cy="72.126" rx="2.341" ry="2.328"/>
		<ellipse fill="#FFCC00" cx="-677.712" cy="76.686" rx="2.341" ry="2.328"/>
		<ellipse fill="#FFCC00" cx="-682.298" cy="81.246" rx="2.341" ry="2.327"/>
		<ellipse fill="#FFCC00" cx="-686.884" cy="85.805" rx="2.341" ry="2.327"/>
		<ellipse fill="#FFCC00" cx="-696.056" cy="58.447" rx="2.341" ry="2.328"/>
		<ellipse fill="#FFCC00" cx="-691.47" cy="63.007" rx="2.341" ry="2.328"/>
		<ellipse fill="#FFCC00" cx="-686.884" cy="67.566" rx="2.341" ry="2.327"/>
		<ellipse fill="#FFCC00" cx="-682.298" cy="72.126" rx="2.341" ry="2.328"/>
		<ellipse fill="#FFCC00" cx="-686.884" cy="76.686" rx="2.341" ry="2.328"/>
		<ellipse fill="#FFCC00" cx="-691.47" cy="81.246" rx="2.341" ry="2.327"/>
		<ellipse fill="#FFCC00" cx="-696.056" cy="85.805" rx="2.341" ry="2.327"/>
		<ellipse fill="#FFCC00" cx="-705.228" cy="58.447" rx="2.341" ry="2.328"/>
		<ellipse fill="#FFCC00" cx="-700.642" cy="63.007" rx="2.341" ry="2.328"/>
		<ellipse fill="#FFCC00" cx="-696.056" cy="67.566" rx="2.341" ry="2.327"/>
		<ellipse fill="#FFCC00" cx="-691.47" cy="72.126" rx="2.341" ry="2.328"/>
		<ellipse fill="#FFCC00" cx="-696.056" cy="76.686" rx="2.341" ry="2.328"/>
		<ellipse fill="#FFCC00" cx="-700.642" cy="81.246" rx="2.341" ry="2.327"/>
		<ellipse fill="#FFCC00" cx="-705.228" cy="85.805" rx="2.341" ry="2.327"/>
	</g>
</g>
<g>
	<g opacity="0.05">
		
			<ellipse transform="matrix(0.5574 0.8303 -0.8303 0.5574 181.806 782.9055)" fill="#161616" cx="-643.384" cy="561.969" rx="2.328" ry="2.341"/>
		
			<ellipse transform="matrix(0.5574 0.8303 -0.8303 0.5574 185.6369 778.1783)" fill="#161616" cx="-637.035" cy="563.198" rx="2.328" ry="2.341"/>
		
			<ellipse transform="matrix(0.5574 0.8303 -0.8303 0.5574 189.468 773.4511)" fill="#161616" cx="-630.685" cy="564.427" rx="2.327" ry="2.341"/>
		
			<ellipse transform="matrix(-0.5574 -0.8303 0.8303 -0.5574 -1441.972 362.5904)" fill="#161616" cx="-624.336" cy="565.657" rx="2.328" ry="2.341"/>
		
			<ellipse transform="matrix(-0.5574 -0.8303 0.8303 -0.5574 -1449.2089 371.4159)" fill="#161616" cx="-625.602" cy="571.999" rx="2.328" ry="2.341"/>
		
			<ellipse transform="matrix(-0.5574 -0.8303 0.8303 -0.5574 -1456.4459 380.2418)" fill="#161616" cx="-626.868" cy="578.341" rx="2.327" ry="2.341"/>
		
			<ellipse transform="matrix(-0.5574 -0.8303 0.8303 -0.5574 -1463.6831 389.0672)" fill="#161616" cx="-628.135" cy="584.683" rx="2.327" ry="2.341"/>
		
			<ellipse transform="matrix(0.5574 0.8303 -0.8303 0.5574 182.68 791.4906)" fill="#161616" cx="-650.999" cy="567.081" rx="2.328" ry="2.341"/>
		
			<ellipse transform="matrix(0.5574 0.8303 -0.8303 0.5574 186.5109 786.7634)" fill="#161616" cx="-644.65" cy="568.31" rx="2.328" ry="2.341"/>
		
			<ellipse transform="matrix(0.5574 0.8303 -0.8303 0.5574 190.342 782.0364)" fill="#161616" cx="-638.301" cy="569.54" rx="2.327" ry="2.341"/>
		
			<ellipse transform="matrix(0.5574 0.8303 -0.8303 0.5574 194.1731 777.3093)" fill="#161616" cx="-631.951" cy="570.77" rx="2.328" ry="2.341"/>
		
			<ellipse transform="matrix(0.5574 0.8303 -0.8303 0.5574 198.8781 781.1675)" fill="#161616" cx="-633.218" cy="577.111" rx="2.328" ry="2.341"/>
		
			<ellipse transform="matrix(-0.5574 -0.8303 0.8303 -0.5574 -1472.5499 381.8813)" fill="#161616" cx="-634.483" cy="583.453" rx="2.327" ry="2.341"/>
		
			<ellipse transform="matrix(-0.5574 -0.8303 0.8303 -0.5574 -1479.7871 390.7067)" fill="#161616" cx="-635.75" cy="589.795" rx="2.327" ry="2.341"/>
		
			<ellipse transform="matrix(0.5574 0.8303 -0.8303 0.5574 183.554 800.0757)" fill="#161616" cx="-658.614" cy="572.193" rx="2.328" ry="2.341"/>
		
			<ellipse transform="matrix(0.5574 0.8303 -0.8303 0.5574 187.3849 795.3486)" fill="#161616" cx="-652.265" cy="573.423" rx="2.328" ry="2.341"/>
		
			<ellipse transform="matrix(0.5574 0.8303 -0.8303 0.5574 191.216 790.6216)" fill="#161616" cx="-645.916" cy="574.652" rx="2.327" ry="2.341"/>
		
			<ellipse transform="matrix(0.5574 0.8303 -0.8303 0.5574 195.0471 785.8944)" fill="#161616" cx="-639.566" cy="575.882" rx="2.328" ry="2.341"/>
		
			<ellipse transform="matrix(0.5574 0.8303 -0.8303 0.5574 199.7521 789.7526)" fill="#161616" cx="-640.833" cy="582.224" rx="2.328" ry="2.341"/>
		
			<ellipse transform="matrix(-0.5574 -0.8303 0.8303 -0.5574 -1488.6541 383.5207)" fill="#161616" cx="-642.098" cy="588.566" rx="2.327" ry="2.341"/>
		
			<ellipse transform="matrix(-0.5574 -0.8303 0.8303 -0.5574 -1495.8911 392.3462)" fill="#161616" cx="-643.365" cy="594.907" rx="2.327" ry="2.341"/>
		
			<ellipse transform="matrix(0.5574 0.8303 -0.8303 0.5574 184.428 808.6609)" fill="#161616" cx="-666.229" cy="577.305" rx="2.328" ry="2.341"/>
		
			<ellipse transform="matrix(0.5574 0.8303 -0.8303 0.5574 188.2589 803.9337)" fill="#161616" cx="-659.88" cy="578.535" rx="2.328" ry="2.341"/>
		
			<ellipse transform="matrix(0.5574 0.8303 -0.8303 0.5574 192.09 799.2068)" fill="#161616" cx="-653.531" cy="579.765" rx="2.327" ry="2.341"/>
		
			<ellipse transform="matrix(0.5574 0.8303 -0.8303 0.5574 195.9212 794.4796)" fill="#161616" cx="-647.181" cy="580.994" rx="2.328" ry="2.341"/>
		
			<ellipse transform="matrix(0.5574 0.8303 -0.8303 0.5574 200.6261 798.3378)" fill="#161616" cx="-648.448" cy="587.336" rx="2.328" ry="2.341"/>
		
			<ellipse transform="matrix(-0.5574 -0.8303 0.8303 -0.5574 -1504.7579 385.1602)" fill="#161616" cx="-649.713" cy="593.678" rx="2.327" ry="2.341"/>
		
			<ellipse transform="matrix(-0.5574 -0.8303 0.8303 -0.5574 -1511.9951 393.9856)" fill="#161616" cx="-650.98" cy="600.02" rx="2.327" ry="2.341"/>
	</g>
	<g>
		
			<ellipse transform="matrix(0.5574 0.8303 -0.8303 0.5574 178.749 780.1194)" fill="#FFCC00" cx="-642.299" cy="557.708" rx="2.328" ry="2.341"/>
		
			<ellipse transform="matrix(0.5574 0.8303 -0.8303 0.5574 182.5799 775.3922)" fill="#FFCC00" cx="-635.95" cy="558.938" rx="2.328" ry="2.341"/>
		
			<ellipse transform="matrix(0.5574 0.8303 -0.8303 0.5574 186.411 770.665)" fill="#FFCC00" cx="-629.601" cy="560.167" rx="2.327" ry="2.341"/>
		
			<ellipse transform="matrix(-0.5574 -0.8303 0.8303 -0.5574 -1436.7458 356.8561)" fill="#FFCC00" cx="-623.252" cy="561.397" rx="2.328" ry="2.341"/>
		
			<ellipse transform="matrix(-0.5574 -0.8303 0.8303 -0.5574 -1443.9827 365.6815)" fill="#FFCC00" cx="-624.518" cy="567.739" rx="2.328" ry="2.341"/>
		
			<ellipse transform="matrix(-0.5574 -0.8303 0.8303 -0.5574 -1451.2198 374.5075)" fill="#FFCC00" cx="-625.784" cy="574.081" rx="2.327" ry="2.341"/>
		
			<ellipse transform="matrix(-0.5574 -0.8303 0.8303 -0.5574 -1458.457 383.3329)" fill="#FFCC00" cx="-627.05" cy="580.423" rx="2.327" ry="2.341"/>
		
			<ellipse transform="matrix(0.5574 0.8303 -0.8303 0.5574 179.623 788.7045)" fill="#FFCC00" cx="-649.914" cy="562.821" rx="2.328" ry="2.341"/>
		
			<ellipse transform="matrix(0.5574 0.8303 -0.8303 0.5574 183.4539 783.9774)" fill="#FFCC00" cx="-643.565" cy="564.05" rx="2.328" ry="2.341"/>
		
			<ellipse transform="matrix(0.5574 0.8303 -0.8303 0.5574 187.285 779.2504)" fill="#FFCC00" cx="-637.216" cy="565.28" rx="2.327" ry="2.341"/>
		
			<ellipse transform="matrix(0.5574 0.8303 -0.8303 0.5574 191.1161 774.5232)" fill="#FFCC00" cx="-630.867" cy="566.509" rx="2.328" ry="2.341"/>
		
			<ellipse transform="matrix(0.5574 0.8303 -0.8303 0.5574 195.821 778.3813)" fill="#FFCC00" cx="-632.133" cy="572.851" rx="2.328" ry="2.341"/>
		
			<ellipse transform="matrix(-0.5574 -0.8303 0.8303 -0.5574 -1467.3239 376.1469)" fill="#FFCC00" cx="-633.399" cy="579.193" rx="2.327" ry="2.341"/>
		
			<ellipse transform="matrix(-0.5574 -0.8303 0.8303 -0.5574 -1474.561 384.9724)" fill="#FFCC00" cx="-634.665" cy="585.535" rx="2.327" ry="2.341"/>
		
			<ellipse transform="matrix(0.5574 0.8303 -0.8303 0.5574 180.497 797.2897)" fill="#FFCC00" cx="-657.529" cy="567.933" rx="2.328" ry="2.341"/>
		
			<ellipse transform="matrix(0.5574 0.8303 -0.8303 0.5574 184.3279 792.5626)" fill="#FFCC00" cx="-651.18" cy="569.162" rx="2.328" ry="2.341"/>
		
			<ellipse transform="matrix(0.5574 0.8303 -0.8303 0.5574 188.159 787.8355)" fill="#FFCC00" cx="-644.831" cy="570.392" rx="2.327" ry="2.341"/>
		
			<ellipse transform="matrix(0.5574 0.8303 -0.8303 0.5574 191.9901 783.1083)" fill="#FFCC00" cx="-638.482" cy="571.622" rx="2.328" ry="2.341"/>
		
			<ellipse transform="matrix(0.5574 0.8303 -0.8303 0.5574 196.695 786.9665)" fill="#FFCC00" cx="-639.748" cy="577.963" rx="2.328" ry="2.341"/>
		
			<ellipse transform="matrix(-0.5574 -0.8303 0.8303 -0.5574 -1483.4279 377.7864)" fill="#FFCC00" cx="-641.014" cy="584.305" rx="2.327" ry="2.341"/>
		
			<ellipse transform="matrix(-0.5574 -0.8303 0.8303 -0.5574 -1490.665 386.6118)" fill="#FFCC00" cx="-642.28" cy="590.647" rx="2.327" ry="2.341"/>
		
			<ellipse transform="matrix(0.5574 0.8303 -0.8303 0.5574 181.371 805.8749)" fill="#FFCC00" cx="-665.144" cy="573.045" rx="2.328" ry="2.341"/>
		
			<ellipse transform="matrix(0.5574 0.8303 -0.8303 0.5574 185.2019 801.1476)" fill="#FFCC00" cx="-658.795" cy="574.275" rx="2.328" ry="2.341"/>
		
			<ellipse transform="matrix(0.5574 0.8303 -0.8303 0.5574 189.033 796.4207)" fill="#FFCC00" cx="-652.446" cy="575.504" rx="2.327" ry="2.341"/>
		
			<ellipse transform="matrix(0.5574 0.8303 -0.8303 0.5574 192.8642 791.6935)" fill="#FFCC00" cx="-646.097" cy="576.734" rx="2.328" ry="2.341"/>
		
			<ellipse transform="matrix(0.5574 0.8303 -0.8303 0.5574 197.5691 795.5517)" fill="#FFCC00" cx="-647.363" cy="583.076" rx="2.328" ry="2.341"/>
		
			<ellipse transform="matrix(-0.5574 -0.8303 0.8303 -0.5574 -1499.5319 379.4258)" fill="#FFCC00" cx="-648.629" cy="589.418" rx="2.327" ry="2.341"/>
		
			<ellipse transform="matrix(-0.5574 -0.8303 0.8303 -0.5574 -1506.769 388.2513)" fill="#FFCC00" cx="-649.895" cy="595.76" rx="2.327" ry="2.341"/>
	</g>
</g>
<g>
	<g>
		<g>
			<path fill="#0D1321" d="M-752.654,66.561c0,3.647-1.911,6.039-6.326,6.039c-3.633,0-4.441-2.013-4.441-2.013
				s-0.808,2.013-4.441,2.013c-4.414,0-6.326-2.392-6.326-6.039v-7.6c0-3.789-0.269-4.736-0.269-4.736h4.037v14.231
				c0,1.349,0.754,2.249,2.557,2.249c1.803,0,2.557-0.899,2.557-2.249v-9.495c0-3.789-0.808-4.736-0.808-4.736h4.037
				c0,0,0.538,0.473,0.538,4.736v9.495c0,1.349,0.754,2.249,2.557,2.249c1.804,0,2.557-0.899,2.557-2.249v-9.495
				c0-3.789-0.808-4.736-0.808-4.736h4.037c0,0,0.538,0.473,0.538,4.736V66.561z"/>
			<path fill="#0D1321" d="M-748.541,75.204c0,0-0.484-1.161-0.323-3.078l1.104-13.544c-0.942-0.473-1.615-1.278-1.615-2.439
				c0-1.823,1.696-2.865,3.499-2.865c1.803,0,3.526,1.041,3.526,2.865c0,1.161-0.7,1.989-1.642,2.439l-1.131,12.597
				c-0.242,2.723,0.619,4.025,0.619,4.025H-748.541z M-745.876,58.037c0.7,0,1.103-0.568,1.103-1.894s-0.404-1.918-1.103-1.918
				s-1.076,0.592-1.076,1.918S-746.576,58.037-745.876,58.037z"/>
			<path fill="#0D1321" d="M-736.726,54.225v4.759c4.925,0,7.698,2.842,7.698,8.619v0.971c0,2.605,0.538,3.552,0.538,3.552h-4.037
				c0,0-0.269-0.474-0.269-3.552v-4.049c0-3.86-2.557-3.883-3.93-3.883v6.748c0,3.789,0.296,4.736,0.296,4.736h-4.037V54.225
				H-736.726z"/>
			<path fill="#0D1321" d="M-719.636,72.126c-4.442,0-7.241-1.018-7.241-4.214c0-3.197,2.799-4.215,7.241-4.215h1.077
				c0-4.025-1.615-4.735-1.615-4.735h4.307c0,0,1.077,0.947,1.077,4.735v8.43H-719.636z M-718.56,70.468v-5.115h-1.077
				c-2.207,0-2.934,0.876-2.934,2.558c0,1.68,0.727,2.557,2.934,2.557H-718.56z"/>
		</g>
		<g>
			<path fill="#0D1321" d="M-762.807,88.605h2.423v2.865h-2.745c-1.669,0-2.96-0.489-3.876-1.468
				c-0.771,0.521-1.714,0.781-2.825,0.781c-1.651,0-2.969-0.545-3.956-1.634c-0.807-0.899-1.211-1.98-1.211-3.243
				c0-1.563,0.574-2.833,1.723-3.812c0.969-0.821,2.09-1.231,3.364-1.231c0.663,0,1.273,0.111,1.83,0.332V80.58l3.364-1.562v7.883
				c0,0.616,0.149,1.054,0.444,1.314C-763.977,88.476-763.488,88.605-762.807,88.605z M-771.499,78.095
				c-0.538,0-0.969-0.142-1.292-0.426c-0.323-0.284-0.484-0.67-0.484-1.16c0-1.026,0.592-1.539,1.776-1.539
				c0.538,0,0.964,0.138,1.278,0.414c0.314,0.276,0.471,0.651,0.471,1.124C-769.75,77.566-770.333,78.095-771.499,78.095z
				 M-768.081,84.179c-0.467-0.347-0.996-0.522-1.588-0.522c-0.593,0-1.072,0.214-1.44,0.64c-0.368,0.425-0.551,0.986-0.551,1.68
				c0,0.695,0.179,1.247,0.538,1.658c0.359,0.411,0.851,0.615,1.48,0.615c0.682,0,1.211-0.205,1.588-0.615
				c-0.018-0.126-0.027-0.324-0.027-0.592V84.179z M-767.355,78.095c-0.538,0-0.969-0.142-1.292-0.426
				c-0.323-0.284-0.484-0.67-0.484-1.16c0-1.026,0.592-1.539,1.776-1.539c0.538,0,0.964,0.138,1.279,0.414
				c0.314,0.276,0.471,0.651,0.471,1.124C-765.605,77.566-766.189,78.095-767.355,78.095z"/>
			<path fill="#0D1321" d="M-743.619,88.605h2.423v2.865h-2.745c-1.328,0-2.422-0.315-3.283-0.947
				c-0.861,0.632-1.974,0.947-3.337,0.947h-3.391c-0.61,0-1.184-0.079-1.722-0.237c-0.557,0.158-1.131,0.237-1.723,0.237H-762
				v-2.865h2.745c-0.305-0.583-0.458-1.222-0.458-1.917c0-0.978,0.296-1.8,0.888-2.462c0.449-1.326,1.251-2.367,2.409-3.124
				c1.157-0.758,2.498-1.137,4.023-1.137c2.046,0,3.722,0.592,5.032,1.776c1.22,1.105,1.83,2.533,1.83,4.285v0.876
				c0,0.616,0.149,1.054,0.444,1.314C-744.789,88.476-744.3,88.605-743.619,88.605z M-755.675,88.393
				c1.148-0.332,1.722-0.986,1.722-1.965c0-0.49-0.157-0.88-0.471-1.172c-0.315-0.292-0.731-0.438-1.251-0.438
				c-0.521,0-0.938,0.146-1.252,0.438c-0.314,0.292-0.471,0.683-0.471,1.172C-757.398,87.406-756.823,88.061-755.675,88.393z
				 M-750.616,88.605c0.664,0,1.117-0.122,1.359-0.366c0.242-0.245,0.363-0.699,0.363-1.362v-0.852c0-0.995-0.327-1.791-0.982-2.391
				c-0.655-0.6-1.521-0.9-2.597-0.9c-0.736,0-1.372,0.142-1.911,0.426c0.843,0.221,1.511,0.647,2.005,1.279
				c0.493,0.631,0.739,1.381,0.739,2.249c0,0.695-0.152,1.334-0.457,1.917H-750.616z"/>
			<path fill="#0D1321" d="M-742.811,91.47v-2.865h4.009c3.157,0,5.669-0.828,7.536-2.485c-1.221-1.878-2.701-2.817-4.441-2.817
				c-1.436,0-3.005,0.687-4.709,2.06v-2.628c1.507-1.451,3.211-2.177,5.113-2.177c1.4,0,2.763,0.449,4.09,1.349
				c1.328,0.899,2.503,2.177,3.526,3.835v1.184c-1.292,1.452-2.902,2.572-4.83,3.362c-1.929,0.789-4.033,1.184-6.311,1.184H-742.811
				z M-734.468,96.75c-0.538,0-0.97-0.142-1.292-0.426c-0.323-0.284-0.484-0.671-0.484-1.161c0-0.457,0.161-0.828,0.484-1.112
				c0.323-0.284,0.754-0.426,1.292-0.426c0.538,0,0.964,0.138,1.278,0.414c0.314,0.276,0.471,0.651,0.471,1.124
				C-732.72,96.221-733.302,96.75-734.468,96.75z"/>
			<path fill="#0D1321" d="M-717.838,90.784c-0.556,0.094-1.13,0.142-1.722,0.142c-1.651,0-2.97-0.545-3.956-1.634
				c-0.807-0.915-1.211-2.02-1.211-3.314c0-1.736,0.538-3.101,1.614-4.095c0.95-0.884,2.207-1.326,3.767-1.326
				c1.597,0,2.844,0.449,3.741,1.349c0.771,0.773,1.158,1.783,1.158,3.03v5.066c0,1.862-0.557,3.33-1.669,4.403
				c-1.041,1.01-2.458,1.515-4.253,1.515c-1.13,0-2.234-0.269-3.31-0.805v-2.581c0.969,0.489,1.937,0.734,2.906,0.734
				C-719.031,93.27-718.053,92.441-717.838,90.784z M-717.81,84.889c0-1.041-0.512-1.562-1.535-1.562
				c-0.646,0-1.153,0.229-1.52,0.687c-0.368,0.457-0.552,1.081-0.552,1.87c0,1.673,0.682,2.509,2.046,2.509
				c0.717,0,1.237-0.158,1.561-0.473V84.889z"/>
		</g>
	</g>
</g>
<text transform="matrix(1 0 0 1 -503.6094 180)"><tspan x="0" y="0" fill="#0D1321" font-family="'ArefRuqaa-Bold'" font-size="53">كققييرط راتتخختت ام لببقق</tspan><tspan x="294.409" y="0" fill="#0D1321" font-family="'ArefRuqaa-Bold'" font-size="53"> </tspan></text>
<rect x="-2007.334" y="54.576" fill="#FFFFFF" stroke="#000000" stroke-miterlimit="10" width="90" height="360"/>
<rect x="-886.456" y="-452.512" fill="#FFFFFF" stroke="#000000" stroke-miterlimit="10" width="820" height="24"/>
<g>
	<path fill="#FFCC00" stroke="#000000" stroke-width="2" stroke-miterlimit="10" d="M-727.312,241.757
		c-0.124,0-0.248-0.037-0.358-0.113c-0.595-0.413-1.193-0.841-1.776-1.27c-0.289-0.213-0.357-0.627-0.151-0.926
		c0.206-0.299,0.608-0.369,0.897-0.156c0.574,0.422,1.162,0.843,1.748,1.249c0.295,0.205,0.373,0.617,0.175,0.922
		C-726.901,241.654-727.105,241.757-727.312,241.757z"/>
	<path fill="#FFCC00" stroke="#000000" stroke-width="2" stroke-miterlimit="10" d="M-678.622,257.056c-0.001,0-0.002,0-0.003,0
		c-0.435-0.002-0.87-0.009-1.304-0.018c-1.003-0.022-2.022-0.063-3.027-0.121c-0.355-0.02-0.626-0.334-0.606-0.7
		c0.02-0.366,0.33-0.645,0.678-0.626c0.991,0.057,1.995,0.097,2.984,0.119c0.427,0.009,0.854,0.016,1.283,0.018
		c0.355,0.002,0.642,0.301,0.64,0.668C-677.981,256.761-678.269,257.056-678.622,257.056z M-674.323,256.941
		c-0.338,0-0.621-0.272-0.641-0.624c-0.021-0.366,0.249-0.681,0.603-0.703c1.467-0.091,2.889-0.239,4.225-0.44
		c0.352-0.054,0.678,0.199,0.729,0.562c0.051,0.363-0.192,0.7-0.544,0.753c-1.372,0.206-2.83,0.358-4.333,0.452
		C-674.297,256.94-674.31,256.941-674.323,256.941z M-634.149,256.581c0,0-0.001,0-0.001,0c-1.442-0.003-2.901-0.048-4.335-0.135
		c-0.355-0.021-0.625-0.336-0.605-0.702c0.021-0.366,0.331-0.648,0.68-0.624c1.41,0.085,2.844,0.13,4.263,0.132
		c0.355,0.001,0.643,0.299,0.642,0.665C-633.507,256.285-633.795,256.581-634.149,256.581z M-687.208,256.564
		c-0.022,0-0.045-0.001-0.067-0.004c-1.428-0.153-2.874-0.345-4.296-0.569c-0.351-0.055-0.593-0.394-0.539-0.757
		c0.054-0.362,0.382-0.611,0.733-0.556c1.403,0.221,2.828,0.409,4.236,0.561c0.353,0.038,0.61,0.365,0.573,0.729
		C-686.603,256.31-686.883,256.564-687.208,256.564z M-629.85,256.465c-0.339,0-0.623-0.274-0.642-0.628
		c-0.019-0.366,0.253-0.679,0.608-0.699c1.413-0.079,2.844-0.201,4.251-0.361c0.353-0.04,0.671,0.222,0.71,0.587
		c0.039,0.365-0.215,0.693-0.568,0.733c-1.431,0.163-2.885,0.287-4.323,0.368C-629.827,256.465-629.839,256.465-629.85,256.465z
		 M-642.732,256.063c-0.025,0-0.05-0.002-0.075-0.005c-1.434-0.172-2.879-0.389-4.293-0.645c-0.35-0.063-0.584-0.408-0.522-0.769
		c0.062-0.361,0.396-0.602,0.745-0.539c1.39,0.252,2.809,0.465,4.219,0.634c0.353,0.042,0.606,0.372,0.565,0.736
		C-642.132,255.813-642.41,256.063-642.732,256.063z M-665.826,255.629c-0.286,0-0.548-0.199-0.622-0.499
		c-0.089-0.355,0.118-0.717,0.462-0.809c1.405-0.374,2.751-0.831,4.001-1.357c0.328-0.139,0.704,0.024,0.839,0.364
		c0.134,0.34-0.024,0.727-0.352,0.866c-1.304,0.549-2.705,1.025-4.166,1.414C-665.719,255.622-665.773,255.629-665.826,255.629z
		 M-621.304,255.488c-0.308,0-0.581-0.23-0.634-0.554c-0.059-0.362,0.177-0.704,0.528-0.765c1.4-0.243,2.807-0.53,4.183-0.854
		c0.347-0.081,0.691,0.143,0.77,0.5c0.079,0.358-0.138,0.714-0.484,0.795c-1.4,0.329-2.832,0.621-4.256,0.868
		C-621.233,255.485-621.269,255.488-621.304,255.488z M-695.709,255.227c-0.042,0-0.085-0.004-0.128-0.013
		c-1.41-0.293-2.832-0.625-4.225-0.986c-0.345-0.089-0.554-0.45-0.467-0.806c0.086-0.356,0.435-0.572,0.781-0.482
		c1.373,0.356,2.775,0.683,4.165,0.972c0.348,0.072,0.574,0.423,0.504,0.782C-695.141,255.009-695.409,255.227-695.709,255.227z
		 M-651.201,254.526c-0.049,0-0.099-0.006-0.149-0.018c-0.584-0.143-1.175-0.296-1.755-0.455c-0.838-0.229-1.658-0.473-2.438-0.724
		c-0.339-0.109-0.528-0.482-0.422-0.832c0.106-0.35,0.466-0.545,0.806-0.436c0.762,0.246,1.564,0.484,2.383,0.708
		c0.57,0.156,1.149,0.306,1.723,0.447c0.346,0.085,0.559,0.443,0.477,0.8C-650.646,254.32-650.91,254.526-651.201,254.526z
		 M-612.919,253.518c-0.279,0-0.536-0.189-0.618-0.48c-0.099-0.352,0.098-0.721,0.439-0.823c1.365-0.408,2.73-0.862,4.058-1.349
		c0.335-0.123,0.702,0.058,0.821,0.404c0.119,0.346-0.056,0.725-0.391,0.848c-1.352,0.496-2.741,0.958-4.131,1.373
		C-612.8,253.509-612.86,253.518-612.919,253.518z M-704.05,253.065c-0.062,0-0.124-0.009-0.186-0.029
		c-1.378-0.43-2.762-0.899-4.115-1.395c-0.335-0.123-0.51-0.503-0.391-0.848c0.119-0.346,0.486-0.526,0.821-0.404
		c1.333,0.489,2.698,0.952,4.057,1.375c0.34,0.106,0.532,0.477,0.43,0.828C-703.518,252.879-703.773,253.065-704.05,253.065z
		 M-657.906,252.245c-0.215,0-0.425-0.111-0.547-0.314c-0.187-0.312-0.095-0.721,0.207-0.915c1.181-0.757,2.287-1.643,3.288-2.633
		c0.257-0.254,0.663-0.245,0.909,0.02c0.246,0.265,0.237,0.685-0.02,0.939c-1.066,1.054-2.243,1.996-3.499,2.802
		C-657.673,252.213-657.79,252.245-657.906,252.245z M-659.393,251.84c-0.084,0-0.169-0.017-0.25-0.053
		c-1.414-0.618-2.733-1.299-3.921-2.024c-0.306-0.187-0.407-0.594-0.226-0.91c0.18-0.315,0.575-0.42,0.881-0.234
		c1.139,0.695,2.407,1.349,3.768,1.944c0.327,0.143,0.48,0.533,0.342,0.87C-658.904,251.688-659.142,251.84-659.393,251.84z
		 M-604.817,250.544c-0.25,0-0.488-0.152-0.592-0.404c-0.139-0.337,0.013-0.728,0.34-0.871c0.623-0.274,1.25-0.561,1.862-0.853
		c0.671-0.32,1.346-0.655,2.004-0.997c0.318-0.164,0.704-0.032,0.863,0.296c0.16,0.328,0.031,0.727-0.286,0.892
		c-0.671,0.348-1.359,0.69-2.043,1.016c-0.624,0.297-1.263,0.59-1.898,0.869C-604.648,250.527-604.733,250.544-604.817,250.544z
		 M-712.152,250.093c-0.081,0-0.164-0.016-0.244-0.05c-1.333-0.565-2.668-1.171-3.966-1.799c-0.322-0.156-0.46-0.551-0.309-0.883
		c0.151-0.332,0.534-0.475,0.855-0.319c1.279,0.619,2.594,1.216,3.908,1.773c0.328,0.139,0.486,0.527,0.351,0.867
		C-711.659,249.938-711.899,250.093-712.152,250.093z M-666.729,247.275c-0.15,0-0.301-0.054-0.423-0.164
		c-1.159-1.046-2.162-2.191-2.982-3.403c-0.204-0.301-0.132-0.715,0.159-0.925c0.291-0.21,0.692-0.136,0.896,0.164
		c0.761,1.124,1.694,2.188,2.775,3.163c0.267,0.241,0.295,0.661,0.061,0.937C-666.371,247.198-666.549,247.275-666.729,247.275z
		 M-597.131,246.559c-0.221,0-0.437-0.118-0.556-0.329c-0.179-0.317-0.076-0.723,0.231-0.908c1.222-0.737,2.437-1.523,3.611-2.337
		c0.295-0.204,0.695-0.123,0.893,0.181c0.198,0.305,0.12,0.717-0.175,0.922c-1.196,0.83-2.435,1.631-3.68,2.381
		C-596.91,246.53-597.021,246.559-597.131,246.559z M-719.936,246.321c-0.102,0-0.205-0.025-0.301-0.078
		c-1.275-0.7-2.544-1.44-3.773-2.2c-0.305-0.189-0.404-0.596-0.221-0.911c0.182-0.315,0.577-0.417,0.882-0.229
		c1.21,0.749,2.46,1.477,3.716,2.167c0.314,0.172,0.433,0.574,0.266,0.898C-719.483,246.193-719.706,246.321-719.936,246.321z
		 M-651.753,246.131c-0.122,0-0.245-0.036-0.354-0.111c-0.296-0.203-0.377-0.615-0.181-0.92c0.79-1.231,1.402-2.515,1.821-3.816
		c0.112-0.348,0.476-0.536,0.813-0.421c0.337,0.116,0.52,0.492,0.408,0.84c-0.454,1.412-1.117,2.802-1.969,4.131
		C-651.34,246.027-651.544,246.131-651.753,246.131z M-589.992,241.608c-0.193,0-0.384-0.089-0.511-0.26
		c-0.216-0.291-0.163-0.708,0.119-0.931c1.123-0.89,2.232-1.828,3.297-2.788c0.267-0.241,0.674-0.213,0.907,0.063
		c0.234,0.276,0.206,0.696-0.061,0.937c-1.085,0.978-2.215,1.935-3.36,2.842C-589.717,241.563-589.855,241.608-589.992,241.608z
		 M-671.418,239.987c-0.283,0-0.542-0.194-0.62-0.489c-0.319-1.206-0.482-2.446-0.482-3.683c0-0.314,0.011-0.629,0.031-0.937
		c0.025-0.366,0.327-0.641,0.686-0.616c0.354,0.025,0.622,0.343,0.597,0.709c-0.019,0.277-0.028,0.561-0.029,0.845
		c0,1.119,0.147,2.24,0.436,3.332c0.094,0.354-0.108,0.719-0.451,0.816C-671.304,239.979-671.361,239.987-671.418,239.987z
		 M-649.166,237.795c-0.353,0-0.64-0.294-0.643-0.659c-0.007-0.955-0.129-1.902-0.361-2.813c-0.107-0.422-0.249-0.844-0.421-1.257
		c-0.14-0.337,0.011-0.728,0.337-0.872c0.326-0.145,0.704,0.011,0.845,0.348c0.196,0.472,0.359,0.958,0.483,1.442
		c0.26,1.018,0.396,2.075,0.404,3.142c0.003,0.367-0.283,0.666-0.638,0.669C-649.163,237.795-649.165,237.795-649.166,237.795z
		 M-583.517,235.763c-0.165,0-0.33-0.065-0.456-0.196c-0.251-0.26-0.249-0.681,0.003-0.939c1.005-1.033,1.988-2.11,2.921-3.203
		c0.235-0.275,0.642-0.302,0.908-0.059c0.267,0.242,0.292,0.662,0.057,0.937c-0.951,1.114-1.953,2.213-2.979,3.266
		C-583.189,235.699-583.353,235.763-583.517,235.763z M-670.767,231.317c-0.094,0-0.191-0.021-0.281-0.067
		c-0.319-0.161-0.452-0.558-0.297-0.888c0.687-1.456,1.642-2.691,2.841-3.671c0.278-0.228,0.683-0.179,0.903,0.109
		s0.173,0.705-0.105,0.933c-1.046,0.854-1.881,1.935-2.482,3.21C-670.3,231.179-670.529,231.317-670.767,231.317z M-652.435,229.84
		c-0.164,0-0.328-0.064-0.453-0.193c-0.955-0.98-2.07-1.81-3.315-2.466c-0.316-0.167-0.442-0.567-0.281-0.893
		c0.161-0.327,0.548-0.457,0.865-0.29c1.364,0.719,2.588,1.63,3.638,2.707c0.252,0.259,0.253,0.679,0.003,0.939
		C-652.104,229.775-652.269,229.84-652.435,229.84z M-577.833,229.1c-0.137,0-0.275-0.045-0.392-0.138
		c-0.282-0.224-0.335-0.641-0.118-0.931c0.865-1.163,1.699-2.366,2.477-3.576c0.196-0.305,0.596-0.389,0.891-0.186
		c0.296,0.203,0.377,0.615,0.18,0.921c-0.795,1.236-1.645,2.464-2.529,3.651C-577.449,229.01-577.64,229.1-577.833,229.1z
		 M-664.256,225.981c-0.294,0-0.559-0.209-0.627-0.517c-0.078-0.358,0.139-0.713,0.485-0.795c1.423-0.333,2.968-0.374,4.518-0.119
		c0.351,0.058,0.59,0.398,0.534,0.76c-0.056,0.362-0.386,0.608-0.736,0.552c-1.388-0.228-2.767-0.193-4.031,0.103
		C-664.161,225.976-664.208,225.981-664.256,225.981z M-573.078,221.702c-0.107,0-0.216-0.028-0.316-0.086
		c-0.309-0.181-0.418-0.586-0.243-0.905c0.7-1.277,1.359-2.589,1.959-3.899c0.152-0.331,0.536-0.473,0.856-0.317
		c0.321,0.157,0.458,0.553,0.307,0.884c-0.613,1.34-1.287,2.681-2.003,3.986C-572.636,221.581-572.854,221.702-573.078,221.702z
		 M-569.407,213.676c-0.076,0-0.154-0.014-0.229-0.044c-0.332-0.131-0.498-0.515-0.371-0.857c0.51-1.38,0.963-2.779,1.346-4.157
		c0.098-0.353,0.456-0.556,0.795-0.455c0.341,0.101,0.539,0.469,0.441,0.821c-0.393,1.415-0.857,2.85-1.381,4.265
		C-568.904,213.513-569.148,213.676-569.407,213.676z M-567.05,205.144c-0.039,0-0.079-0.004-0.119-0.011
		c-0.349-0.067-0.579-0.414-0.514-0.775c0.264-1.457,0.452-2.914,0.56-4.331c0.028-0.366,0.339-0.638,0.692-0.61
		c0.354,0.029,0.619,0.349,0.591,0.714c-0.112,1.464-0.306,2.968-0.578,4.47C-566.477,204.921-566.747,205.144-567.05,205.144z
		 M-566.397,196.305c-0.343,0-0.628-0.28-0.642-0.637c-0.059-1.471-0.211-2.926-0.452-4.324c-0.062-0.361,0.171-0.706,0.52-0.77
		c0.349-0.065,0.684,0.176,0.746,0.538c0.251,1.456,0.409,2.971,0.47,4.501c0.015,0.366-0.261,0.676-0.616,0.691
		C-566.379,196.305-566.388,196.305-566.397,196.305z M-567.916,187.592c-0.269,0-0.52-0.176-0.61-0.453
		c-0.233-0.719-0.497-1.435-0.784-2.128c-0.258-0.621-0.547-1.244-0.859-1.851c-0.167-0.324-0.048-0.726,0.266-0.898
		c0.314-0.172,0.703-0.049,0.87,0.275c0.33,0.64,0.635,1.297,0.906,1.953c0.301,0.726,0.577,1.475,0.821,2.228
		c0.113,0.348-0.069,0.724-0.406,0.841C-567.78,187.581-567.849,187.592-567.916,187.592z M-610.637,181.974
		c-0.066,0-0.133-0.01-0.199-0.033c-0.338-0.113-0.523-0.488-0.413-0.837c0.446-1.42,1.112-2.811,1.979-4.135
		c0.199-0.304,0.599-0.384,0.893-0.178c0.294,0.205,0.371,0.618,0.172,0.922c-0.799,1.22-1.412,2.499-1.821,3.8
		C-610.114,181.795-610.366,181.974-610.637,181.974z M-571.93,179.784c-0.193,0-0.384-0.089-0.511-0.26
		c-0.846-1.138-1.791-2.221-2.809-3.219c-0.258-0.253-0.268-0.673-0.024-0.939c0.245-0.266,0.652-0.277,0.909-0.024
		c1.067,1.046,2.057,2.18,2.944,3.373c0.216,0.291,0.163,0.708-0.118,0.931C-571.655,179.739-571.793,179.784-571.93,179.784z
		 M-605.926,174.656c-0.174,0-0.347-0.072-0.474-0.214c-0.241-0.27-0.223-0.69,0.038-0.938c1.076-1.022,2.272-1.939,3.554-2.727
		c0.305-0.187,0.7-0.084,0.882,0.231c0.182,0.315,0.081,0.723-0.224,0.91c-1.206,0.74-2.33,1.603-3.34,2.562
		C-605.614,174.598-605.771,174.656-605.926,174.656z M-578.143,173.692c-0.126,0-0.253-0.038-0.365-0.118
		c-1.159-0.826-2.38-1.555-3.63-2.168c-0.321-0.157-0.457-0.554-0.305-0.885c0.152-0.332,0.536-0.472,0.857-0.315
		c1.312,0.643,2.593,1.409,3.809,2.275c0.292,0.208,0.366,0.622,0.164,0.924C-577.738,173.591-577.939,173.692-578.143,173.692z
		 M-598.583,170.143c-0.267,0-0.516-0.173-0.608-0.448c-0.116-0.347,0.062-0.725,0.398-0.845c1.416-0.505,2.87-0.85,4.319-1.026
		c0.356-0.044,0.672,0.218,0.714,0.582c0.041,0.364-0.211,0.694-0.564,0.737c-1.358,0.164-2.72,0.488-4.049,0.962
		C-598.443,170.131-598.513,170.143-598.583,170.143z M-585.883,169.912c-0.057,0-0.116-0.008-0.174-0.025
		c-1.354-0.391-2.735-0.653-4.107-0.781c-0.354-0.033-0.615-0.356-0.583-0.721c0.032-0.365,0.352-0.635,0.698-0.602
		c1.449,0.135,2.908,0.412,4.338,0.824c0.342,0.099,0.542,0.465,0.446,0.818C-585.343,169.72-585.602,169.912-585.883,169.912z"/>
	<path fill="#FFCC00" stroke="#000000" stroke-width="2" stroke-miterlimit="10" d="M-611.009,188.58
		c-0.216,0-0.424-0.113-0.545-0.311c-0.356-0.584-0.77-1.141-1.232-1.654c-0.242-0.269-0.227-0.689,0.033-0.939
		c0.24-0.23,0.603-0.235,0.847-0.026c0.033-0.326,0.295-0.584,0.621-0.594c0.355-0.011,0.651,0.277,0.662,0.644
		c0.02,0.696,0.101,1.395,0.242,2.077c0.065,0.315-0.098,0.633-0.387,0.754C-610.846,188.564-610.929,188.58-611.009,188.58z"/>
	<path fill="#FFCC00" stroke="#000000" stroke-width="2" stroke-miterlimit="10" d="M-545.995,254.565c-0.001,0-0.001,0-0.002,0
		c-1.409-0.004-2.839-0.03-4.25-0.075c-0.355-0.011-0.634-0.318-0.623-0.685c0.011-0.367,0.307-0.655,0.663-0.643
		c1.399,0.045,2.816,0.07,4.214,0.074c0.355,0.001,0.642,0.299,0.641,0.666C-545.353,254.269-545.64,254.565-545.995,254.565z
		 M-541.763,254.516c-0.348,0-0.634-0.286-0.643-0.647c-0.009-0.367,0.272-0.672,0.627-0.681c1.398-0.037,2.815-0.095,4.21-0.173
		c0.357-0.019,0.658,0.261,0.677,0.627c0.019,0.366-0.253,0.679-0.608,0.699c-1.408,0.079-2.837,0.137-4.247,0.174
		C-541.752,254.516-541.758,254.516-541.763,254.516z M-554.454,254.291c-0.013,0-0.026,0-0.039-0.001
		c-1.409-0.087-2.835-0.195-4.239-0.323c-0.354-0.032-0.616-0.354-0.584-0.72c0.031-0.365,0.344-0.635,0.697-0.603
		c1.392,0.126,2.806,0.234,4.203,0.32c0.354,0.022,0.625,0.336,0.604,0.703C-553.833,254.019-554.116,254.291-554.454,254.291z
		 M-533.313,254.044c-0.331,0-0.612-0.262-0.64-0.609c-0.029-0.366,0.234-0.686,0.588-0.717c1.394-0.119,2.805-0.262,4.194-0.423
		c0.353-0.041,0.671,0.221,0.711,0.586c0.04,0.365-0.214,0.693-0.567,0.734c-1.401,0.162-2.824,0.306-4.231,0.426
		C-533.277,254.043-533.295,254.044-533.313,254.044z M-562.884,253.526c-0.025,0-0.05-0.002-0.075-0.005
		c-1.4-0.168-2.818-0.36-4.214-0.569c-0.352-0.053-0.595-0.39-0.544-0.753c0.051-0.363,0.376-0.616,0.729-0.562
		c1.384,0.208,2.79,0.398,4.178,0.564c0.353,0.042,0.606,0.372,0.564,0.737C-562.284,253.277-562.562,253.526-562.884,253.526z
		 M-524.902,253.068c-0.315,0-0.59-0.239-0.636-0.571c-0.05-0.363,0.195-0.699,0.546-0.751c1.387-0.204,2.788-0.431,4.162-0.676
		c0.348-0.062,0.683,0.18,0.743,0.542c0.061,0.361-0.174,0.705-0.524,0.767c-1.387,0.247-2.8,0.477-4.2,0.682
		C-524.842,253.066-524.872,253.068-524.902,253.068z M-571.259,252.269c-0.037,0-0.074-0.003-0.111-0.01
		c-1.393-0.251-2.798-0.525-4.176-0.816c-0.348-0.073-0.573-0.424-0.502-0.784c0.071-0.359,0.41-0.591,0.759-0.518
		c1.366,0.288,2.759,0.56,4.14,0.809c0.35,0.063,0.584,0.407,0.523,0.768C-570.68,252.042-570.952,252.269-571.259,252.269z
		 M-516.562,251.582c-0.299,0-0.568-0.217-0.63-0.532c-0.071-0.359,0.154-0.71,0.502-0.783c1.373-0.289,2.757-0.602,4.115-0.932
		c0.343-0.085,0.692,0.137,0.773,0.494c0.081,0.357-0.133,0.715-0.479,0.799c-1.37,0.333-2.768,0.65-4.153,0.941
		C-516.476,251.578-516.519,251.582-516.562,251.582z M-579.55,250.521c-0.049,0-0.098-0.006-0.147-0.018
		c-1.375-0.333-2.762-0.69-4.124-1.063c-0.343-0.094-0.548-0.458-0.457-0.812c0.091-0.355,0.445-0.566,0.786-0.472
		c1.35,0.37,2.725,0.724,4.088,1.054c0.346,0.084,0.56,0.441,0.479,0.798C-578.994,250.315-579.258,250.521-579.55,250.521z
		 M-508.323,249.578c-0.284,0-0.544-0.196-0.621-0.492c-0.092-0.354,0.111-0.719,0.455-0.814c1.354-0.375,2.717-0.777,4.051-1.193
		c0.34-0.106,0.699,0.093,0.802,0.444c0.103,0.351-0.09,0.722-0.43,0.828c-1.346,0.42-2.722,0.826-4.09,1.205
		C-508.212,249.571-508.268,249.578-508.323,249.578z M-587.73,248.281c-0.06,0-0.122-0.009-0.183-0.028
		c-1.355-0.415-2.72-0.857-4.056-1.312c-0.337-0.115-0.521-0.49-0.41-0.839c0.111-0.349,0.475-0.538,0.812-0.423
		c1.324,0.451,2.677,0.888,4.02,1.3c0.34,0.104,0.535,0.474,0.433,0.826C-587.197,248.094-587.453,248.281-587.73,248.281z
		 M-595.767,245.545c-0.073,0-0.147-0.013-0.22-0.04c-1.331-0.499-2.667-1.025-3.972-1.562c-0.33-0.136-0.491-0.522-0.359-0.863
		c0.132-0.341,0.505-0.507,0.836-0.371c1.293,0.532,2.617,1.053,3.936,1.548c0.334,0.125,0.506,0.506,0.385,0.851
		C-595.257,245.377-595.504,245.545-595.767,245.545z M-603.627,242.31c-0.086,0-0.173-0.018-0.256-0.055
		c-1.298-0.583-2.601-1.194-3.871-1.815c-0.321-0.157-0.458-0.553-0.306-0.884c0.152-0.331,0.536-0.473,0.857-0.316
		c1.258,0.615,2.548,1.22,3.834,1.797c0.326,0.146,0.475,0.538,0.333,0.874C-603.142,242.161-603.379,242.31-603.627,242.31z
		 M-611.275,238.571c-0.099,0-0.199-0.024-0.293-0.073c-1.259-0.668-2.521-1.364-3.751-2.069c-0.31-0.178-0.422-0.582-0.25-0.903
		c0.172-0.321,0.564-0.436,0.875-0.258c1.217,0.698,2.466,1.388,3.713,2.049c0.316,0.168,0.441,0.568,0.278,0.894
		C-610.816,238.44-611.041,238.571-611.275,238.571z M-618.671,234.327c-0.113,0-0.227-0.031-0.33-0.095
		c-0.494-0.306-0.986-0.616-1.475-0.929c-0.733-0.469-1.451-0.94-2.133-1.398c-0.298-0.2-0.382-0.612-0.188-0.919
		c0.194-0.307,0.592-0.394,0.89-0.194c0.674,0.453,1.383,0.918,2.109,1.382c0.484,0.31,0.971,0.616,1.46,0.919
		c0.305,0.189,0.403,0.597,0.22,0.911C-618.239,234.212-618.452,234.327-618.671,234.327z M-625.752,229.544
		c-0.13,0-0.262-0.041-0.375-0.125c-1.193-0.888-2.334-1.79-3.391-2.68c-0.275-0.232-0.316-0.65-0.092-0.934
		c0.224-0.284,0.63-0.327,0.905-0.095c1.037,0.874,2.157,1.76,3.329,2.632c0.288,0.214,0.353,0.63,0.146,0.927
		C-625.356,229.449-625.553,229.544-625.752,229.544z M-632.291,224.007c-0.159,0-0.318-0.06-0.443-0.182
		c-1.068-1.046-2.07-2.118-2.978-3.186c-0.234-0.276-0.208-0.695,0.059-0.937c0.267-0.242,0.673-0.215,0.908,0.061
		c0.882,1.038,1.857,2.081,2.896,3.098c0.258,0.252,0.269,0.673,0.024,0.939C-631.951,223.937-632.121,224.007-632.291,224.007z
		 M-637.842,217.433c-0.203,0-0.403-0.099-0.528-0.284c-0.839-1.241-1.593-2.521-2.239-3.805c-0.164-0.325-0.041-0.726,0.274-0.896
		c0.316-0.169,0.703-0.042,0.867,0.283c0.621,1.233,1.345,2.463,2.152,3.657c0.203,0.301,0.132,0.715-0.159,0.925
		C-637.586,217.394-637.715,217.433-637.842,217.433z M-641.68,209.68c-0.271,0-0.523-0.178-0.611-0.459
		c-0.448-1.422-0.781-2.889-0.99-4.359c-0.051-0.363,0.192-0.7,0.543-0.753c0.352-0.052,0.678,0.198,0.73,0.561
		c0.198,1.396,0.514,2.789,0.94,4.141c0.11,0.349-0.075,0.724-0.413,0.837C-641.547,209.669-641.614,209.68-641.68,209.68z
		 M-642.887,201.073c-0.007,0-0.014,0-0.021,0c-0.355-0.012-0.634-0.318-0.622-0.685c0.047-1.521,0.233-3.019,0.553-4.455
		c0.08-0.357,0.426-0.58,0.771-0.498c0.346,0.082,0.562,0.439,0.483,0.796c-0.301,1.352-0.476,2.765-0.521,4.2
		C-642.256,200.789-642.541,201.073-642.887,201.073z M-640.977,192.621c-0.092,0-0.185-0.02-0.274-0.064
		c-0.321-0.156-0.459-0.552-0.308-0.884c0.627-1.374,1.403-2.664,2.305-3.835c0.221-0.287,0.626-0.334,0.904-0.106
		c0.278,0.228,0.324,0.646,0.103,0.933c-0.84,1.09-1.563,2.293-2.148,3.574C-640.504,192.48-640.735,192.621-640.977,192.621z
		 M-635.742,185.858c-0.195,0-0.388-0.091-0.514-0.264c-0.214-0.293-0.157-0.709,0.126-0.93c1.133-0.882,2.415-1.633,3.81-2.234
		c0.328-0.141,0.704,0.019,0.841,0.357s-0.018,0.728-0.346,0.869c-1.296,0.558-2.484,1.254-3.531,2.069
		C-635.471,185.814-635.607,185.858-635.742,185.858z M-615.666,184.188c-0.103,0-0.207-0.026-0.304-0.079
		c-1.147-0.637-2.424-1.132-3.795-1.47c-0.345-0.085-0.559-0.443-0.476-0.8c0.083-0.357,0.43-0.577,0.775-0.492
		c1.48,0.365,2.861,0.9,4.107,1.592c0.313,0.174,0.43,0.577,0.262,0.9C-615.215,184.061-615.437,184.188-615.666,184.188z
		 M-628.02,182.473c-0.304,0-0.575-0.224-0.632-0.544c-0.064-0.361,0.167-0.707,0.516-0.773c1.427-0.271,2.888-0.395,4.34-0.367
		c0.355,0.007,0.638,0.309,0.631,0.676c-0.006,0.363-0.293,0.652-0.643,0.652c-0.004,0-0.008,0-0.012,0
		c-1.365-0.025-2.74,0.09-4.083,0.345C-627.942,182.469-627.981,182.473-628.02,182.473z"/>
	<path fill="#FFCC00" stroke="#000000" stroke-width="2" stroke-miterlimit="10" d="M-500.199,247.04
		c-0.268,0-0.519-0.175-0.609-0.452c-0.114-0.347,0.067-0.724,0.403-0.842c0.672-0.234,1.35-0.477,2.015-0.722
		c0.335-0.123,0.702,0.057,0.822,0.403c0.119,0.346-0.055,0.725-0.39,0.848c-0.672,0.247-1.357,0.492-2.035,0.729
		C-500.061,247.029-500.13,247.04-500.199,247.04z"/>
</g>
<g>
	<polygon fill="#0D1321" points="-492.608,245.19 -492.608,245.19 -487.305,231.386 -485.884,232.074 	"/>
	<path fill="#0D1321" d="M-484.678,221.95c-2.875,0-5.205,2.425-5.205,5.418c0,2.992,2.33,5.418,5.205,5.418
		s5.205-2.425,5.205-5.418C-479.473,224.375-481.803,221.95-484.678,221.95z M-484.678,231.781c-2.342,0-4.241-1.976-4.241-4.411
		c0-2.44,1.898-4.413,4.241-4.413s4.241,1.973,4.241,4.413C-480.438,229.805-482.336,231.781-484.678,231.781z"/>
	<path fill="#0D1321" d="M-481.119,227.37c0,2.043-1.594,3.702-3.559,3.702s-3.559-1.658-3.559-3.702
		c0-2.048,1.594-3.704,3.559-3.704S-481.119,225.322-481.119,227.37z"/>
</g>
<g>
	<g opacity="0.1">
		<ellipse fill="#161616" cx="-746.898" cy="233.57" rx="1.101" ry="1.139"/>
		<ellipse fill="#161616" cx="-744.741" cy="235.801" rx="1.101" ry="1.139"/>
		<ellipse fill="#161616" cx="-742.584" cy="238.033" rx="1.101" ry="1.139"/>
		<ellipse fill="#161616" cx="-740.427" cy="240.265" rx="1.101" ry="1.139"/>
		<ellipse fill="#161616" cx="-742.584" cy="242.496" rx="1.101" ry="1.139"/>
		<ellipse fill="#161616" cx="-744.741" cy="244.728" rx="1.101" ry="1.139"/>
		<ellipse fill="#161616" cx="-746.898" cy="246.959" rx="1.101" ry="1.139"/>
		<ellipse fill="#161616" cx="-751.212" cy="233.57" rx="1.101" ry="1.139"/>
		<ellipse fill="#161616" cx="-749.055" cy="235.801" rx="1.101" ry="1.139"/>
		<ellipse fill="#161616" cx="-746.898" cy="238.033" rx="1.101" ry="1.139"/>
		<ellipse fill="#161616" cx="-744.741" cy="240.265" rx="1.101" ry="1.139"/>
		<ellipse fill="#161616" cx="-746.898" cy="242.496" rx="1.101" ry="1.139"/>
		<ellipse fill="#161616" cx="-749.055" cy="244.728" rx="1.101" ry="1.139"/>
		<ellipse fill="#161616" cx="-751.212" cy="246.959" rx="1.101" ry="1.139"/>
		<ellipse fill="#161616" cx="-755.526" cy="233.57" rx="1.101" ry="1.139"/>
		<ellipse fill="#161616" cx="-753.369" cy="235.801" rx="1.101" ry="1.139"/>
		<ellipse fill="#161616" cx="-751.212" cy="238.033" rx="1.101" ry="1.139"/>
		<ellipse fill="#161616" cx="-749.055" cy="240.265" rx="1.101" ry="1.139"/>
		<ellipse fill="#161616" cx="-751.212" cy="242.496" rx="1.101" ry="1.139"/>
		<ellipse fill="#161616" cx="-753.369" cy="244.728" rx="1.101" ry="1.139"/>
		<ellipse fill="#161616" cx="-755.526" cy="246.959" rx="1.101" ry="1.139"/>
		<ellipse fill="#161616" cx="-759.84" cy="233.57" rx="1.101" ry="1.139"/>
		<ellipse fill="#161616" cx="-757.683" cy="235.801" rx="1.101" ry="1.139"/>
		<ellipse fill="#161616" cx="-755.526" cy="238.033" rx="1.101" ry="1.139"/>
		<ellipse fill="#161616" cx="-753.369" cy="240.265" rx="1.101" ry="1.139"/>
		<ellipse fill="#161616" cx="-755.526" cy="242.496" rx="1.101" ry="1.139"/>
		<ellipse fill="#161616" cx="-757.683" cy="244.728" rx="1.101" ry="1.139"/>
		<ellipse fill="#161616" cx="-759.84" cy="246.959" rx="1.101" ry="1.139"/>
	</g>
	<g>
		<ellipse fill="#0D1321" cx="-745.381" cy="232.478" rx="1.101" ry="1.139"/>
		<ellipse fill="#0D1321" cx="-743.224" cy="234.709" rx="1.101" ry="1.139"/>
		<ellipse fill="#0D1321" cx="-741.067" cy="236.941" rx="1.101" ry="1.139"/>
		<ellipse fill="#0D1321" cx="-738.91" cy="239.172" rx="1.101" ry="1.139"/>
		<ellipse fill="#0D1321" cx="-741.067" cy="241.404" rx="1.101" ry="1.139"/>
		<ellipse fill="#0D1321" cx="-743.224" cy="243.635" rx="1.101" ry="1.139"/>
		<ellipse fill="#0D1321" cx="-745.381" cy="245.867" rx="1.101" ry="1.139"/>
		<ellipse fill="#0D1321" cx="-749.695" cy="232.478" rx="1.101" ry="1.139"/>
		<ellipse fill="#0D1321" cx="-747.538" cy="234.709" rx="1.101" ry="1.139"/>
		<ellipse fill="#0D1321" cx="-745.381" cy="236.941" rx="1.101" ry="1.139"/>
		<ellipse fill="#0D1321" cx="-743.224" cy="239.172" rx="1.101" ry="1.139"/>
		<ellipse fill="#0D1321" cx="-745.381" cy="241.404" rx="1.101" ry="1.139"/>
		<ellipse fill="#0D1321" cx="-747.538" cy="243.635" rx="1.101" ry="1.139"/>
		<ellipse fill="#0D1321" cx="-749.695" cy="245.867" rx="1.101" ry="1.139"/>
		<ellipse fill="#0D1321" cx="-754.009" cy="232.478" rx="1.101" ry="1.139"/>
		<ellipse fill="#0D1321" cx="-751.852" cy="234.709" rx="1.101" ry="1.139"/>
		<ellipse fill="#0D1321" cx="-749.695" cy="236.941" rx="1.101" ry="1.139"/>
		<ellipse fill="#0D1321" cx="-747.538" cy="239.172" rx="1.101" ry="1.139"/>
		<ellipse fill="#0D1321" cx="-749.695" cy="241.404" rx="1.101" ry="1.139"/>
		<ellipse fill="#0D1321" cx="-751.852" cy="243.635" rx="1.101" ry="1.139"/>
		<ellipse fill="#0D1321" cx="-754.009" cy="245.867" rx="1.101" ry="1.139"/>
		<ellipse fill="#0D1321" cx="-758.323" cy="232.478" rx="1.101" ry="1.139"/>
		<ellipse fill="#0D1321" cx="-756.165" cy="234.709" rx="1.101" ry="1.139"/>
		<ellipse fill="#0D1321" cx="-754.009" cy="236.941" rx="1.101" ry="1.139"/>
		<ellipse fill="#0D1321" cx="-751.852" cy="239.172" rx="1.101" ry="1.139"/>
		<ellipse fill="#0D1321" cx="-754.009" cy="241.404" rx="1.101" ry="1.139"/>
		<ellipse fill="#0D1321" cx="-756.165" cy="243.635" rx="1.101" ry="1.139"/>
		<ellipse fill="#0D1321" cx="-758.323" cy="245.867" rx="1.101" ry="1.139"/>
	</g>
</g>
<rect x="0" fill="#00CC66" width="820" height="360"/>
<g>
	<g opacity="0.05">
		<ellipse fill="#161616" cx="205.469" cy="61.379" rx="2.341" ry="2.328"/>
		<ellipse fill="#161616" cx="210.055" cy="65.939" rx="2.341" ry="2.328"/>
		<ellipse fill="#161616" cx="214.641" cy="70.499" rx="2.341" ry="2.327"/>
		<ellipse fill="#161616" cx="219.227" cy="75.059" rx="2.341" ry="2.328"/>
		<ellipse fill="#161616" cx="214.641" cy="79.618" rx="2.341" ry="2.328"/>
		<ellipse fill="#161616" cx="210.055" cy="84.178" rx="2.341" ry="2.327"/>
		<ellipse fill="#161616" cx="205.469" cy="88.738" rx="2.341" ry="2.327"/>
		<ellipse fill="#161616" cx="196.297" cy="61.379" rx="2.341" ry="2.328"/>
		<ellipse fill="#161616" cx="200.883" cy="65.939" rx="2.341" ry="2.328"/>
		<ellipse fill="#161616" cx="205.469" cy="70.499" rx="2.341" ry="2.327"/>
		<ellipse fill="#161616" cx="210.055" cy="75.059" rx="2.341" ry="2.328"/>
		<ellipse fill="#161616" cx="205.469" cy="79.618" rx="2.341" ry="2.328"/>
		<ellipse fill="#161616" cx="200.883" cy="84.178" rx="2.341" ry="2.327"/>
		<ellipse fill="#161616" cx="196.297" cy="88.738" rx="2.341" ry="2.327"/>
		<ellipse fill="#161616" cx="187.125" cy="61.379" rx="2.341" ry="2.328"/>
		<ellipse fill="#161616" cx="191.711" cy="65.939" rx="2.341" ry="2.328"/>
		<ellipse fill="#161616" cx="196.297" cy="70.499" rx="2.341" ry="2.327"/>
		<ellipse fill="#161616" cx="200.883" cy="75.059" rx="2.341" ry="2.328"/>
		<ellipse fill="#161616" cx="196.297" cy="79.618" rx="2.341" ry="2.328"/>
		<ellipse fill="#161616" cx="191.711" cy="84.178" rx="2.341" ry="2.327"/>
		<ellipse fill="#161616" cx="187.125" cy="88.738" rx="2.341" ry="2.327"/>
		<ellipse fill="#161616" cx="177.953" cy="61.379" rx="2.341" ry="2.328"/>
		<ellipse fill="#161616" cx="182.539" cy="65.939" rx="2.341" ry="2.328"/>
		<ellipse fill="#161616" cx="187.125" cy="70.499" rx="2.341" ry="2.327"/>
		<ellipse fill="#161616" cx="191.711" cy="75.059" rx="2.341" ry="2.328"/>
		<ellipse fill="#161616" cx="187.125" cy="79.618" rx="2.341" ry="2.328"/>
		<ellipse fill="#161616" cx="182.539" cy="84.178" rx="2.341" ry="2.327"/>
		<ellipse fill="#161616" cx="177.953" cy="88.738" rx="2.341" ry="2.327"/>
	</g>
	<g>
		<ellipse fill="#FFCC00" cx="208.744" cy="58.447" rx="2.341" ry="2.328"/>
		<ellipse fill="#FFCC00" cx="213.33" cy="63.007" rx="2.341" ry="2.328"/>
		<ellipse fill="#FFCC00" cx="217.916" cy="67.566" rx="2.341" ry="2.327"/>
		<ellipse fill="#FFCC00" cx="222.502" cy="72.126" rx="2.341" ry="2.328"/>
		<ellipse fill="#FFCC00" cx="217.916" cy="76.686" rx="2.341" ry="2.328"/>
		<ellipse fill="#FFCC00" cx="213.33" cy="81.246" rx="2.341" ry="2.327"/>
		<ellipse fill="#FFCC00" cx="208.744" cy="85.805" rx="2.341" ry="2.327"/>
		<ellipse fill="#FFCC00" cx="199.572" cy="58.447" rx="2.341" ry="2.328"/>
		<ellipse fill="#FFCC00" cx="204.158" cy="63.007" rx="2.341" ry="2.328"/>
		<ellipse fill="#FFCC00" cx="208.744" cy="67.566" rx="2.341" ry="2.327"/>
		<ellipse fill="#FFCC00" cx="213.33" cy="72.126" rx="2.341" ry="2.328"/>
		<ellipse fill="#FFCC00" cx="208.744" cy="76.686" rx="2.341" ry="2.328"/>
		<ellipse fill="#FFCC00" cx="204.158" cy="81.246" rx="2.341" ry="2.327"/>
		<ellipse fill="#FFCC00" cx="199.572" cy="85.805" rx="2.341" ry="2.327"/>
		<ellipse fill="#FFCC00" cx="190.4" cy="58.447" rx="2.341" ry="2.328"/>
		<ellipse fill="#FFCC00" cx="194.986" cy="63.007" rx="2.341" ry="2.328"/>
		<ellipse fill="#FFCC00" cx="199.572" cy="67.566" rx="2.341" ry="2.327"/>
		<ellipse fill="#FFCC00" cx="204.158" cy="72.126" rx="2.341" ry="2.328"/>
		<ellipse fill="#FFCC00" cx="199.572" cy="76.686" rx="2.341" ry="2.328"/>
		<ellipse fill="#FFCC00" cx="194.986" cy="81.246" rx="2.341" ry="2.327"/>
		<ellipse fill="#FFCC00" cx="190.4" cy="85.805" rx="2.341" ry="2.327"/>
		<ellipse fill="#FFCC00" cx="181.228" cy="58.447" rx="2.341" ry="2.328"/>
		<ellipse fill="#FFCC00" cx="185.814" cy="63.007" rx="2.341" ry="2.328"/>
		<ellipse fill="#FFCC00" cx="190.4" cy="67.566" rx="2.341" ry="2.327"/>
		<ellipse fill="#FFCC00" cx="194.986" cy="72.126" rx="2.341" ry="2.328"/>
		<ellipse fill="#FFCC00" cx="190.4" cy="76.686" rx="2.341" ry="2.328"/>
		<ellipse fill="#FFCC00" cx="185.814" cy="81.246" rx="2.341" ry="2.327"/>
		<ellipse fill="#FFCC00" cx="181.228" cy="85.805" rx="2.341" ry="2.327"/>
	</g>
</g>
<g>
	<g>
		<g>
			<path fill="#FFFFFF" d="M133.801,66.561c0,3.647-1.911,6.039-6.326,6.039c-3.633,0-4.441-2.013-4.441-2.013
				s-0.808,2.013-4.441,2.013c-4.414,0-6.326-2.392-6.326-6.039v-7.6c0-3.789-0.269-4.736-0.269-4.736h4.037v14.231
				c0,1.349,0.754,2.249,2.557,2.249c1.803,0,2.557-0.899,2.557-2.249v-9.495c0-3.789-0.808-4.736-0.808-4.736h4.037
				c0,0,0.538,0.473,0.538,4.736v9.495c0,1.349,0.754,2.249,2.557,2.249c1.804,0,2.557-0.899,2.557-2.249v-9.495
				c0-3.789-0.808-4.736-0.808-4.736h4.037c0,0,0.538,0.473,0.538,4.736V66.561z"/>
			<path fill="#FFFFFF" d="M137.915,75.204c0,0-0.484-1.161-0.323-3.078l1.104-13.544c-0.942-0.473-1.615-1.278-1.615-2.439
				c0-1.823,1.696-2.865,3.499-2.865s3.526,1.041,3.526,2.865c0,1.161-0.7,1.989-1.642,2.439l-1.131,12.597
				c-0.242,2.723,0.619,4.025,0.619,4.025H137.915z M140.58,58.037c0.7,0,1.104-0.568,1.104-1.894s-0.404-1.918-1.104-1.918
				s-1.076,0.592-1.076,1.918S139.88,58.037,140.58,58.037z"/>
			<path fill="#FFFFFF" d="M149.73,54.225v4.759c4.925,0,7.698,2.842,7.698,8.619v0.971c0,2.605,0.538,3.552,0.538,3.552h-4.037
				c0,0-0.269-0.474-0.269-3.552v-4.049c0-3.86-2.557-3.883-3.93-3.883v6.748c0,3.789,0.296,4.736,0.296,4.736h-4.037V54.225H149.73
				z"/>
			<path fill="#FFFFFF" d="M166.819,72.126c-4.442,0-7.241-1.018-7.241-4.214c0-3.197,2.799-4.215,7.241-4.215h1.077
				c0-4.025-1.615-4.735-1.615-4.735h4.307c0,0,1.077,0.947,1.077,4.735v8.43H166.819z M167.896,70.468v-5.115h-1.077
				c-2.207,0-2.934,0.876-2.934,2.558c0,1.68,0.727,2.557,2.934,2.557H167.896z"/>
		</g>
		<g>
			<path fill="#FFFFFF" d="M123.649,88.605h2.423v2.865h-2.745c-1.669,0-2.96-0.489-3.876-1.468
				c-0.771,0.521-1.714,0.781-2.825,0.781c-1.651,0-2.969-0.545-3.956-1.634c-0.807-0.899-1.211-1.98-1.211-3.243
				c0-1.563,0.574-2.833,1.723-3.812c0.969-0.821,2.09-1.231,3.364-1.231c0.663,0,1.273,0.111,1.83,0.332V80.58l3.364-1.562v7.883
				c0,0.616,0.149,1.054,0.444,1.314C122.478,88.476,122.967,88.605,123.649,88.605z M114.957,78.095
				c-0.538,0-0.969-0.142-1.292-0.426c-0.323-0.284-0.484-0.67-0.484-1.16c0-1.026,0.592-1.539,1.776-1.539
				c0.538,0,0.964,0.138,1.278,0.414c0.314,0.276,0.471,0.651,0.471,1.124C116.706,77.566,116.122,78.095,114.957,78.095z
				 M118.374,84.179c-0.467-0.347-0.996-0.522-1.588-0.522c-0.593,0-1.072,0.214-1.44,0.64c-0.368,0.425-0.551,0.986-0.551,1.68
				c0,0.695,0.179,1.247,0.538,1.658c0.359,0.411,0.851,0.615,1.48,0.615c0.682,0,1.211-0.205,1.588-0.615
				c-0.018-0.126-0.027-0.324-0.027-0.592V84.179z M119.101,78.095c-0.538,0-0.969-0.142-1.292-0.426
				c-0.323-0.284-0.484-0.67-0.484-1.16c0-1.026,0.592-1.539,1.776-1.539c0.538,0,0.964,0.138,1.279,0.414
				c0.314,0.276,0.471,0.651,0.471,1.124C120.85,77.566,120.267,78.095,119.101,78.095z"/>
			<path fill="#FFFFFF" d="M142.837,88.605h2.423v2.865h-2.745c-1.328,0-2.422-0.315-3.283-0.947
				c-0.861,0.632-1.974,0.947-3.337,0.947h-3.391c-0.61,0-1.184-0.079-1.722-0.237c-0.557,0.158-1.131,0.237-1.723,0.237h-4.602
				v-2.865h2.745c-0.305-0.583-0.458-1.222-0.458-1.917c0-0.978,0.296-1.8,0.888-2.462c0.449-1.326,1.251-2.367,2.409-3.124
				c1.157-0.758,2.498-1.137,4.023-1.137c2.046,0,3.722,0.592,5.032,1.776c1.22,1.105,1.83,2.533,1.83,4.285v0.876
				c0,0.616,0.149,1.054,0.444,1.314C141.666,88.476,142.155,88.605,142.837,88.605z M130.781,88.393
				c1.148-0.332,1.722-0.986,1.722-1.965c0-0.49-0.157-0.88-0.471-1.172c-0.315-0.292-0.731-0.438-1.251-0.438
				c-0.521,0-0.938,0.146-1.252,0.438c-0.314,0.292-0.471,0.683-0.471,1.172C129.058,87.406,129.632,88.061,130.781,88.393z
				 M135.84,88.605c0.664,0,1.117-0.122,1.359-0.366c0.242-0.245,0.363-0.699,0.363-1.362v-0.852c0-0.995-0.327-1.791-0.982-2.391
				c-0.655-0.6-1.521-0.9-2.597-0.9c-0.736,0-1.372,0.142-1.911,0.426c0.843,0.221,1.511,0.647,2.005,1.279
				c0.493,0.631,0.739,1.381,0.739,2.249c0,0.695-0.152,1.334-0.457,1.917H135.84z"/>
			<path fill="#FFFFFF" d="M143.645,91.47v-2.865h4.009c3.157,0,5.669-0.828,7.536-2.485c-1.221-1.878-2.701-2.817-4.441-2.817
				c-1.436,0-3.005,0.687-4.709,2.06v-2.628c1.507-1.451,3.211-2.177,5.113-2.177c1.4,0,2.763,0.449,4.09,1.349
				c1.328,0.899,2.503,2.177,3.526,3.835v1.184c-1.292,1.452-2.902,2.572-4.83,3.362c-1.929,0.789-4.033,1.184-6.311,1.184H143.645z
				 M151.988,96.75c-0.538,0-0.97-0.142-1.292-0.426c-0.323-0.284-0.484-0.671-0.484-1.161c0-0.457,0.161-0.828,0.484-1.112
				c0.323-0.284,0.754-0.426,1.292-0.426c0.538,0,0.964,0.138,1.278,0.414c0.314,0.276,0.471,0.651,0.471,1.124
				C153.736,96.221,153.154,96.75,151.988,96.75z"/>
			<path fill="#FFFFFF" d="M168.618,90.784c-0.556,0.094-1.13,0.142-1.722,0.142c-1.651,0-2.97-0.545-3.956-1.634
				c-0.807-0.915-1.211-2.02-1.211-3.314c0-1.736,0.538-3.101,1.614-4.095c0.95-0.884,2.207-1.326,3.767-1.326
				c1.597,0,2.844,0.449,3.741,1.349c0.771,0.773,1.158,1.783,1.158,3.03v5.066c0,1.862-0.557,3.33-1.669,4.403
				c-1.041,1.01-2.458,1.515-4.253,1.515c-1.13,0-2.234-0.269-3.31-0.805v-2.581c0.969,0.489,1.937,0.734,2.906,0.734
				C167.425,93.27,168.403,92.441,168.618,90.784z M168.646,84.889c0-1.041-0.512-1.562-1.535-1.562
				c-0.646,0-1.153,0.229-1.52,0.687c-0.368,0.457-0.552,1.081-0.552,1.87c0,1.673,0.682,2.509,2.046,2.509
				c0.717,0,1.237-0.158,1.561-0.473V84.889z"/>
		</g>
	</g>
</g>
<text transform="matrix(1 0 0 1 382.8458 185.0568)"><tspan x="0" y="0" fill="#FFFFFF" font-family="'ArefRuqaa-Bold'" font-size="53">كققييرط راتتخختت ام لببقق</tspan><tspan x="294.409" y="0" fill="#FFFFFF" font-family="'ArefRuqaa-Bold'" font-size="53"> </tspan></text>
<g>
	<path fill="#FFCC00" d="M159.144,241.757c-0.124,0-0.248-0.037-0.358-0.113c-0.595-0.413-1.193-0.841-1.776-1.27
		c-0.289-0.213-0.357-0.627-0.151-0.926c0.206-0.299,0.608-0.369,0.897-0.156c0.574,0.422,1.162,0.843,1.748,1.249
		c0.295,0.205,0.373,0.617,0.175,0.922C159.554,241.654,159.351,241.757,159.144,241.757z"/>
	<path fill="#FFCC00" d="M207.833,257.056c-0.001,0-0.002,0-0.003,0c-0.435-0.002-0.87-0.009-1.304-0.018
		c-1.003-0.022-2.022-0.063-3.027-0.121c-0.355-0.02-0.626-0.334-0.606-0.7c0.02-0.366,0.33-0.645,0.678-0.626
		c0.991,0.057,1.995,0.097,2.984,0.119c0.427,0.009,0.854,0.016,1.283,0.018c0.355,0.002,0.642,0.301,0.64,0.668
		C208.475,256.761,208.187,257.056,207.833,257.056z M212.132,256.941c-0.338,0-0.621-0.272-0.641-0.624
		c-0.021-0.366,0.249-0.681,0.603-0.703c1.467-0.091,2.889-0.239,4.225-0.44c0.352-0.054,0.678,0.199,0.729,0.562
		c0.051,0.363-0.192,0.7-0.544,0.753c-1.372,0.206-2.83,0.358-4.333,0.452C212.159,256.94,212.145,256.941,212.132,256.941z
		 M252.306,256.581c0,0-0.001,0-0.001,0c-1.442-0.003-2.901-0.048-4.335-0.135c-0.355-0.021-0.625-0.336-0.605-0.702
		c0.021-0.366,0.331-0.648,0.68-0.624c1.41,0.085,2.844,0.13,4.263,0.132c0.355,0.001,0.643,0.299,0.642,0.665
		C252.949,256.285,252.661,256.581,252.306,256.581z M199.248,256.564c-0.022,0-0.045-0.001-0.067-0.004
		c-1.428-0.153-2.874-0.345-4.296-0.569c-0.351-0.055-0.593-0.394-0.539-0.757c0.054-0.362,0.382-0.611,0.733-0.556
		c1.403,0.221,2.828,0.409,4.236,0.561c0.353,0.038,0.61,0.365,0.573,0.729C199.852,256.31,199.573,256.564,199.248,256.564z
		 M256.605,256.465c-0.339,0-0.623-0.274-0.642-0.628c-0.019-0.366,0.253-0.679,0.608-0.699c1.413-0.079,2.844-0.201,4.251-0.361
		c0.353-0.04,0.671,0.222,0.71,0.587c0.039,0.365-0.215,0.693-0.568,0.733c-1.431,0.163-2.885,0.287-4.323,0.368
		C256.629,256.465,256.617,256.465,256.605,256.465z M243.723,256.063c-0.025,0-0.05-0.002-0.075-0.005
		c-1.434-0.172-2.879-0.389-4.293-0.645c-0.35-0.063-0.584-0.408-0.522-0.769c0.062-0.361,0.396-0.602,0.745-0.539
		c1.39,0.252,2.809,0.465,4.219,0.634c0.353,0.042,0.606,0.372,0.565,0.736C244.323,255.813,244.045,256.063,243.723,256.063z
		 M220.629,255.629c-0.286,0-0.548-0.199-0.622-0.499c-0.089-0.355,0.118-0.717,0.462-0.809c1.405-0.374,2.751-0.831,4.001-1.357
		c0.328-0.139,0.704,0.024,0.839,0.364c0.134,0.34-0.024,0.727-0.352,0.866c-1.304,0.549-2.705,1.025-4.166,1.414
		C220.737,255.622,220.683,255.629,220.629,255.629z M265.151,255.488c-0.308,0-0.581-0.23-0.634-0.554
		c-0.059-0.362,0.177-0.704,0.528-0.765c1.4-0.243,2.807-0.53,4.183-0.854c0.347-0.081,0.691,0.143,0.77,0.5
		c0.079,0.358-0.138,0.714-0.484,0.795c-1.4,0.329-2.832,0.621-4.256,0.868C265.223,255.485,265.187,255.488,265.151,255.488z
		 M190.747,255.227c-0.042,0-0.085-0.004-0.128-0.013c-1.41-0.293-2.832-0.625-4.225-0.986c-0.345-0.089-0.554-0.45-0.467-0.806
		c0.086-0.356,0.435-0.572,0.781-0.482c1.373,0.356,2.775,0.683,4.165,0.972c0.348,0.072,0.574,0.423,0.504,0.782
		C191.315,255.009,191.047,255.227,190.747,255.227z M235.255,254.526c-0.049,0-0.099-0.006-0.149-0.018
		c-0.584-0.143-1.175-0.296-1.755-0.455c-0.838-0.229-1.658-0.473-2.438-0.724c-0.339-0.109-0.528-0.482-0.422-0.832
		c0.106-0.35,0.466-0.545,0.806-0.436c0.762,0.246,1.564,0.484,2.383,0.708c0.57,0.156,1.149,0.306,1.723,0.447
		c0.346,0.085,0.559,0.443,0.477,0.8C235.81,254.32,235.546,254.526,235.255,254.526z M273.536,253.518
		c-0.279,0-0.536-0.189-0.618-0.48c-0.099-0.352,0.098-0.721,0.439-0.823c1.365-0.408,2.73-0.862,4.058-1.349
		c0.335-0.123,0.702,0.058,0.821,0.404c0.119,0.346-0.056,0.725-0.391,0.848c-1.352,0.496-2.741,0.958-4.131,1.373
		C273.656,253.509,273.595,253.518,273.536,253.518z M182.406,253.065c-0.062,0-0.124-0.009-0.186-0.029
		c-1.378-0.43-2.762-0.899-4.115-1.395c-0.335-0.123-0.51-0.503-0.391-0.848c0.119-0.346,0.486-0.526,0.821-0.404
		c1.333,0.489,2.698,0.952,4.057,1.375c0.34,0.106,0.532,0.477,0.43,0.828C182.938,252.879,182.682,253.065,182.406,253.065z
		 M228.55,252.245c-0.215,0-0.425-0.111-0.547-0.314c-0.187-0.312-0.095-0.721,0.207-0.915c1.181-0.757,2.287-1.643,3.288-2.633
		c0.257-0.254,0.663-0.245,0.91,0.02c0.246,0.265,0.237,0.685-0.02,0.939c-1.066,1.054-2.243,1.996-3.499,2.802
		C228.783,252.213,228.666,252.245,228.55,252.245z M227.063,251.84c-0.084,0-0.169-0.017-0.25-0.053
		c-1.414-0.618-2.733-1.299-3.921-2.024c-0.306-0.187-0.407-0.594-0.226-0.91c0.18-0.315,0.575-0.42,0.881-0.234
		c1.139,0.695,2.407,1.349,3.768,1.944c0.327,0.143,0.48,0.533,0.342,0.87C227.552,251.688,227.313,251.84,227.063,251.84z
		 M281.638,250.544c-0.25,0-0.488-0.152-0.592-0.404c-0.139-0.337,0.013-0.728,0.34-0.871c0.623-0.274,1.25-0.561,1.863-0.853
		c0.671-0.32,1.346-0.655,2.004-0.997c0.318-0.164,0.704-0.032,0.863,0.296c0.16,0.328,0.031,0.727-0.286,0.892
		c-0.671,0.348-1.359,0.69-2.043,1.016c-0.624,0.297-1.262,0.59-1.898,0.869C281.808,250.527,281.723,250.544,281.638,250.544z
		 M174.303,250.093c-0.081,0-0.164-0.016-0.244-0.05c-1.333-0.565-2.668-1.171-3.966-1.799c-0.322-0.156-0.46-0.551-0.309-0.883
		c0.151-0.332,0.535-0.475,0.855-0.319c1.279,0.619,2.594,1.216,3.908,1.773c0.328,0.139,0.486,0.527,0.351,0.867
		C174.796,249.938,174.556,250.093,174.303,250.093z M219.727,247.275c-0.15,0-0.301-0.054-0.423-0.164
		c-1.159-1.046-2.162-2.191-2.982-3.403c-0.203-0.301-0.132-0.715,0.159-0.925c0.291-0.21,0.692-0.136,0.895,0.164
		c0.761,1.124,1.694,2.188,2.775,3.163c0.267,0.241,0.295,0.661,0.061,0.937C220.084,247.198,219.906,247.275,219.727,247.275z
		 M289.324,246.559c-0.221,0-0.437-0.118-0.556-0.329c-0.179-0.317-0.076-0.723,0.231-0.908c1.222-0.737,2.437-1.523,3.611-2.337
		c0.295-0.204,0.695-0.123,0.893,0.181c0.198,0.305,0.12,0.717-0.175,0.922c-1.196,0.83-2.435,1.631-3.68,2.381
		C289.546,246.53,289.434,246.559,289.324,246.559z M166.519,246.321c-0.102,0-0.205-0.025-0.301-0.078
		c-1.275-0.7-2.544-1.44-3.773-2.2c-0.305-0.189-0.404-0.596-0.221-0.911c0.182-0.315,0.577-0.417,0.882-0.229
		c1.21,0.749,2.46,1.477,3.716,2.167c0.314,0.172,0.433,0.574,0.266,0.898C166.973,246.193,166.75,246.321,166.519,246.321z
		 M234.703,246.131c-0.122,0-0.245-0.036-0.354-0.111c-0.296-0.203-0.377-0.615-0.181-0.92c0.79-1.231,1.402-2.515,1.821-3.816
		c0.112-0.348,0.476-0.536,0.813-0.421c0.337,0.116,0.52,0.492,0.408,0.84c-0.454,1.412-1.117,2.802-1.969,4.131
		C235.116,246.027,234.911,246.131,234.703,246.131z M296.464,241.608c-0.193,0-0.384-0.089-0.511-0.26
		c-0.216-0.291-0.163-0.708,0.119-0.931c1.123-0.89,2.233-1.828,3.297-2.788c0.267-0.241,0.674-0.213,0.907,0.063
		c0.234,0.276,0.206,0.696-0.061,0.937c-1.085,0.978-2.215,1.935-3.36,2.842C296.739,241.563,296.601,241.608,296.464,241.608z
		 M215.038,239.987c-0.283,0-0.542-0.194-0.62-0.489c-0.319-1.206-0.482-2.446-0.482-3.683c0-0.314,0.011-0.629,0.031-0.937
		c0.025-0.366,0.327-0.641,0.686-0.616c0.354,0.025,0.622,0.343,0.597,0.709c-0.019,0.277-0.028,0.561-0.028,0.845
		c0,1.119,0.147,2.24,0.436,3.332c0.094,0.354-0.108,0.719-0.451,0.816C215.151,239.979,215.094,239.987,215.038,239.987z
		 M237.289,237.795c-0.353,0-0.64-0.294-0.643-0.659c-0.007-0.955-0.129-1.902-0.361-2.813c-0.107-0.422-0.249-0.844-0.421-1.257
		c-0.14-0.337,0.011-0.728,0.337-0.872c0.326-0.145,0.704,0.011,0.845,0.348c0.196,0.472,0.359,0.958,0.483,1.442
		c0.26,1.018,0.396,2.075,0.404,3.142c0.003,0.367-0.283,0.666-0.638,0.669C237.292,237.795,237.291,237.795,237.289,237.795z
		 M302.939,235.763c-0.165,0-0.33-0.065-0.456-0.196c-0.251-0.26-0.249-0.681,0.003-0.939c1.005-1.033,1.988-2.11,2.92-3.203
		c0.235-0.275,0.642-0.302,0.908-0.059c0.267,0.242,0.292,0.662,0.057,0.937c-0.951,1.114-1.953,2.213-2.979,3.266
		C303.267,235.699,303.103,235.763,302.939,235.763z M215.689,231.317c-0.094,0-0.191-0.021-0.281-0.067
		c-0.319-0.161-0.452-0.558-0.297-0.888c0.687-1.456,1.642-2.691,2.841-3.671c0.278-0.228,0.683-0.179,0.903,0.109
		c0.22,0.288,0.173,0.705-0.105,0.933c-1.046,0.854-1.881,1.935-2.482,3.21C216.156,231.179,215.927,231.317,215.689,231.317z
		 M234.021,229.84c-0.164,0-0.328-0.064-0.454-0.193c-0.955-0.98-2.07-1.81-3.315-2.466c-0.316-0.167-0.442-0.567-0.281-0.893
		c0.161-0.327,0.548-0.457,0.865-0.29c1.364,0.719,2.588,1.63,3.638,2.707c0.252,0.259,0.253,0.679,0.003,0.939
		C234.351,229.775,234.186,229.84,234.021,229.84z M308.623,229.1c-0.137,0-0.275-0.045-0.392-0.138
		c-0.282-0.224-0.335-0.641-0.118-0.931c0.865-1.163,1.699-2.366,2.477-3.576c0.196-0.305,0.596-0.389,0.891-0.186
		c0.296,0.203,0.377,0.615,0.18,0.921c-0.795,1.236-1.645,2.464-2.529,3.651C309.007,229.01,308.816,229.1,308.623,229.1z
		 M222.2,225.981c-0.294,0-0.559-0.209-0.627-0.517c-0.079-0.358,0.139-0.713,0.485-0.795c1.423-0.333,2.968-0.374,4.518-0.119
		c0.351,0.058,0.59,0.398,0.534,0.76c-0.056,0.362-0.386,0.608-0.736,0.552c-1.388-0.228-2.767-0.193-4.031,0.103
		C222.295,225.976,222.247,225.981,222.2,225.981z M313.378,221.702c-0.107,0-0.216-0.028-0.316-0.086
		c-0.309-0.181-0.418-0.586-0.243-0.905c0.7-1.277,1.359-2.589,1.959-3.899c0.152-0.331,0.536-0.473,0.856-0.317
		c0.321,0.157,0.458,0.553,0.307,0.884c-0.613,1.34-1.287,2.681-2.003,3.986C313.82,221.581,313.602,221.702,313.378,221.702z
		 M317.049,213.676c-0.076,0-0.154-0.014-0.229-0.044c-0.332-0.131-0.498-0.515-0.371-0.857c0.51-1.38,0.963-2.779,1.346-4.157
		c0.098-0.353,0.456-0.556,0.795-0.455c0.341,0.101,0.539,0.469,0.441,0.821c-0.393,1.415-0.857,2.85-1.381,4.265
		C317.552,213.513,317.308,213.676,317.049,213.676z M319.405,205.144c-0.039,0-0.079-0.004-0.119-0.011
		c-0.349-0.067-0.579-0.414-0.514-0.775c0.264-1.457,0.452-2.914,0.56-4.331c0.028-0.366,0.339-0.638,0.691-0.61
		c0.354,0.029,0.619,0.349,0.591,0.714c-0.112,1.464-0.306,2.968-0.578,4.47C319.979,204.921,319.709,205.144,319.405,205.144z
		 M320.058,196.305c-0.343,0-0.628-0.28-0.642-0.637c-0.059-1.471-0.211-2.926-0.452-4.324c-0.062-0.361,0.171-0.706,0.52-0.77
		c0.349-0.065,0.684,0.176,0.746,0.538c0.251,1.456,0.409,2.971,0.47,4.501c0.015,0.366-0.261,0.676-0.616,0.691
		C320.076,196.305,320.067,196.305,320.058,196.305z M318.539,187.592c-0.269,0-0.52-0.176-0.61-0.453
		c-0.233-0.719-0.497-1.435-0.784-2.128c-0.258-0.621-0.547-1.244-0.859-1.851c-0.167-0.324-0.048-0.726,0.266-0.898
		c0.314-0.172,0.703-0.049,0.87,0.275c0.33,0.64,0.635,1.297,0.906,1.953c0.301,0.726,0.577,1.475,0.821,2.228
		c0.113,0.348-0.069,0.724-0.406,0.841C318.676,187.581,318.607,187.592,318.539,187.592z M275.819,181.974
		c-0.066,0-0.133-0.01-0.199-0.033c-0.338-0.113-0.523-0.488-0.413-0.837c0.446-1.42,1.112-2.811,1.979-4.135
		c0.199-0.304,0.599-0.384,0.893-0.178c0.294,0.205,0.371,0.618,0.172,0.922c-0.799,1.22-1.412,2.499-1.821,3.8
		C276.342,181.795,276.09,181.974,275.819,181.974z M314.526,179.784c-0.193,0-0.384-0.089-0.511-0.26
		c-0.846-1.138-1.791-2.221-2.809-3.219c-0.258-0.253-0.268-0.673-0.024-0.939c0.245-0.266,0.652-0.277,0.909-0.024
		c1.067,1.046,2.057,2.18,2.944,3.373c0.216,0.291,0.163,0.708-0.118,0.931C314.801,179.739,314.663,179.784,314.526,179.784z
		 M280.53,174.656c-0.174,0-0.347-0.072-0.474-0.214c-0.241-0.27-0.223-0.69,0.038-0.938c1.076-1.022,2.272-1.939,3.554-2.727
		c0.305-0.187,0.7-0.084,0.882,0.231c0.181,0.315,0.081,0.723-0.224,0.91c-1.206,0.74-2.33,1.603-3.34,2.562
		C280.841,174.598,280.685,174.656,280.53,174.656z M308.313,173.692c-0.126,0-0.253-0.038-0.365-0.118
		c-1.159-0.826-2.38-1.555-3.63-2.168c-0.321-0.157-0.457-0.554-0.305-0.885c0.152-0.332,0.536-0.472,0.857-0.315
		c1.312,0.643,2.593,1.409,3.809,2.275c0.292,0.208,0.366,0.622,0.164,0.924C308.718,173.591,308.517,173.692,308.313,173.692z
		 M287.873,170.143c-0.267,0-0.516-0.173-0.608-0.448c-0.116-0.347,0.062-0.725,0.398-0.845c1.416-0.505,2.87-0.85,4.319-1.026
		c0.355-0.044,0.672,0.218,0.714,0.582c0.041,0.364-0.211,0.694-0.564,0.737c-1.358,0.164-2.72,0.488-4.049,0.962
		C288.013,170.131,287.942,170.143,287.873,170.143z M300.573,169.912c-0.057,0-0.116-0.008-0.174-0.025
		c-1.354-0.391-2.735-0.653-4.107-0.781c-0.354-0.033-0.615-0.356-0.583-0.721c0.032-0.365,0.352-0.635,0.698-0.602
		c1.449,0.135,2.908,0.412,4.338,0.824c0.342,0.099,0.542,0.465,0.446,0.818C301.112,169.72,300.854,169.912,300.573,169.912z"/>
	<path fill="#FFCC00" d="M275.446,188.58c-0.216,0-0.424-0.113-0.545-0.311c-0.355-0.584-0.77-1.141-1.232-1.654
		c-0.242-0.269-0.227-0.689,0.033-0.939c0.24-0.23,0.603-0.235,0.848-0.026c0.033-0.326,0.295-0.584,0.621-0.594
		c0.355-0.011,0.651,0.277,0.662,0.644c0.02,0.696,0.101,1.395,0.242,2.077c0.065,0.315-0.098,0.633-0.387,0.754
		C275.609,188.564,275.527,188.58,275.446,188.58z"/>
	<path fill="#FFCC00" d="M340.461,254.565c-0.001,0-0.001,0-0.002,0c-1.409-0.004-2.839-0.03-4.25-0.075
		c-0.355-0.011-0.634-0.318-0.623-0.685c0.011-0.367,0.307-0.655,0.663-0.643c1.399,0.045,2.816,0.07,4.214,0.074
		c0.355,0.001,0.642,0.299,0.641,0.666C341.103,254.269,340.815,254.565,340.461,254.565z M344.692,254.516
		c-0.348,0-0.634-0.286-0.643-0.647c-0.009-0.367,0.272-0.672,0.627-0.681c1.398-0.037,2.815-0.095,4.21-0.173
		c0.357-0.019,0.658,0.261,0.677,0.627c0.019,0.366-0.253,0.679-0.608,0.699c-1.408,0.079-2.837,0.137-4.247,0.174
		C344.703,254.516,344.698,254.516,344.692,254.516z M332.002,254.291c-0.013,0-0.026,0-0.039-0.001
		c-1.409-0.087-2.835-0.195-4.239-0.323c-0.354-0.032-0.616-0.354-0.584-0.72c0.031-0.365,0.344-0.635,0.697-0.603
		c1.392,0.126,2.806,0.234,4.203,0.32c0.354,0.022,0.625,0.336,0.604,0.703C332.623,254.019,332.34,254.291,332.002,254.291z
		 M353.143,254.044c-0.331,0-0.612-0.262-0.64-0.609c-0.03-0.366,0.234-0.686,0.588-0.717c1.394-0.119,2.805-0.262,4.194-0.423
		c0.353-0.041,0.671,0.221,0.711,0.586c0.04,0.365-0.214,0.693-0.567,0.734c-1.401,0.162-2.824,0.306-4.231,0.426
		C353.179,254.043,353.161,254.044,353.143,254.044z M323.572,253.526c-0.025,0-0.05-0.002-0.075-0.005
		c-1.4-0.168-2.818-0.36-4.214-0.569c-0.352-0.053-0.595-0.39-0.544-0.753c0.051-0.363,0.376-0.616,0.729-0.562
		c1.384,0.208,2.79,0.398,4.178,0.564c0.353,0.042,0.606,0.372,0.564,0.737C324.172,253.277,323.894,253.526,323.572,253.526z
		 M361.553,253.068c-0.315,0-0.59-0.239-0.636-0.571c-0.05-0.363,0.195-0.699,0.546-0.751c1.387-0.204,2.788-0.431,4.162-0.676
		c0.348-0.062,0.683,0.18,0.743,0.542s-0.174,0.705-0.524,0.767c-1.387,0.247-2.8,0.477-4.2,0.682
		C361.614,253.066,361.583,253.068,361.553,253.068z M315.197,252.269c-0.037,0-0.074-0.003-0.111-0.01
		c-1.393-0.251-2.798-0.525-4.176-0.816c-0.348-0.073-0.573-0.424-0.502-0.784c0.071-0.359,0.41-0.591,0.759-0.518
		c1.366,0.288,2.759,0.56,4.14,0.809c0.35,0.063,0.584,0.407,0.523,0.768C315.775,252.042,315.504,252.269,315.197,252.269z
		 M369.894,251.582c-0.299,0-0.568-0.217-0.63-0.532c-0.071-0.359,0.154-0.71,0.502-0.783c1.373-0.289,2.757-0.602,4.115-0.932
		c0.343-0.085,0.692,0.137,0.773,0.494c0.081,0.357-0.133,0.715-0.479,0.799c-1.371,0.333-2.768,0.65-4.153,0.941
		C369.98,251.578,369.937,251.582,369.894,251.582z M306.906,250.521c-0.049,0-0.098-0.006-0.147-0.018
		c-1.375-0.333-2.762-0.69-4.124-1.063c-0.343-0.094-0.548-0.458-0.457-0.812c0.091-0.355,0.445-0.566,0.786-0.472
		c1.35,0.37,2.725,0.724,4.088,1.054c0.346,0.084,0.56,0.441,0.479,0.798C307.462,250.315,307.197,250.521,306.906,250.521z
		 M378.132,249.578c-0.284,0-0.544-0.196-0.621-0.492c-0.092-0.354,0.111-0.719,0.455-0.814c1.354-0.375,2.717-0.777,4.051-1.193
		c0.34-0.106,0.699,0.093,0.802,0.444c0.103,0.351-0.09,0.722-0.43,0.828c-1.346,0.42-2.722,0.826-4.09,1.205
		C378.244,249.571,378.188,249.578,378.132,249.578z M298.726,248.281c-0.06,0-0.122-0.009-0.183-0.028
		c-1.355-0.415-2.72-0.857-4.056-1.312c-0.337-0.115-0.521-0.49-0.41-0.839c0.111-0.349,0.475-0.538,0.812-0.423
		c1.324,0.451,2.677,0.888,4.02,1.3c0.34,0.104,0.535,0.474,0.433,0.826C299.259,248.094,299.003,248.281,298.726,248.281z
		 M290.689,245.545c-0.073,0-0.147-0.013-0.22-0.04c-1.331-0.499-2.667-1.025-3.972-1.562c-0.33-0.136-0.491-0.522-0.359-0.863
		c0.132-0.341,0.505-0.507,0.836-0.371c1.293,0.532,2.617,1.053,3.936,1.548c0.334,0.125,0.506,0.506,0.385,0.851
		C291.199,245.377,290.952,245.545,290.689,245.545z M282.829,242.31c-0.086,0-0.173-0.018-0.256-0.055
		c-1.298-0.583-2.601-1.194-3.871-1.815c-0.321-0.157-0.458-0.553-0.306-0.884c0.152-0.331,0.536-0.473,0.857-0.316
		c1.258,0.615,2.548,1.22,3.834,1.797c0.326,0.146,0.475,0.538,0.333,0.874C283.314,242.161,283.077,242.31,282.829,242.31z
		 M275.181,238.571c-0.099,0-0.199-0.024-0.293-0.073c-1.259-0.668-2.521-1.364-3.751-2.069c-0.31-0.178-0.422-0.582-0.25-0.903
		c0.173-0.321,0.564-0.436,0.875-0.258c1.217,0.698,2.466,1.388,3.713,2.049c0.316,0.168,0.441,0.568,0.278,0.894
		C275.64,238.44,275.414,238.571,275.181,238.571z M267.785,234.327c-0.113,0-0.227-0.031-0.33-0.095
		c-0.494-0.306-0.986-0.616-1.475-0.929c-0.733-0.469-1.451-0.94-2.133-1.398c-0.298-0.2-0.382-0.612-0.188-0.919
		c0.194-0.307,0.592-0.394,0.89-0.194c0.674,0.453,1.383,0.918,2.109,1.382c0.484,0.31,0.971,0.616,1.46,0.919
		c0.305,0.189,0.403,0.597,0.22,0.911C268.216,234.212,268.003,234.327,267.785,234.327z M260.703,229.544
		c-0.13,0-0.262-0.041-0.375-0.125c-1.193-0.888-2.334-1.79-3.391-2.68c-0.275-0.232-0.316-0.65-0.092-0.934
		c0.224-0.284,0.63-0.327,0.905-0.095c1.037,0.874,2.157,1.76,3.329,2.632c0.288,0.214,0.353,0.63,0.146,0.927
		C261.1,229.449,260.903,229.544,260.703,229.544z M254.164,224.007c-0.159,0-0.318-0.06-0.443-0.182
		c-1.068-1.046-2.07-2.118-2.978-3.186c-0.234-0.276-0.208-0.695,0.059-0.937c0.267-0.242,0.673-0.215,0.908,0.061
		c0.882,1.038,1.857,2.081,2.896,3.098c0.258,0.252,0.269,0.673,0.024,0.939C254.505,223.937,254.335,224.007,254.164,224.007z
		 M248.614,217.433c-0.203,0-0.403-0.099-0.528-0.284c-0.839-1.241-1.593-2.521-2.239-3.805c-0.164-0.325-0.041-0.726,0.274-0.896
		c0.316-0.169,0.703-0.042,0.867,0.283c0.621,1.233,1.345,2.463,2.152,3.657c0.204,0.301,0.132,0.715-0.159,0.925
		C248.869,217.394,248.741,217.433,248.614,217.433z M244.776,209.68c-0.271,0-0.523-0.178-0.611-0.459
		c-0.448-1.422-0.781-2.889-0.989-4.359c-0.051-0.363,0.192-0.7,0.543-0.753c0.352-0.052,0.678,0.198,0.73,0.561
		c0.198,1.396,0.514,2.789,0.94,4.141c0.11,0.349-0.075,0.724-0.413,0.837C244.909,209.669,244.842,209.68,244.776,209.68z
		 M243.569,201.073c-0.007,0-0.014,0-0.021,0c-0.355-0.012-0.634-0.318-0.622-0.685c0.047-1.521,0.233-3.019,0.553-4.455
		c0.08-0.357,0.426-0.58,0.771-0.498c0.346,0.082,0.562,0.439,0.483,0.796c-0.301,1.352-0.476,2.765-0.521,4.2
		C244.2,200.789,243.915,201.073,243.569,201.073z M245.479,192.621c-0.092,0-0.185-0.02-0.274-0.064
		c-0.321-0.156-0.459-0.552-0.308-0.884c0.627-1.374,1.403-2.664,2.305-3.835c0.222-0.287,0.626-0.334,0.904-0.106
		c0.278,0.228,0.324,0.646,0.103,0.933c-0.84,1.09-1.563,2.293-2.148,3.574C245.952,192.48,245.72,192.621,245.479,192.621z
		 M250.714,185.858c-0.195,0-0.388-0.091-0.514-0.264c-0.214-0.293-0.157-0.709,0.126-0.93c1.133-0.882,2.415-1.633,3.811-2.234
		c0.328-0.141,0.704,0.019,0.841,0.357s-0.018,0.728-0.346,0.869c-1.296,0.558-2.484,1.254-3.531,2.069
		C250.985,185.814,250.849,185.858,250.714,185.858z M270.79,184.188c-0.103,0-0.207-0.026-0.304-0.079
		c-1.147-0.637-2.424-1.132-3.795-1.47c-0.345-0.085-0.559-0.443-0.476-0.8s0.43-0.577,0.775-0.492
		c1.48,0.365,2.861,0.9,4.107,1.592c0.313,0.174,0.43,0.577,0.262,0.9C271.241,184.061,271.019,184.188,270.79,184.188z
		 M258.436,182.473c-0.304,0-0.575-0.224-0.632-0.544c-0.064-0.361,0.167-0.707,0.516-0.773c1.427-0.271,2.888-0.395,4.34-0.367
		c0.355,0.007,0.638,0.309,0.631,0.676c-0.006,0.363-0.293,0.652-0.643,0.652c-0.004,0-0.008,0-0.012,0
		c-1.365-0.025-2.74,0.09-4.083,0.345C258.514,182.469,258.475,182.473,258.436,182.473z"/>
	<path fill="#FFCC00" d="M386.257,247.04c-0.268,0-0.519-0.175-0.609-0.452c-0.114-0.347,0.067-0.724,0.403-0.842
		c0.672-0.234,1.35-0.477,2.015-0.722c0.335-0.123,0.702,0.057,0.822,0.403c0.119,0.346-0.055,0.725-0.39,0.848
		c-0.672,0.247-1.357,0.492-2.035,0.729C386.395,247.029,386.325,247.04,386.257,247.04z"/>
</g>
<g>
	<polygon fill="#0D1321" points="393.847,245.19 393.847,245.19 399.151,231.386 400.571,232.074 	"/>
	<path fill="#0D1321" d="M401.777,221.95c-2.875,0-5.205,2.425-5.205,5.418c0,2.992,2.33,5.418,5.205,5.418s5.205-2.425,5.205-5.418
		C406.983,224.375,404.652,221.95,401.777,221.95z M401.777,231.781c-2.342,0-4.241-1.976-4.241-4.411
		c0-2.44,1.898-4.413,4.241-4.413s4.241,1.973,4.241,4.413C406.018,229.805,404.12,231.781,401.777,231.781z"/>
	<path fill="#0D1321" d="M405.336,227.37c0,2.043-1.594,3.702-3.559,3.702s-3.559-1.658-3.559-3.702
		c0-2.048,1.594-3.704,3.559-3.704S405.336,225.322,405.336,227.37z"/>
</g>
<g>
	<g opacity="0.1">
		<ellipse fill="#161616" cx="139.557" cy="233.57" rx="1.101" ry="1.139"/>
		<ellipse fill="#161616" cx="141.714" cy="235.801" rx="1.101" ry="1.139"/>
		<ellipse fill="#161616" cx="143.871" cy="238.033" rx="1.101" ry="1.139"/>
		<ellipse fill="#161616" cx="146.028" cy="240.265" rx="1.101" ry="1.139"/>
		<ellipse fill="#161616" cx="143.871" cy="242.496" rx="1.101" ry="1.139"/>
		<ellipse fill="#161616" cx="141.714" cy="244.728" rx="1.101" ry="1.139"/>
		<ellipse fill="#161616" cx="139.557" cy="246.959" rx="1.101" ry="1.139"/>
		<ellipse fill="#161616" cx="135.243" cy="233.57" rx="1.101" ry="1.139"/>
		<ellipse fill="#161616" cx="137.4" cy="235.801" rx="1.101" ry="1.139"/>
		<ellipse fill="#161616" cx="139.557" cy="238.033" rx="1.101" ry="1.139"/>
		<ellipse fill="#161616" cx="141.714" cy="240.265" rx="1.101" ry="1.139"/>
		<ellipse fill="#161616" cx="139.557" cy="242.496" rx="1.101" ry="1.139"/>
		<ellipse fill="#161616" cx="137.4" cy="244.728" rx="1.101" ry="1.139"/>
		<ellipse fill="#161616" cx="135.243" cy="246.959" rx="1.101" ry="1.139"/>
		<ellipse fill="#161616" cx="130.929" cy="233.57" rx="1.101" ry="1.139"/>
		<ellipse fill="#161616" cx="133.086" cy="235.801" rx="1.101" ry="1.139"/>
		<ellipse fill="#161616" cx="135.243" cy="238.033" rx="1.101" ry="1.139"/>
		<ellipse fill="#161616" cx="137.4" cy="240.265" rx="1.101" ry="1.139"/>
		<ellipse fill="#161616" cx="135.243" cy="242.496" rx="1.101" ry="1.139"/>
		<ellipse fill="#161616" cx="133.086" cy="244.728" rx="1.101" ry="1.139"/>
		<ellipse fill="#161616" cx="130.929" cy="246.959" rx="1.101" ry="1.139"/>
		<ellipse fill="#161616" cx="126.615" cy="233.57" rx="1.101" ry="1.139"/>
		<ellipse fill="#161616" cx="128.772" cy="235.801" rx="1.101" ry="1.139"/>
		<ellipse fill="#161616" cx="130.929" cy="238.033" rx="1.101" ry="1.139"/>
		<ellipse fill="#161616" cx="133.086" cy="240.265" rx="1.101" ry="1.139"/>
		<ellipse fill="#161616" cx="130.929" cy="242.496" rx="1.101" ry="1.139"/>
		<ellipse fill="#161616" cx="128.772" cy="244.728" rx="1.101" ry="1.139"/>
		<ellipse fill="#161616" cx="126.615" cy="246.959" rx="1.101" ry="1.139"/>
	</g>
	<g>
		<ellipse fill="#0D1321" cx="141.075" cy="232.478" rx="1.101" ry="1.139"/>
		<ellipse fill="#0D1321" cx="143.232" cy="234.709" rx="1.101" ry="1.139"/>
		<ellipse fill="#0D1321" cx="145.389" cy="236.941" rx="1.101" ry="1.139"/>
		<ellipse fill="#0D1321" cx="147.546" cy="239.172" rx="1.101" ry="1.139"/>
		<ellipse fill="#0D1321" cx="145.389" cy="241.404" rx="1.101" ry="1.139"/>
		<ellipse fill="#0D1321" cx="143.232" cy="243.635" rx="1.101" ry="1.139"/>
		<ellipse fill="#0D1321" cx="141.075" cy="245.867" rx="1.101" ry="1.139"/>
		<ellipse fill="#0D1321" cx="136.761" cy="232.478" rx="1.101" ry="1.139"/>
		<ellipse fill="#0D1321" cx="138.918" cy="234.709" rx="1.101" ry="1.139"/>
		<ellipse fill="#0D1321" cx="141.075" cy="236.941" rx="1.101" ry="1.139"/>
		<ellipse fill="#0D1321" cx="143.232" cy="239.172" rx="1.101" ry="1.139"/>
		<ellipse fill="#0D1321" cx="141.075" cy="241.404" rx="1.101" ry="1.139"/>
		<ellipse fill="#0D1321" cx="138.918" cy="243.635" rx="1.101" ry="1.139"/>
		<ellipse fill="#0D1321" cx="136.761" cy="245.867" rx="1.101" ry="1.139"/>
		<ellipse fill="#0D1321" cx="132.447" cy="232.478" rx="1.101" ry="1.139"/>
		<ellipse fill="#0D1321" cx="134.604" cy="234.709" rx="1.101" ry="1.139"/>
		<ellipse fill="#0D1321" cx="136.761" cy="236.941" rx="1.101" ry="1.139"/>
		<ellipse fill="#0D1321" cx="138.918" cy="239.172" rx="1.101" ry="1.139"/>
		<ellipse fill="#0D1321" cx="136.761" cy="241.404" rx="1.101" ry="1.139"/>
		<ellipse fill="#0D1321" cx="134.604" cy="243.635" rx="1.101" ry="1.139"/>
		<ellipse fill="#0D1321" cx="132.447" cy="245.867" rx="1.101" ry="1.139"/>
		<ellipse fill="#0D1321" cx="128.133" cy="232.478" rx="1.101" ry="1.139"/>
		<ellipse fill="#0D1321" cx="130.29" cy="234.709" rx="1.101" ry="1.139"/>
		<ellipse fill="#0D1321" cx="132.447" cy="236.941" rx="1.101" ry="1.139"/>
		<ellipse fill="#0D1321" cx="134.604" cy="239.172" rx="1.101" ry="1.139"/>
		<ellipse fill="#0D1321" cx="132.447" cy="241.404" rx="1.101" ry="1.139"/>
		<ellipse fill="#0D1321" cx="130.29" cy="243.635" rx="1.101" ry="1.139"/>
		<ellipse fill="#0D1321" cx="128.133" cy="245.867" rx="1.101" ry="1.139"/>
	</g>
</g>
</svg>
