<?xml version="1.0" encoding="utf-8"?>
<!-- Generator: Adobe Illustrator 26.0.1, SVG Export Plug-In . SVG Version: 6.00 Build 0)  -->
<svg version="1.1" id="Layer_1" xmlns="http://www.w3.org/2000/svg" xmlns:xlink="http://www.w3.org/1999/xlink" x="0px" y="0px"
	 viewBox="0 0 100 100" style="enable-background:new 0 0 100 100;" xml:space="preserve">
<style type="text/css">
	.st0{fill:#FFFFFF;}
</style>
<g>
	<path class="st0" d="M9.9,86.3h1.9l4,11h-2.1c0,0-0.5-0.8-0.8-2H8.7c-0.2,0.8-0.8,2-0.8,2H5.9L9.9,86.3z M10.8,89.2
		c-0.3,1-0.8,2.3-1.4,4.1h2.8C11.6,91.6,11.1,90.2,10.8,89.2z"/>
	<path class="st0" d="M17.1,98.4V86.3h3v10h4v2h-7V98.4z"/>
	<path class="st0" d="M26.1,98.4V86.3h2v10h5v2h-7V98.4z"/>
	<path class="st0" d="M41.1,86.3v12h-2v-12H41.1z"/>
	<path class="st0" d="M46.1,90.3v8h-2v-12h2.1c2.1,2.6,4,5.3,5.9,8.2v-8.2h2v12H52C51,96.9,49,94.2,46.1,90.3z"/>
	<path class="st0" d="M66.5,86c1.8,0,3.2,0.7,4.1,2.1c0.8,1.1,1.1,2.5,1.1,4c0,1.8-0.5,3.3-1.5,4.4c-0.9,1-2.2,1.5-3.8,1.5
		c-1.8,0-3.2-0.7-4.1-2c-0.8-1-1.1-2.3-1.1-3.9c0-1.8,0.5-3.3,1.5-4.5C63.7,86.6,64.9,86,66.5,86z M66.5,96.1c0.9,0,1.6-0.3,2-1
		c0.5-0.7,0.7-1.6,0.7-2.9s-0.3-2.4-0.8-3.1s-1.1-1-2-1s-1.6,0.4-2,1.1c-0.5,0.7-0.7,1.7-0.7,3C63.7,94.8,64.6,96.1,66.5,96.1z"/>
	<path class="st0" d="M76.1,90.3v8h-2v-12h2.1c2.1,2.6,4,5.3,5.9,8.2v-8.2h2v12H82C81,96.9,79,94.2,76.1,90.3z"/>
	<path class="st0" d="M87.1,86.3h7v2h-5v2h4v2h-4v3h5v3h-7V86.3z"/>
</g>
<g>
	<g>
		<path class="st0" d="M40,68.1l-4.4,8l-1,1.8h-26c-1.3,0-2.2-1.5-1.5-2.6l17-29.4c1.3-2.2,3.7-3.1,5.9-2.7c-0.4,0.6-0.8,1.3-1.2,2
			c0.4-0.6,0.8-1.3,1.2-1.9c1.4,0.3,2.8,1.1,3.7,2.5l6,9.8C42,59.4,42.1,64.2,40,68.1z"/>
	</g>
	<g>
		<path class="st0" d="M91.2,77.9H62.9c-0.4,0-0.9-0.1-1.3-0.2c0,0-0.1,0-0.1,0.1c-4.3-0.9-6.8-5.8-4.6-9.9L63,56.4
			c1.9-3.5,1.5-7.8-1-11l-3.8-4.8c-2.7-3.4-7.9-2.9-9.9,0.8c-1.7,3.1-6.1,3.2-8,0.2l-3.2-5.2c3.7-2.3,8-3.6,12.7-3.6
			c5.8,0,11.2,2.1,15.3,5.5c-4.2-3.5-9.5-5.6-15.4-5.6c-4.7,0-9,1.3-12.7,3.6l-2.6-4.2c-1.2-1.9-1.2-4.4-0.1-6.3L47.8,2.9
			c0.8-1.3,2.7-1.3,3.4,0l41.7,72.2C93.6,76.3,92.7,77.9,91.2,77.9z"/>
		<rect x="37" y="30.4" class="st0" width="27.4" height="6"/>
	</g>
</g>
</svg>
