<?xml version="1.0" encoding="utf-8"?>
<!-- Generator: Adobe Illustrator 17.0.0, SVG Export Plug-In . SVG Version: 6.00 Build 0)  -->
<!DOCTYPE svg PUBLIC "-//W3C//DTD SVG 1.1//EN" "http://www.w3.org/Graphics/SVG/1.1/DTD/svg11.dtd">
<svg version="1.1" id="Layer_1" xmlns="http://www.w3.org/2000/svg" xmlns:xlink="http://www.w3.org/1999/xlink" x="0px" y="0px"
	 width="820px" height="360px" viewBox="0 0 820 360" enable-background="new 0 0 820 360" xml:space="preserve">
<g opacity="0.05">
	<ellipse fill="#161616" cx="-856.599" cy="-120.911" rx="2.341" ry="2.328"/>
	<ellipse fill="#161616" cx="-852.013" cy="-116.352" rx="2.341" ry="2.328"/>
	<ellipse fill="#161616" cx="-847.427" cy="-111.792" rx="2.341" ry="2.327"/>
	<ellipse fill="#161616" cx="-842.841" cy="-107.232" rx="2.341" ry="2.328"/>
	<ellipse fill="#161616" cx="-847.427" cy="-102.672" rx="2.341" ry="2.328"/>
	<ellipse fill="#161616" cx="-852.013" cy="-98.113" rx="2.341" ry="2.327"/>
	<ellipse fill="#161616" cx="-856.599" cy="-93.553" rx="2.341" ry="2.327"/>
	<ellipse fill="#161616" cx="-865.771" cy="-120.911" rx="2.341" ry="2.328"/>
	<ellipse fill="#161616" cx="-861.185" cy="-116.352" rx="2.341" ry="2.328"/>
	<ellipse fill="#161616" cx="-856.599" cy="-111.792" rx="2.341" ry="2.327"/>
	<ellipse fill="#161616" cx="-852.013" cy="-107.232" rx="2.341" ry="2.328"/>
	<ellipse fill="#161616" cx="-856.599" cy="-102.672" rx="2.341" ry="2.328"/>
	<ellipse fill="#161616" cx="-861.185" cy="-98.113" rx="2.341" ry="2.327"/>
	<ellipse fill="#161616" cx="-865.771" cy="-93.553" rx="2.341" ry="2.327"/>
	<ellipse fill="#161616" cx="-874.943" cy="-120.911" rx="2.341" ry="2.328"/>
	<ellipse fill="#161616" cx="-870.357" cy="-116.352" rx="2.341" ry="2.328"/>
	<ellipse fill="#161616" cx="-865.771" cy="-111.792" rx="2.341" ry="2.327"/>
	<ellipse fill="#161616" cx="-861.185" cy="-107.232" rx="2.341" ry="2.328"/>
	<ellipse fill="#161616" cx="-865.771" cy="-102.672" rx="2.341" ry="2.328"/>
	<ellipse fill="#161616" cx="-870.357" cy="-98.113" rx="2.341" ry="2.327"/>
	<ellipse fill="#161616" cx="-874.943" cy="-93.553" rx="2.341" ry="2.327"/>
	<ellipse fill="#161616" cx="-884.115" cy="-120.911" rx="2.341" ry="2.328"/>
	<ellipse fill="#161616" cx="-879.529" cy="-116.352" rx="2.341" ry="2.328"/>
	<ellipse fill="#161616" cx="-874.943" cy="-111.792" rx="2.341" ry="2.327"/>
	<ellipse fill="#161616" cx="-870.357" cy="-107.232" rx="2.341" ry="2.328"/>
	<ellipse fill="#161616" cx="-874.943" cy="-102.672" rx="2.341" ry="2.328"/>
	<ellipse fill="#161616" cx="-879.529" cy="-98.113" rx="2.341" ry="2.327"/>
	<ellipse fill="#161616" cx="-884.115" cy="-93.553" rx="2.341" ry="2.327"/>
</g>
<g>
	<rect x="-479.473" y="-238" fill="#0D1321" width="170" height="170"/>
</g>
<g>
	<rect x="-275.483" y="-238" fill="#FFCC00" width="170" height="170"/>
</g>
<rect x="-675.514" y="-238" fill="#00CC66" width="170" height="170"/>
<rect x="-886.456" fill="#00CC66" width="820" height="360"/>
<rect x="-1120.843" y="691.563" opacity="0.8" fill="#00CC66" enable-background="new    " width="820" height="360"/>
<g>
	<g opacity="0.05">
		<ellipse fill="#161616" cx="-680.987" cy="61.379" rx="2.341" ry="2.328"/>
		<ellipse fill="#161616" cx="-676.401" cy="65.939" rx="2.341" ry="2.328"/>
		<ellipse fill="#161616" cx="-671.815" cy="70.499" rx="2.341" ry="2.327"/>
		<ellipse fill="#161616" cx="-667.229" cy="75.059" rx="2.341" ry="2.328"/>
		<ellipse fill="#161616" cx="-671.815" cy="79.618" rx="2.341" ry="2.328"/>
		<ellipse fill="#161616" cx="-676.401" cy="84.178" rx="2.341" ry="2.327"/>
		<ellipse fill="#161616" cx="-680.987" cy="88.738" rx="2.341" ry="2.327"/>
		<ellipse fill="#161616" cx="-690.159" cy="61.379" rx="2.341" ry="2.328"/>
		<ellipse fill="#161616" cx="-685.573" cy="65.939" rx="2.341" ry="2.328"/>
		<ellipse fill="#161616" cx="-680.987" cy="70.499" rx="2.341" ry="2.327"/>
		<ellipse fill="#161616" cx="-676.401" cy="75.059" rx="2.341" ry="2.328"/>
		<ellipse fill="#161616" cx="-680.987" cy="79.618" rx="2.341" ry="2.328"/>
		<ellipse fill="#161616" cx="-685.573" cy="84.178" rx="2.341" ry="2.327"/>
		<ellipse fill="#161616" cx="-690.159" cy="88.738" rx="2.341" ry="2.327"/>
		<ellipse fill="#161616" cx="-699.331" cy="61.379" rx="2.341" ry="2.328"/>
		<ellipse fill="#161616" cx="-694.745" cy="65.939" rx="2.341" ry="2.328"/>
		<ellipse fill="#161616" cx="-690.159" cy="70.499" rx="2.341" ry="2.327"/>
		<ellipse fill="#161616" cx="-685.573" cy="75.059" rx="2.341" ry="2.328"/>
		<ellipse fill="#161616" cx="-690.159" cy="79.618" rx="2.341" ry="2.328"/>
		<ellipse fill="#161616" cx="-694.745" cy="84.178" rx="2.341" ry="2.327"/>
		<ellipse fill="#161616" cx="-699.331" cy="88.738" rx="2.341" ry="2.327"/>
		<ellipse fill="#161616" cx="-708.503" cy="61.379" rx="2.341" ry="2.328"/>
		<ellipse fill="#161616" cx="-703.917" cy="65.939" rx="2.341" ry="2.328"/>
		<ellipse fill="#161616" cx="-699.331" cy="70.499" rx="2.341" ry="2.327"/>
		<ellipse fill="#161616" cx="-694.745" cy="75.059" rx="2.341" ry="2.328"/>
		<ellipse fill="#161616" cx="-699.331" cy="79.618" rx="2.341" ry="2.328"/>
		<ellipse fill="#161616" cx="-703.917" cy="84.178" rx="2.341" ry="2.327"/>
		<ellipse fill="#161616" cx="-708.503" cy="88.738" rx="2.341" ry="2.327"/>
	</g>
	<g>
		<ellipse fill="#FFCC00" cx="-677.712" cy="58.447" rx="2.341" ry="2.328"/>
		<ellipse fill="#FFCC00" cx="-673.126" cy="63.007" rx="2.341" ry="2.328"/>
		<ellipse fill="#FFCC00" cx="-668.54" cy="67.566" rx="2.341" ry="2.327"/>
		<ellipse fill="#FFCC00" cx="-663.954" cy="72.126" rx="2.341" ry="2.328"/>
		<ellipse fill="#FFCC00" cx="-668.54" cy="76.686" rx="2.341" ry="2.328"/>
		<ellipse fill="#FFCC00" cx="-673.126" cy="81.246" rx="2.341" ry="2.327"/>
		<ellipse fill="#FFCC00" cx="-677.712" cy="85.805" rx="2.341" ry="2.327"/>
		<ellipse fill="#FFCC00" cx="-686.884" cy="58.447" rx="2.341" ry="2.328"/>
		<ellipse fill="#FFCC00" cx="-682.298" cy="63.007" rx="2.341" ry="2.328"/>
		<ellipse fill="#FFCC00" cx="-677.712" cy="67.566" rx="2.341" ry="2.327"/>
		<ellipse fill="#FFCC00" cx="-673.126" cy="72.126" rx="2.341" ry="2.328"/>
		<ellipse fill="#FFCC00" cx="-677.712" cy="76.686" rx="2.341" ry="2.328"/>
		<ellipse fill="#FFCC00" cx="-682.298" cy="81.246" rx="2.341" ry="2.327"/>
		<ellipse fill="#FFCC00" cx="-686.884" cy="85.805" rx="2.341" ry="2.327"/>
		<ellipse fill="#FFCC00" cx="-696.056" cy="58.447" rx="2.341" ry="2.328"/>
		<ellipse fill="#FFCC00" cx="-691.47" cy="63.007" rx="2.341" ry="2.328"/>
		<ellipse fill="#FFCC00" cx="-686.884" cy="67.566" rx="2.341" ry="2.327"/>
		<ellipse fill="#FFCC00" cx="-682.298" cy="72.126" rx="2.341" ry="2.328"/>
		<ellipse fill="#FFCC00" cx="-686.884" cy="76.686" rx="2.341" ry="2.328"/>
		<ellipse fill="#FFCC00" cx="-691.47" cy="81.246" rx="2.341" ry="2.327"/>
		<ellipse fill="#FFCC00" cx="-696.056" cy="85.805" rx="2.341" ry="2.327"/>
		<ellipse fill="#FFCC00" cx="-705.228" cy="58.447" rx="2.341" ry="2.328"/>
		<ellipse fill="#FFCC00" cx="-700.642" cy="63.007" rx="2.341" ry="2.328"/>
		<ellipse fill="#FFCC00" cx="-696.056" cy="67.566" rx="2.341" ry="2.327"/>
		<ellipse fill="#FFCC00" cx="-691.47" cy="72.126" rx="2.341" ry="2.328"/>
		<ellipse fill="#FFCC00" cx="-696.056" cy="76.686" rx="2.341" ry="2.328"/>
		<ellipse fill="#FFCC00" cx="-700.642" cy="81.246" rx="2.341" ry="2.327"/>
		<ellipse fill="#FFCC00" cx="-705.228" cy="85.805" rx="2.341" ry="2.327"/>
	</g>
</g>
<g>
	<g opacity="0.05">
		
			<ellipse transform="matrix(0.8303 -0.5574 0.5574 0.8303 -422.4268 -263.2414)" fill="#161616" cx="-643.419" cy="561.945" rx="2.341" ry="2.328"/>
		
			<ellipse transform="matrix(0.8303 -0.5574 0.5574 0.8303 -422.0343 -259.4937)" fill="#161616" cx="-637.07" cy="563.175" rx="2.341" ry="2.328"/>
		
			<ellipse transform="matrix(0.8303 -0.5574 0.5574 0.8303 -421.6422 -255.7455)" fill="#161616" cx="-630.72" cy="564.405" rx="2.341" ry="2.327"/>
		
			<ellipse transform="matrix(-0.8303 0.5574 -0.5574 -0.8303 -827.3411 1383.311)" fill="#161616" cx="-624.302" cy="565.679" rx="2.341" ry="2.328"/>
		
			<ellipse transform="matrix(-0.8303 0.5574 -0.5574 -0.8303 -826.1224 1395.623)" fill="#161616" cx="-625.568" cy="572.021" rx="2.341" ry="2.328"/>
		
			<ellipse transform="matrix(-0.8303 0.5574 -0.5574 -0.8303 -824.904 1407.9362)" fill="#161616" cx="-626.833" cy="578.363" rx="2.341" ry="2.327"/>
		
			<ellipse transform="matrix(-0.8303 0.5574 -0.5574 -0.8303 -823.6845 1420.2495)" fill="#161616" cx="-628.098" cy="584.705" rx="2.341" ry="2.327"/>
		
			<ellipse transform="matrix(0.8303 -0.5574 0.5574 0.8303 -426.5685 -266.6182)" fill="#161616" cx="-651.034" cy="567.057" rx="2.341" ry="2.328"/>
		
			<ellipse transform="matrix(0.8303 -0.5574 0.5574 0.8303 -426.1761 -262.8705)" fill="#161616" cx="-644.685" cy="568.286" rx="2.341" ry="2.328"/>
		
			<ellipse transform="matrix(0.8303 -0.5574 0.5574 0.8303 -425.7841 -259.123)" fill="#161616" cx="-638.336" cy="569.517" rx="2.341" ry="2.327"/>
		
			<ellipse transform="matrix(0.8303 -0.5574 0.5574 0.8303 -425.3925 -255.3752)" fill="#161616" cx="-631.987" cy="570.748" rx="2.341" ry="2.328"/>
		
			<ellipse transform="matrix(0.8303 -0.5574 0.5574 0.8303 -429.1415 -255.0047)" fill="#161616" cx="-633.253" cy="577.088" rx="2.341" ry="2.328"/>
		
			<ellipse transform="matrix(-0.8303 0.5574 -0.5574 -0.8303 -835.9916 1421.5382)" fill="#161616" cx="-634.448" cy="583.476" rx="2.341" ry="2.327"/>
		
			<ellipse transform="matrix(-0.8303 0.5574 -0.5574 -0.8303 -834.7721 1433.8517)" fill="#161616" cx="-635.713" cy="589.818" rx="2.341" ry="2.327"/>
		
			<ellipse transform="matrix(0.8303 -0.5574 0.5574 0.8303 -430.7103 -269.995)" fill="#161616" cx="-658.649" cy="572.169" rx="2.341" ry="2.328"/>
		
			<ellipse transform="matrix(0.8303 -0.5574 0.5574 0.8303 -430.3183 -266.2476)" fill="#161616" cx="-652.301" cy="573.399" rx="2.341" ry="2.328"/>
		
			<ellipse transform="matrix(0.8303 -0.5574 0.5574 0.8303 -429.9259 -262.4998)" fill="#161616" cx="-645.951" cy="574.629" rx="2.341" ry="2.327"/>
		
			<ellipse transform="matrix(0.8303 -0.5574 0.5574 0.8303 -429.5342 -258.752)" fill="#161616" cx="-639.602" cy="575.859" rx="2.341" ry="2.328"/>
		
			<ellipse transform="matrix(0.8303 -0.5574 0.5574 0.8303 -433.2837 -258.3818)" fill="#161616" cx="-640.869" cy="582.201" rx="2.341" ry="2.328"/>
		
			<ellipse transform="matrix(-0.8303 0.5574 -0.5574 -0.8303 -847.0781 1435.1389)" fill="#161616" cx="-642.062" cy="588.588" rx="2.341" ry="2.327"/>
		
			<ellipse transform="matrix(-0.8303 0.5574 -0.5574 -0.8303 -845.8597 1447.4537)" fill="#161616" cx="-643.328" cy="594.931" rx="2.341" ry="2.327"/>
		
			<ellipse transform="matrix(0.8303 -0.5574 0.5574 0.8303 -434.8521 -273.3717)" fill="#161616" cx="-666.264" cy="577.281" rx="2.341" ry="2.328"/>
		
			<ellipse transform="matrix(0.8303 -0.5574 0.5574 0.8303 -434.4601 -269.6244)" fill="#161616" cx="-659.916" cy="578.511" rx="2.341" ry="2.328"/>
		
			<ellipse transform="matrix(0.8303 -0.5574 0.5574 0.8303 -434.0682 -265.877)" fill="#161616" cx="-653.567" cy="579.741" rx="2.341" ry="2.327"/>
		
			<ellipse transform="matrix(0.8303 -0.5574 0.5574 0.8303 -433.676 -262.1287)" fill="#161616" cx="-647.217" cy="580.971" rx="2.341" ry="2.328"/>
		
			<ellipse transform="matrix(0.8303 -0.5574 0.5574 0.8303 -437.4255 -261.7586)" fill="#161616" cx="-648.484" cy="587.313" rx="2.341" ry="2.328"/>
		
			<ellipse transform="matrix(-0.8303 0.5574 -0.5574 -0.8303 -858.1655 1448.7408)" fill="#161616" cx="-649.677" cy="593.701" rx="2.341" ry="2.327"/>
		
			<ellipse transform="matrix(-0.8303 0.5574 -0.5574 -0.8303 -856.9459 1461.0542)" fill="#161616" cx="-650.942" cy="600.043" rx="2.341" ry="2.327"/>
	</g>
	<g>
		
			<ellipse transform="matrix(0.8303 -0.5574 0.5574 0.8303 -419.8679 -263.3594)" fill="#FFCC00" cx="-642.333" cy="557.685" rx="2.341" ry="2.328"/>
		
			<ellipse transform="matrix(0.8303 -0.5574 0.5574 0.8303 -419.4759 -259.6121)" fill="#FFCC00" cx="-635.985" cy="558.915" rx="2.341" ry="2.328"/>
		
			<ellipse transform="matrix(0.8303 -0.5574 0.5574 0.8303 -419.0833 -255.8643)" fill="#FFCC00" cx="-629.635" cy="560.144" rx="2.341" ry="2.327"/>
		
			<ellipse transform="matrix(-0.8303 0.5574 -0.5574 -0.8303 -827.7297 1374.9098)" fill="#FFCC00" cx="-623.217" cy="561.42" rx="2.341" ry="2.328"/>
		
			<ellipse transform="matrix(-0.8303 0.5574 -0.5574 -0.8303 -826.5111 1387.2217)" fill="#FFCC00" cx="-624.483" cy="567.761" rx="2.341" ry="2.328"/>
		
			<ellipse transform="matrix(-0.8303 0.5574 -0.5574 -0.8303 -825.2928 1399.5349)" fill="#FFCC00" cx="-625.748" cy="574.103" rx="2.341" ry="2.327"/>
		
			<ellipse transform="matrix(-0.8303 0.5574 -0.5574 -0.8303 -824.075 1411.847)" fill="#FFCC00" cx="-627.014" cy="580.445" rx="2.341" ry="2.327"/>
		
			<ellipse transform="matrix(0.8303 -0.5574 0.5574 0.8303 -424.0101 -266.7365)" fill="#FFCC00" cx="-649.949" cy="562.797" rx="2.341" ry="2.328"/>
		
			<ellipse transform="matrix(0.8303 -0.5574 0.5574 0.8303 -423.6177 -262.9888)" fill="#FFCC00" cx="-643.6" cy="564.027" rx="2.341" ry="2.328"/>
		
			<ellipse transform="matrix(0.8303 -0.5574 0.5574 0.8303 -423.2258 -259.2414)" fill="#FFCC00" cx="-637.251" cy="565.257" rx="2.341" ry="2.327"/>
		
			<ellipse transform="matrix(0.8303 -0.5574 0.5574 0.8303 -422.8332 -255.4936)" fill="#FFCC00" cx="-630.902" cy="566.486" rx="2.341" ry="2.328"/>
		
			<ellipse transform="matrix(0.8303 -0.5574 0.5574 0.8303 -426.583 -255.1231)" fill="#FFCC00" cx="-632.168" cy="572.828" rx="2.341" ry="2.328"/>
		
			<ellipse transform="matrix(-0.8303 0.5574 -0.5574 -0.8303 -836.3805 1413.137)" fill="#FFCC00" cx="-633.363" cy="579.216" rx="2.341" ry="2.327"/>
		
			<ellipse transform="matrix(-0.8303 0.5574 -0.5574 -0.8303 -835.1625 1425.4492)" fill="#FFCC00" cx="-634.629" cy="585.558" rx="2.341" ry="2.327"/>
		
			<ellipse transform="matrix(0.8303 -0.5574 0.5574 0.8303 -428.1519 -270.1133)" fill="#FFCC00" cx="-657.564" cy="567.909" rx="2.341" ry="2.328"/>
		
			<ellipse transform="matrix(0.8303 -0.5574 0.5574 0.8303 -427.7595 -266.3656)" fill="#FFCC00" cx="-651.215" cy="569.139" rx="2.341" ry="2.328"/>
		
			<ellipse transform="matrix(0.8303 -0.5574 0.5574 0.8303 -427.3675 -262.6182)" fill="#FFCC00" cx="-644.866" cy="570.369" rx="2.341" ry="2.327"/>
		
			<ellipse transform="matrix(0.8303 -0.5574 0.5574 0.8303 -426.9754 -258.8708)" fill="#FFCC00" cx="-638.517" cy="571.599" rx="2.341" ry="2.328"/>
		
			<ellipse transform="matrix(0.8303 -0.5574 0.5574 0.8303 -430.7249 -258.4998)" fill="#FFCC00" cx="-639.783" cy="577.94" rx="2.341" ry="2.328"/>
		
			<ellipse transform="matrix(-0.8303 0.5574 -0.5574 -0.8303 -847.468 1426.739)" fill="#FFCC00" cx="-640.978" cy="584.329" rx="2.341" ry="2.327"/>
		
			<ellipse transform="matrix(-0.8303 0.5574 -0.5574 -0.8303 -846.2501 1439.0513)" fill="#FFCC00" cx="-642.244" cy="590.67" rx="2.341" ry="2.327"/>
		
			<ellipse transform="matrix(0.8303 -0.5574 0.5574 0.8303 -432.2937 -273.4901)" fill="#FFCC00" cx="-665.18" cy="573.021" rx="2.341" ry="2.328"/>
		
			<ellipse transform="matrix(0.8303 -0.5574 0.5574 0.8303 -431.9017 -269.7428)" fill="#FFCC00" cx="-658.831" cy="574.251" rx="2.341" ry="2.328"/>
		
			<ellipse transform="matrix(0.8303 -0.5574 0.5574 0.8303 -431.5093 -265.995)" fill="#FFCC00" cx="-652.481" cy="575.481" rx="2.341" ry="2.327"/>
		
			<ellipse transform="matrix(0.8303 -0.5574 0.5574 0.8303 -431.1172 -262.2475)" fill="#FFCC00" cx="-646.133" cy="576.711" rx="2.341" ry="2.328"/>
		
			<ellipse transform="matrix(0.8303 -0.5574 0.5574 0.8303 -434.8671 -261.8769)" fill="#FFCC00" cx="-647.399" cy="583.053" rx="2.341" ry="2.328"/>
		
			<ellipse transform="matrix(-0.8303 0.5574 -0.5574 -0.8303 -858.5543 1440.3395)" fill="#FFCC00" cx="-648.592" cy="589.441" rx="2.341" ry="2.327"/>
		
			<ellipse transform="matrix(-0.8303 0.5574 -0.5574 -0.8303 -857.3363 1452.6519)" fill="#FFCC00" cx="-649.858" cy="595.783" rx="2.341" ry="2.327"/>
	</g>
</g>
<g>
	<g>
		<g>
			<path fill="#0D1321" d="M-752.654,66.561c0,3.647-1.911,6.039-6.326,6.039c-3.633,0-4.441-2.013-4.441-2.013
				s-0.808,2.013-4.441,2.013c-4.414,0-6.326-2.392-6.326-6.039v-7.6c0-3.789-0.269-4.736-0.269-4.736h4.037v14.231
				c0,1.349,0.754,2.249,2.557,2.249s2.557-0.899,2.557-2.249v-9.495c0-3.789-0.808-4.736-0.808-4.736h4.037
				c0,0,0.538,0.473,0.538,4.736v9.495c0,1.349,0.754,2.249,2.557,2.249c1.804,0,2.557-0.899,2.557-2.249v-9.495
				c0-3.789-0.808-4.736-0.808-4.736h4.037c0,0,0.538,0.473,0.538,4.736v7.6H-752.654z"/>
			<path fill="#0D1321" d="M-748.541,75.204c0,0-0.484-1.161-0.323-3.078l1.104-13.544c-0.942-0.473-1.615-1.278-1.615-2.439
				c0-1.823,1.696-2.865,3.499-2.865c1.803,0,3.526,1.041,3.526,2.865c0,1.161-0.7,1.989-1.642,2.439l-1.131,12.597
				c-0.242,2.723,0.619,4.025,0.619,4.025H-748.541z M-745.876,58.037c0.7,0,1.103-0.568,1.103-1.894s-0.404-1.918-1.103-1.918
				s-1.076,0.592-1.076,1.918S-746.576,58.037-745.876,58.037z"/>
			<path fill="#0D1321" d="M-736.726,54.225v4.759c4.925,0,7.698,2.842,7.698,8.619v0.971c0,2.605,0.538,3.552,0.538,3.552h-4.037
				c0,0-0.269-0.474-0.269-3.552v-4.049c0-3.86-2.557-3.883-3.93-3.883v6.748c0,3.789,0.296,4.736,0.296,4.736h-4.037V54.225
				H-736.726z"/>
			<path fill="#0D1321" d="M-719.636,72.126c-4.442,0-7.241-1.018-7.241-4.214c0-3.197,2.799-4.215,7.241-4.215h1.077
				c0-4.025-1.615-4.735-1.615-4.735h4.307c0,0,1.077,0.947,1.077,4.735v8.43L-719.636,72.126L-719.636,72.126z M-718.56,70.468
				v-5.115h-1.077c-2.207,0-2.934,0.876-2.934,2.558c0,1.68,0.727,2.557,2.934,2.557H-718.56z"/>
		</g>
		<g>
			<path fill="#0D1321" d="M-762.807,88.605h2.423v2.865h-2.745c-1.669,0-2.96-0.489-3.876-1.468
				c-0.771,0.521-1.714,0.781-2.825,0.781c-1.651,0-2.969-0.545-3.956-1.634c-0.807-0.899-1.211-1.98-1.211-3.243
				c0-1.563,0.574-2.833,1.723-3.812c0.969-0.821,2.09-1.231,3.364-1.231c0.663,0,1.273,0.111,1.83,0.332V80.58l3.364-1.562v7.883
				c0,0.616,0.149,1.054,0.444,1.314C-763.977,88.476-763.488,88.605-762.807,88.605z M-771.499,78.095
				c-0.538,0-0.969-0.142-1.292-0.426c-0.323-0.284-0.484-0.67-0.484-1.16c0-1.026,0.592-1.539,1.776-1.539
				c0.538,0,0.964,0.138,1.278,0.414s0.471,0.651,0.471,1.124C-769.75,77.566-770.333,78.095-771.499,78.095z M-768.081,84.179
				c-0.467-0.347-0.996-0.522-1.588-0.522c-0.593,0-1.072,0.214-1.44,0.64c-0.368,0.425-0.551,0.986-0.551,1.68
				c0,0.695,0.179,1.247,0.538,1.658c0.359,0.411,0.851,0.615,1.48,0.615c0.682,0,1.211-0.205,1.588-0.615
				c-0.018-0.126-0.027-0.324-0.027-0.592V84.179z M-767.355,78.095c-0.538,0-0.969-0.142-1.292-0.426
				c-0.323-0.284-0.484-0.67-0.484-1.16c0-1.026,0.592-1.539,1.776-1.539c0.538,0,0.964,0.138,1.279,0.414
				c0.314,0.276,0.471,0.651,0.471,1.124C-765.605,77.566-766.189,78.095-767.355,78.095z"/>
			<path fill="#0D1321" d="M-743.619,88.605h2.423v2.865h-2.745c-1.328,0-2.422-0.315-3.283-0.947
				c-0.861,0.632-1.974,0.947-3.337,0.947h-3.391c-0.61,0-1.184-0.079-1.722-0.237c-0.557,0.158-1.131,0.237-1.723,0.237H-762
				v-2.865h2.745c-0.305-0.583-0.458-1.222-0.458-1.917c0-0.978,0.296-1.8,0.888-2.462c0.449-1.326,1.251-2.367,2.409-3.124
				c1.157-0.758,2.498-1.137,4.023-1.137c2.046,0,3.722,0.592,5.032,1.776c1.22,1.105,1.83,2.533,1.83,4.285v0.876
				c0,0.616,0.149,1.054,0.444,1.314C-744.789,88.476-744.3,88.605-743.619,88.605z M-755.675,88.393
				c1.148-0.332,1.722-0.986,1.722-1.965c0-0.49-0.157-0.88-0.471-1.172c-0.315-0.292-0.731-0.438-1.251-0.438
				c-0.521,0-0.938,0.146-1.252,0.438s-0.471,0.683-0.471,1.172C-757.398,87.406-756.823,88.061-755.675,88.393z M-750.616,88.605
				c0.664,0,1.117-0.122,1.359-0.366c0.242-0.245,0.363-0.699,0.363-1.362v-0.852c0-0.995-0.327-1.791-0.982-2.391
				c-0.655-0.6-1.521-0.9-2.597-0.9c-0.736,0-1.372,0.142-1.911,0.426c0.843,0.221,1.511,0.647,2.005,1.279
				c0.493,0.631,0.739,1.381,0.739,2.249c0,0.695-0.152,1.334-0.457,1.917C-752.097,88.605-750.616,88.605-750.616,88.605z"/>
			<path fill="#0D1321" d="M-742.811,91.47v-2.865h4.009c3.157,0,5.669-0.828,7.536-2.485c-1.221-1.878-2.701-2.817-4.441-2.817
				c-1.436,0-3.005,0.687-4.709,2.06v-2.628c1.507-1.451,3.211-2.177,5.113-2.177c1.4,0,2.763,0.449,4.09,1.349
				c1.328,0.899,2.503,2.177,3.526,3.835v1.184c-1.292,1.452-2.902,2.572-4.83,3.362c-1.929,0.789-4.033,1.184-6.311,1.184h-3.983
				V91.47z M-734.468,96.75c-0.538,0-0.97-0.142-1.292-0.426c-0.323-0.284-0.484-0.671-0.484-1.161c0-0.457,0.161-0.828,0.484-1.112
				s0.754-0.426,1.292-0.426c0.538,0,0.964,0.138,1.278,0.414s0.471,0.651,0.471,1.124C-732.72,96.221-733.302,96.75-734.468,96.75z
				"/>
			<path fill="#0D1321" d="M-717.838,90.784c-0.556,0.094-1.13,0.142-1.722,0.142c-1.651,0-2.97-0.545-3.956-1.634
				c-0.807-0.915-1.211-2.02-1.211-3.314c0-1.736,0.538-3.101,1.614-4.095c0.95-0.884,2.207-1.326,3.767-1.326
				c1.597,0,2.844,0.449,3.741,1.349c0.771,0.773,1.158,1.783,1.158,3.03v5.066c0,1.862-0.557,3.33-1.669,4.403
				c-1.041,1.01-2.458,1.515-4.253,1.515c-1.13,0-2.234-0.269-3.31-0.805v-2.581c0.969,0.489,1.937,0.734,2.906,0.734
				C-719.031,93.27-718.053,92.441-717.838,90.784z M-717.81,84.889c0-1.041-0.512-1.562-1.535-1.562
				c-0.646,0-1.153,0.229-1.52,0.687c-0.368,0.457-0.552,1.081-0.552,1.87c0,1.673,0.682,2.509,2.046,2.509
				c0.717,0,1.237-0.158,1.561-0.473V84.889z"/>
		</g>
	</g>
</g>
<text transform="matrix(1 0 0 1 208.7545 180)" fill="#0D1321" font-family="'ArefRuqaa-Bold'" font-size="53">قققببببل ما تتتتخخخختتتتار طرييييققققك</text>
<text transform="matrix(1 0 0 1 -209.2004 180)" fill="#0D1321" font-family="'ArefRuqaa-Bold'" font-size="53"> </text>
<rect x="-2007.334" y="54.576" fill="#FFFFFF" stroke="#000000" stroke-miterlimit="10" width="90" height="360"/>
<rect x="-886.456" y="-452.512" fill="#FFFFFF" stroke="#000000" stroke-miterlimit="10" width="820" height="24"/>
<g>
	<path fill="#FFCC00" stroke="#000000" stroke-width="2" stroke-miterlimit="10" d="M-727.312,241.757
		c-0.124,0-0.248-0.037-0.358-0.113c-0.595-0.413-1.193-0.841-1.776-1.27c-0.289-0.213-0.357-0.627-0.151-0.926
		s0.608-0.369,0.897-0.156c0.574,0.422,1.162,0.843,1.748,1.249c0.295,0.205,0.373,0.617,0.175,0.922
		C-726.901,241.654-727.105,241.757-727.312,241.757z"/>
	<path fill="#FFCC00" stroke="#000000" stroke-width="2" stroke-miterlimit="10" d="M-678.622,257.056c-0.001,0-0.002,0-0.003,0
		c-0.435-0.002-0.87-0.009-1.304-0.018c-1.003-0.022-2.022-0.063-3.027-0.121c-0.355-0.02-0.626-0.334-0.606-0.7
		c0.02-0.366,0.33-0.645,0.678-0.626c0.991,0.057,1.995,0.097,2.984,0.119c0.427,0.009,0.854,0.016,1.283,0.018
		c0.355,0.002,0.642,0.301,0.64,0.668C-677.981,256.761-678.269,257.056-678.622,257.056z M-674.323,256.941
		c-0.338,0-0.621-0.272-0.641-0.624c-0.021-0.366,0.249-0.681,0.603-0.703c1.467-0.091,2.889-0.239,4.225-0.44
		c0.352-0.054,0.678,0.199,0.729,0.562s-0.192,0.7-0.544,0.753c-1.372,0.206-2.83,0.358-4.333,0.452
		C-674.297,256.94-674.31,256.941-674.323,256.941z M-634.149,256.581L-634.149,256.581c-1.443-0.003-2.902-0.048-4.336-0.135
		c-0.355-0.021-0.625-0.336-0.605-0.702c0.021-0.366,0.331-0.648,0.68-0.624c1.41,0.085,2.844,0.13,4.263,0.132
		c0.355,0.001,0.643,0.299,0.642,0.665C-633.507,256.285-633.795,256.581-634.149,256.581z M-687.208,256.564
		c-0.022,0-0.045-0.001-0.067-0.004c-1.428-0.153-2.874-0.345-4.296-0.569c-0.351-0.055-0.593-0.394-0.539-0.757
		c0.054-0.362,0.382-0.611,0.733-0.556c1.403,0.221,2.828,0.409,4.236,0.561c0.353,0.038,0.61,0.365,0.573,0.729
		C-686.603,256.31-686.883,256.564-687.208,256.564z M-629.85,256.465c-0.339,0-0.623-0.274-0.642-0.628
		c-0.019-0.366,0.253-0.679,0.608-0.699c1.413-0.079,2.844-0.201,4.251-0.361c0.353-0.04,0.671,0.222,0.71,0.587
		s-0.215,0.693-0.568,0.733c-1.431,0.163-2.885,0.287-4.323,0.368C-629.827,256.465-629.839,256.465-629.85,256.465z
		 M-642.732,256.063c-0.025,0-0.05-0.002-0.075-0.005c-1.434-0.172-2.879-0.389-4.293-0.645c-0.35-0.063-0.584-0.408-0.522-0.769
		s0.396-0.602,0.745-0.539c1.39,0.252,2.809,0.465,4.219,0.634c0.353,0.042,0.606,0.372,0.565,0.736
		C-642.132,255.813-642.41,256.063-642.732,256.063z M-665.826,255.629c-0.286,0-0.548-0.199-0.622-0.499
		c-0.089-0.355,0.118-0.717,0.462-0.809c1.405-0.374,2.751-0.831,4.001-1.357c0.328-0.139,0.704,0.024,0.839,0.364
		c0.134,0.34-0.024,0.727-0.352,0.866c-1.304,0.549-2.705,1.025-4.166,1.414C-665.719,255.622-665.773,255.629-665.826,255.629z
		 M-621.304,255.488c-0.308,0-0.581-0.23-0.634-0.554c-0.059-0.362,0.177-0.704,0.528-0.765c1.4-0.243,2.807-0.53,4.183-0.854
		c0.347-0.081,0.691,0.143,0.77,0.5c0.079,0.358-0.138,0.714-0.484,0.795c-1.4,0.329-2.832,0.621-4.256,0.868
		C-621.233,255.485-621.269,255.488-621.304,255.488z M-695.709,255.227c-0.042,0-0.085-0.004-0.128-0.013
		c-1.41-0.293-2.832-0.625-4.225-0.986c-0.345-0.089-0.554-0.45-0.467-0.806c0.086-0.356,0.435-0.572,0.781-0.482
		c1.373,0.356,2.775,0.683,4.165,0.972c0.348,0.072,0.574,0.423,0.504,0.782C-695.141,255.009-695.409,255.227-695.709,255.227z
		 M-651.201,254.526c-0.049,0-0.099-0.006-0.149-0.018c-0.584-0.143-1.175-0.296-1.755-0.455c-0.838-0.229-1.658-0.473-2.438-0.724
		c-0.339-0.109-0.528-0.482-0.422-0.832s0.466-0.545,0.806-0.436c0.762,0.246,1.564,0.484,2.383,0.708
		c0.57,0.156,1.149,0.306,1.723,0.447c0.346,0.085,0.559,0.443,0.477,0.8C-650.646,254.32-650.91,254.526-651.201,254.526z
		 M-612.919,253.518c-0.279,0-0.536-0.189-0.618-0.48c-0.099-0.352,0.098-0.721,0.439-0.823c1.365-0.408,2.73-0.862,4.058-1.349
		c0.335-0.123,0.702,0.058,0.821,0.404c0.119,0.346-0.056,0.725-0.391,0.848c-1.352,0.496-2.741,0.958-4.131,1.373
		C-612.8,253.509-612.86,253.518-612.919,253.518z M-704.05,253.065c-0.062,0-0.124-0.009-0.186-0.029
		c-1.378-0.43-2.762-0.899-4.115-1.395c-0.335-0.123-0.51-0.503-0.391-0.848c0.119-0.346,0.486-0.526,0.821-0.404
		c1.333,0.489,2.698,0.952,4.057,1.375c0.34,0.106,0.532,0.477,0.43,0.828C-703.518,252.879-703.773,253.065-704.05,253.065z
		 M-657.906,252.245c-0.215,0-0.425-0.111-0.547-0.314c-0.187-0.312-0.095-0.721,0.207-0.915c1.181-0.757,2.287-1.643,3.288-2.633
		c0.257-0.254,0.663-0.245,0.909,0.02s0.237,0.685-0.02,0.939c-1.066,1.054-2.243,1.996-3.499,2.802
		C-657.673,252.213-657.79,252.245-657.906,252.245z M-659.393,251.84c-0.084,0-0.169-0.017-0.25-0.053
		c-1.414-0.618-2.733-1.299-3.921-2.024c-0.306-0.187-0.407-0.594-0.226-0.91c0.18-0.315,0.575-0.42,0.881-0.234
		c1.139,0.695,2.407,1.349,3.768,1.944c0.327,0.143,0.48,0.533,0.342,0.87C-658.904,251.688-659.142,251.84-659.393,251.84z
		 M-604.817,250.544c-0.25,0-0.488-0.152-0.592-0.404c-0.139-0.337,0.013-0.728,0.34-0.871c0.623-0.274,1.25-0.561,1.862-0.853
		c0.671-0.32,1.346-0.655,2.004-0.997c0.318-0.164,0.704-0.032,0.863,0.296c0.16,0.328,0.031,0.727-0.286,0.892
		c-0.671,0.348-1.359,0.69-2.043,1.016c-0.624,0.297-1.263,0.59-1.898,0.869C-604.648,250.527-604.733,250.544-604.817,250.544z
		 M-712.152,250.093c-0.081,0-0.164-0.016-0.244-0.05c-1.333-0.565-2.668-1.171-3.966-1.799c-0.322-0.156-0.46-0.551-0.309-0.883
		s0.534-0.475,0.855-0.319c1.279,0.619,2.594,1.216,3.908,1.773c0.328,0.139,0.486,0.527,0.351,0.867
		C-711.659,249.938-711.899,250.093-712.152,250.093z M-666.729,247.275c-0.15,0-0.301-0.054-0.423-0.164
		c-1.159-1.046-2.162-2.191-2.982-3.403c-0.204-0.301-0.132-0.715,0.159-0.925s0.692-0.136,0.896,0.164
		c0.761,1.124,1.694,2.188,2.775,3.163c0.267,0.241,0.295,0.661,0.061,0.937C-666.371,247.198-666.549,247.275-666.729,247.275z
		 M-597.131,246.559c-0.221,0-0.437-0.118-0.556-0.329c-0.179-0.317-0.076-0.723,0.231-0.908c1.222-0.737,2.437-1.523,3.611-2.337
		c0.295-0.204,0.695-0.123,0.893,0.181c0.198,0.305,0.12,0.717-0.175,0.922c-1.196,0.83-2.435,1.631-3.68,2.381
		C-596.91,246.53-597.021,246.559-597.131,246.559z M-719.936,246.321c-0.102,0-0.205-0.025-0.301-0.078
		c-1.275-0.7-2.544-1.44-3.773-2.2c-0.305-0.189-0.404-0.596-0.221-0.911c0.182-0.315,0.577-0.417,0.882-0.229
		c1.21,0.749,2.46,1.477,3.716,2.167c0.314,0.172,0.433,0.574,0.266,0.898C-719.483,246.193-719.706,246.321-719.936,246.321z
		 M-651.753,246.131c-0.122,0-0.245-0.036-0.354-0.111c-0.296-0.203-0.377-0.615-0.181-0.92c0.79-1.231,1.402-2.515,1.821-3.816
		c0.112-0.348,0.476-0.536,0.813-0.421c0.337,0.116,0.52,0.492,0.408,0.84c-0.454,1.412-1.117,2.802-1.969,4.131
		C-651.34,246.027-651.544,246.131-651.753,246.131z M-589.992,241.608c-0.193,0-0.384-0.089-0.511-0.26
		c-0.216-0.291-0.163-0.708,0.119-0.931c1.123-0.89,2.232-1.828,3.297-2.788c0.267-0.241,0.674-0.213,0.907,0.063
		c0.234,0.276,0.206,0.696-0.061,0.937c-1.085,0.978-2.215,1.935-3.36,2.842C-589.717,241.563-589.855,241.608-589.992,241.608z
		 M-671.418,239.987c-0.283,0-0.542-0.194-0.62-0.489c-0.319-1.206-0.482-2.446-0.482-3.683c0-0.314,0.011-0.629,0.031-0.937
		c0.025-0.366,0.327-0.641,0.686-0.616c0.354,0.025,0.622,0.343,0.597,0.709c-0.019,0.277-0.028,0.561-0.029,0.845
		c0,1.119,0.147,2.24,0.436,3.332c0.094,0.354-0.108,0.719-0.451,0.816C-671.304,239.979-671.361,239.987-671.418,239.987z
		 M-649.166,237.795c-0.353,0-0.64-0.294-0.643-0.659c-0.007-0.955-0.129-1.902-0.361-2.813c-0.107-0.422-0.249-0.844-0.421-1.257
		c-0.14-0.337,0.011-0.728,0.337-0.872c0.326-0.145,0.704,0.011,0.845,0.348c0.196,0.472,0.359,0.958,0.483,1.442
		c0.26,1.018,0.396,2.075,0.404,3.142c0.003,0.367-0.283,0.666-0.638,0.669C-649.163,237.795-649.165,237.795-649.166,237.795z
		 M-583.517,235.763c-0.165,0-0.33-0.065-0.456-0.196c-0.251-0.26-0.249-0.681,0.003-0.939c1.005-1.033,1.988-2.11,2.921-3.203
		c0.235-0.275,0.642-0.302,0.908-0.059c0.267,0.242,0.292,0.662,0.057,0.937c-0.951,1.114-1.953,2.213-2.979,3.266
		C-583.189,235.699-583.353,235.763-583.517,235.763z M-670.767,231.317c-0.094,0-0.191-0.021-0.281-0.067
		c-0.319-0.161-0.452-0.558-0.297-0.888c0.687-1.456,1.642-2.691,2.841-3.671c0.278-0.228,0.683-0.179,0.903,0.109
		s0.173,0.705-0.105,0.933c-1.046,0.854-1.881,1.935-2.482,3.21C-670.3,231.179-670.529,231.317-670.767,231.317z M-652.435,229.84
		c-0.164,0-0.328-0.064-0.453-0.193c-0.955-0.98-2.07-1.81-3.315-2.466c-0.316-0.167-0.442-0.567-0.281-0.893
		c0.161-0.327,0.548-0.457,0.865-0.29c1.364,0.719,2.588,1.63,3.638,2.707c0.252,0.259,0.253,0.679,0.003,0.939
		C-652.104,229.775-652.269,229.84-652.435,229.84z M-577.833,229.1c-0.137,0-0.275-0.045-0.392-0.138
		c-0.282-0.224-0.335-0.641-0.118-0.931c0.865-1.163,1.699-2.366,2.477-3.576c0.196-0.305,0.596-0.389,0.891-0.186
		c0.296,0.203,0.377,0.615,0.18,0.921c-0.795,1.236-1.645,2.464-2.529,3.651C-577.449,229.01-577.64,229.1-577.833,229.1z
		 M-664.256,225.981c-0.294,0-0.559-0.209-0.627-0.517c-0.078-0.358,0.139-0.713,0.485-0.795c1.423-0.333,2.968-0.374,4.518-0.119
		c0.351,0.058,0.59,0.398,0.534,0.76s-0.386,0.608-0.736,0.552c-1.388-0.228-2.767-0.193-4.031,0.103
		C-664.161,225.976-664.208,225.981-664.256,225.981z M-573.078,221.702c-0.107,0-0.216-0.028-0.316-0.086
		c-0.309-0.181-0.418-0.586-0.243-0.905c0.7-1.277,1.359-2.589,1.959-3.899c0.152-0.331,0.536-0.473,0.856-0.317
		c0.321,0.157,0.458,0.553,0.307,0.884c-0.613,1.34-1.287,2.681-2.003,3.986C-572.636,221.581-572.854,221.702-573.078,221.702z
		 M-569.407,213.676c-0.076,0-0.154-0.014-0.229-0.044c-0.332-0.131-0.498-0.515-0.371-0.857c0.51-1.38,0.963-2.779,1.346-4.157
		c0.098-0.353,0.456-0.556,0.795-0.455c0.341,0.101,0.539,0.469,0.441,0.821c-0.393,1.415-0.857,2.85-1.381,4.265
		C-568.904,213.513-569.148,213.676-569.407,213.676z M-567.05,205.144c-0.039,0-0.079-0.004-0.119-0.011
		c-0.349-0.067-0.579-0.414-0.514-0.775c0.264-1.457,0.452-2.914,0.56-4.331c0.028-0.366,0.339-0.638,0.692-0.61
		c0.354,0.029,0.619,0.349,0.591,0.714c-0.112,1.464-0.306,2.968-0.578,4.47C-566.477,204.921-566.747,205.144-567.05,205.144z
		 M-566.397,196.305c-0.343,0-0.628-0.28-0.642-0.637c-0.059-1.471-0.211-2.926-0.452-4.324c-0.062-0.361,0.171-0.706,0.52-0.77
		c0.349-0.065,0.684,0.176,0.746,0.538c0.251,1.456,0.409,2.971,0.47,4.501c0.015,0.366-0.261,0.676-0.616,0.691
		C-566.379,196.305-566.388,196.305-566.397,196.305z M-567.916,187.592c-0.269,0-0.52-0.176-0.61-0.453
		c-0.233-0.719-0.497-1.435-0.784-2.128c-0.258-0.621-0.547-1.244-0.859-1.851c-0.167-0.324-0.048-0.726,0.266-0.898
		c0.314-0.172,0.703-0.049,0.87,0.275c0.33,0.64,0.635,1.297,0.906,1.953c0.301,0.726,0.577,1.475,0.821,2.228
		c0.113,0.348-0.069,0.724-0.406,0.841C-567.78,187.581-567.849,187.592-567.916,187.592z M-610.637,181.974
		c-0.066,0-0.133-0.01-0.199-0.033c-0.338-0.113-0.523-0.488-0.413-0.837c0.446-1.42,1.112-2.811,1.979-4.135
		c0.199-0.304,0.599-0.384,0.893-0.178c0.294,0.205,0.371,0.618,0.172,0.922c-0.799,1.22-1.412,2.499-1.821,3.8
		C-610.114,181.795-610.366,181.974-610.637,181.974z M-571.93,179.784c-0.193,0-0.384-0.089-0.511-0.26
		c-0.846-1.138-1.791-2.221-2.809-3.219c-0.258-0.253-0.268-0.673-0.024-0.939c0.245-0.266,0.652-0.277,0.909-0.024
		c1.067,1.046,2.057,2.18,2.944,3.373c0.216,0.291,0.163,0.708-0.118,0.931C-571.655,179.739-571.793,179.784-571.93,179.784z
		 M-605.926,174.656c-0.174,0-0.347-0.072-0.474-0.214c-0.241-0.27-0.223-0.69,0.038-0.938c1.076-1.022,2.272-1.939,3.554-2.727
		c0.305-0.187,0.7-0.084,0.882,0.231s0.081,0.723-0.224,0.91c-1.206,0.74-2.33,1.603-3.34,2.562
		C-605.614,174.598-605.771,174.656-605.926,174.656z M-578.143,173.692c-0.126,0-0.253-0.038-0.365-0.118
		c-1.159-0.826-2.38-1.555-3.63-2.168c-0.321-0.157-0.457-0.554-0.305-0.885c0.152-0.332,0.536-0.472,0.857-0.315
		c1.312,0.643,2.593,1.409,3.809,2.275c0.292,0.208,0.366,0.622,0.164,0.924C-577.738,173.591-577.939,173.692-578.143,173.692z
		 M-598.583,170.143c-0.267,0-0.516-0.173-0.608-0.448c-0.116-0.347,0.062-0.725,0.398-0.845c1.416-0.505,2.87-0.85,4.319-1.026
		c0.356-0.044,0.672,0.218,0.714,0.582c0.041,0.364-0.211,0.694-0.564,0.737c-1.358,0.164-2.72,0.488-4.049,0.962
		C-598.443,170.131-598.513,170.143-598.583,170.143z M-585.883,169.912c-0.057,0-0.116-0.008-0.174-0.025
		c-1.354-0.391-2.735-0.653-4.107-0.781c-0.354-0.033-0.615-0.356-0.583-0.721c0.032-0.365,0.352-0.635,0.698-0.602
		c1.449,0.135,2.908,0.412,4.338,0.824c0.342,0.099,0.542,0.465,0.446,0.818C-585.343,169.72-585.602,169.912-585.883,169.912z"/>
	<path fill="#FFCC00" stroke="#000000" stroke-width="2" stroke-miterlimit="10" d="M-611.009,188.58
		c-0.216,0-0.424-0.113-0.545-0.311c-0.356-0.584-0.77-1.141-1.232-1.654c-0.242-0.269-0.227-0.689,0.033-0.939
		c0.24-0.23,0.603-0.235,0.847-0.026c0.033-0.326,0.295-0.584,0.621-0.594c0.355-0.011,0.651,0.277,0.662,0.644
		c0.02,0.696,0.101,1.395,0.242,2.077c0.065,0.315-0.098,0.633-0.387,0.754C-610.846,188.564-610.929,188.58-611.009,188.58z"/>
	<path fill="#FFCC00" stroke="#000000" stroke-width="2" stroke-miterlimit="10" d="M-545.995,254.565c-0.001,0-0.001,0-0.002,0
		c-1.409-0.004-2.839-0.03-4.25-0.075c-0.355-0.011-0.634-0.318-0.623-0.685s0.307-0.655,0.663-0.643
		c1.399,0.045,2.816,0.07,4.214,0.074c0.355,0.001,0.642,0.299,0.641,0.666C-545.353,254.269-545.64,254.565-545.995,254.565z
		 M-541.763,254.516c-0.348,0-0.634-0.286-0.643-0.647c-0.009-0.367,0.272-0.672,0.627-0.681c1.398-0.037,2.815-0.095,4.21-0.173
		c0.357-0.019,0.658,0.261,0.677,0.627s-0.253,0.679-0.608,0.699c-1.408,0.079-2.837,0.137-4.247,0.174
		C-541.752,254.516-541.758,254.516-541.763,254.516z M-554.454,254.291c-0.013,0-0.026,0-0.039-0.001
		c-1.409-0.087-2.835-0.195-4.239-0.323c-0.354-0.032-0.616-0.354-0.584-0.72c0.031-0.365,0.344-0.635,0.697-0.603
		c1.392,0.126,2.806,0.234,4.203,0.32c0.354,0.022,0.625,0.336,0.604,0.703C-553.833,254.019-554.116,254.291-554.454,254.291z
		 M-533.313,254.044c-0.331,0-0.612-0.262-0.64-0.609c-0.029-0.366,0.234-0.686,0.588-0.717c1.394-0.119,2.805-0.262,4.194-0.423
		c0.353-0.041,0.671,0.221,0.711,0.586s-0.214,0.693-0.567,0.734c-1.401,0.162-2.824,0.306-4.231,0.426
		C-533.277,254.043-533.295,254.044-533.313,254.044z M-562.884,253.526c-0.025,0-0.05-0.002-0.075-0.005
		c-1.4-0.168-2.818-0.36-4.214-0.569c-0.352-0.053-0.595-0.39-0.544-0.753c0.051-0.363,0.376-0.616,0.729-0.562
		c1.384,0.208,2.79,0.398,4.178,0.564c0.353,0.042,0.606,0.372,0.564,0.737C-562.284,253.277-562.562,253.526-562.884,253.526z
		 M-524.902,253.068c-0.315,0-0.59-0.239-0.636-0.571c-0.05-0.363,0.195-0.699,0.546-0.751c1.387-0.204,2.788-0.431,4.162-0.676
		c0.348-0.062,0.683,0.18,0.743,0.542c0.061,0.361-0.174,0.705-0.524,0.767c-1.387,0.247-2.8,0.477-4.2,0.682
		C-524.842,253.066-524.872,253.068-524.902,253.068z M-571.259,252.269c-0.037,0-0.074-0.003-0.111-0.01
		c-1.393-0.251-2.798-0.525-4.176-0.816c-0.348-0.073-0.573-0.424-0.502-0.784c0.071-0.359,0.41-0.591,0.759-0.518
		c1.366,0.288,2.759,0.56,4.14,0.809c0.35,0.063,0.584,0.407,0.523,0.768C-570.68,252.042-570.952,252.269-571.259,252.269z
		 M-516.562,251.582c-0.299,0-0.568-0.217-0.63-0.532c-0.071-0.359,0.154-0.71,0.502-0.783c1.373-0.289,2.757-0.602,4.115-0.932
		c0.343-0.085,0.692,0.137,0.773,0.494c0.081,0.357-0.133,0.715-0.479,0.799c-1.37,0.333-2.768,0.65-4.153,0.941
		C-516.476,251.578-516.519,251.582-516.562,251.582z M-579.55,250.521c-0.049,0-0.098-0.006-0.147-0.018
		c-1.375-0.333-2.762-0.69-4.124-1.063c-0.343-0.094-0.548-0.458-0.457-0.812c0.091-0.355,0.445-0.566,0.786-0.472
		c1.35,0.37,2.725,0.724,4.088,1.054c0.346,0.084,0.56,0.441,0.479,0.798C-578.994,250.315-579.258,250.521-579.55,250.521z
		 M-508.323,249.578c-0.284,0-0.544-0.196-0.621-0.492c-0.092-0.354,0.111-0.719,0.455-0.814c1.354-0.375,2.717-0.777,4.051-1.193
		c0.34-0.106,0.699,0.093,0.802,0.444s-0.09,0.722-0.43,0.828c-1.346,0.42-2.722,0.826-4.09,1.205
		C-508.212,249.571-508.268,249.578-508.323,249.578z M-587.73,248.281c-0.06,0-0.122-0.009-0.183-0.028
		c-1.355-0.415-2.72-0.857-4.056-1.312c-0.337-0.115-0.521-0.49-0.41-0.839s0.475-0.538,0.812-0.423
		c1.324,0.451,2.677,0.888,4.02,1.3c0.34,0.104,0.535,0.474,0.433,0.826C-587.197,248.094-587.453,248.281-587.73,248.281z
		 M-595.767,245.545c-0.073,0-0.147-0.013-0.22-0.04c-1.331-0.499-2.667-1.025-3.972-1.562c-0.33-0.136-0.491-0.522-0.359-0.863
		s0.505-0.507,0.836-0.371c1.293,0.532,2.617,1.053,3.936,1.548c0.334,0.125,0.506,0.506,0.385,0.851
		C-595.257,245.377-595.504,245.545-595.767,245.545z M-603.627,242.31c-0.086,0-0.173-0.018-0.256-0.055
		c-1.298-0.583-2.601-1.194-3.871-1.815c-0.321-0.157-0.458-0.553-0.306-0.884c0.152-0.331,0.536-0.473,0.857-0.316
		c1.258,0.615,2.548,1.22,3.834,1.797c0.326,0.146,0.475,0.538,0.333,0.874C-603.142,242.161-603.379,242.31-603.627,242.31z
		 M-611.275,238.571c-0.099,0-0.199-0.024-0.293-0.073c-1.259-0.668-2.521-1.364-3.751-2.069c-0.31-0.178-0.422-0.582-0.25-0.903
		s0.564-0.436,0.875-0.258c1.217,0.698,2.466,1.388,3.713,2.049c0.316,0.168,0.441,0.568,0.278,0.894
		C-610.816,238.44-611.041,238.571-611.275,238.571z M-618.671,234.327c-0.113,0-0.227-0.031-0.33-0.095
		c-0.494-0.306-0.986-0.616-1.475-0.929c-0.733-0.469-1.451-0.94-2.133-1.398c-0.298-0.2-0.382-0.612-0.188-0.919
		c0.194-0.307,0.592-0.394,0.89-0.194c0.674,0.453,1.383,0.918,2.109,1.382c0.484,0.31,0.971,0.616,1.46,0.919
		c0.305,0.189,0.403,0.597,0.22,0.911C-618.239,234.212-618.452,234.327-618.671,234.327z M-625.752,229.544
		c-0.13,0-0.262-0.041-0.375-0.125c-1.193-0.888-2.334-1.79-3.391-2.68c-0.275-0.232-0.316-0.65-0.092-0.934
		c0.224-0.284,0.63-0.327,0.905-0.095c1.037,0.874,2.157,1.76,3.329,2.632c0.288,0.214,0.353,0.63,0.146,0.927
		C-625.356,229.449-625.553,229.544-625.752,229.544z M-632.291,224.007c-0.159,0-0.318-0.06-0.443-0.182
		c-1.068-1.046-2.07-2.118-2.978-3.186c-0.234-0.276-0.208-0.695,0.059-0.937c0.267-0.242,0.673-0.215,0.908,0.061
		c0.882,1.038,1.857,2.081,2.896,3.098c0.258,0.252,0.269,0.673,0.024,0.939C-631.951,223.937-632.121,224.007-632.291,224.007z
		 M-637.842,217.433c-0.203,0-0.403-0.099-0.528-0.284c-0.839-1.241-1.593-2.521-2.239-3.805c-0.164-0.325-0.041-0.726,0.274-0.896
		c0.316-0.169,0.703-0.042,0.867,0.283c0.621,1.233,1.345,2.463,2.152,3.657c0.203,0.301,0.132,0.715-0.159,0.925
		C-637.586,217.394-637.715,217.433-637.842,217.433z M-641.68,209.68c-0.271,0-0.523-0.178-0.611-0.459
		c-0.448-1.422-0.781-2.889-0.99-4.359c-0.051-0.363,0.192-0.7,0.543-0.753c0.352-0.052,0.678,0.198,0.73,0.561
		c0.198,1.396,0.514,2.789,0.94,4.141c0.11,0.349-0.075,0.724-0.413,0.837C-641.547,209.669-641.614,209.68-641.68,209.68z
		 M-642.887,201.073c-0.007,0-0.014,0-0.021,0c-0.355-0.012-0.634-0.318-0.622-0.685c0.047-1.521,0.233-3.019,0.553-4.455
		c0.08-0.357,0.426-0.58,0.771-0.498c0.346,0.082,0.562,0.439,0.483,0.796c-0.301,1.352-0.476,2.765-0.521,4.2
		C-642.256,200.789-642.541,201.073-642.887,201.073z M-640.977,192.621c-0.092,0-0.185-0.02-0.274-0.064
		c-0.321-0.156-0.459-0.552-0.308-0.884c0.627-1.374,1.403-2.664,2.305-3.835c0.221-0.287,0.626-0.334,0.904-0.106
		s0.324,0.646,0.103,0.933c-0.84,1.09-1.563,2.293-2.148,3.574C-640.504,192.48-640.735,192.621-640.977,192.621z M-635.742,185.858
		c-0.195,0-0.388-0.091-0.514-0.264c-0.214-0.293-0.157-0.709,0.126-0.93c1.133-0.882,2.415-1.633,3.81-2.234
		c0.328-0.141,0.704,0.019,0.841,0.357s-0.018,0.728-0.346,0.869c-1.296,0.558-2.484,1.254-3.531,2.069
		C-635.471,185.814-635.607,185.858-635.742,185.858z M-615.666,184.188c-0.103,0-0.207-0.026-0.304-0.079
		c-1.147-0.637-2.424-1.132-3.795-1.47c-0.345-0.085-0.559-0.443-0.476-0.8c0.083-0.357,0.43-0.577,0.775-0.492
		c1.48,0.365,2.861,0.9,4.107,1.592c0.313,0.174,0.43,0.577,0.262,0.9C-615.215,184.061-615.437,184.188-615.666,184.188z
		 M-628.02,182.473c-0.304,0-0.575-0.224-0.632-0.544c-0.064-0.361,0.167-0.707,0.516-0.773c1.427-0.271,2.888-0.395,4.34-0.367
		c0.355,0.007,0.638,0.309,0.631,0.676c-0.006,0.363-0.293,0.652-0.643,0.652c-0.004,0-0.008,0-0.012,0
		c-1.365-0.025-2.74,0.09-4.083,0.345C-627.942,182.469-627.981,182.473-628.02,182.473z"/>
	<path fill="#FFCC00" stroke="#000000" stroke-width="2" stroke-miterlimit="10" d="M-500.199,247.04
		c-0.268,0-0.519-0.175-0.609-0.452c-0.114-0.347,0.067-0.724,0.403-0.842c0.672-0.234,1.35-0.477,2.015-0.722
		c0.335-0.123,0.702,0.057,0.822,0.403c0.119,0.346-0.055,0.725-0.39,0.848c-0.672,0.247-1.357,0.492-2.035,0.729
		C-500.061,247.029-500.13,247.04-500.199,247.04z"/>
</g>
<g>
	<polygon fill="#0D1321" points="-492.608,245.19 -492.608,245.19 -487.305,231.386 -485.884,232.074 	"/>
	<path fill="#0D1321" d="M-484.678,221.95c-2.875,0-5.205,2.425-5.205,5.418c0,2.992,2.33,5.418,5.205,5.418
		s5.205-2.425,5.205-5.418C-479.473,224.375-481.803,221.95-484.678,221.95z M-484.678,231.781c-2.342,0-4.241-1.976-4.241-4.411
		c0-2.44,1.898-4.413,4.241-4.413s4.241,1.973,4.241,4.413C-480.438,229.805-482.336,231.781-484.678,231.781z"/>
	<path fill="#0D1321" d="M-481.119,227.37c0,2.043-1.594,3.702-3.559,3.702s-3.559-1.658-3.559-3.702
		c0-2.048,1.594-3.704,3.559-3.704S-481.119,225.322-481.119,227.37z"/>
</g>
<g>
	<g opacity="0.1">
		<ellipse fill="#161616" cx="-746.898" cy="233.57" rx="1.101" ry="1.139"/>
		<ellipse fill="#161616" cx="-744.741" cy="235.801" rx="1.101" ry="1.139"/>
		<ellipse fill="#161616" cx="-742.584" cy="238.033" rx="1.101" ry="1.139"/>
		<ellipse fill="#161616" cx="-740.427" cy="240.265" rx="1.101" ry="1.139"/>
		<ellipse fill="#161616" cx="-742.584" cy="242.496" rx="1.101" ry="1.139"/>
		<ellipse fill="#161616" cx="-744.741" cy="244.728" rx="1.101" ry="1.139"/>
		<ellipse fill="#161616" cx="-746.898" cy="246.959" rx="1.101" ry="1.139"/>
		<ellipse fill="#161616" cx="-751.212" cy="233.57" rx="1.101" ry="1.139"/>
		<ellipse fill="#161616" cx="-749.055" cy="235.801" rx="1.101" ry="1.139"/>
		<ellipse fill="#161616" cx="-746.898" cy="238.033" rx="1.101" ry="1.139"/>
		<ellipse fill="#161616" cx="-744.741" cy="240.265" rx="1.101" ry="1.139"/>
		<ellipse fill="#161616" cx="-746.898" cy="242.496" rx="1.101" ry="1.139"/>
		<ellipse fill="#161616" cx="-749.055" cy="244.728" rx="1.101" ry="1.139"/>
		<ellipse fill="#161616" cx="-751.212" cy="246.959" rx="1.101" ry="1.139"/>
		<ellipse fill="#161616" cx="-755.526" cy="233.57" rx="1.101" ry="1.139"/>
		<ellipse fill="#161616" cx="-753.369" cy="235.801" rx="1.101" ry="1.139"/>
		<ellipse fill="#161616" cx="-751.212" cy="238.033" rx="1.101" ry="1.139"/>
		<ellipse fill="#161616" cx="-749.055" cy="240.265" rx="1.101" ry="1.139"/>
		<ellipse fill="#161616" cx="-751.212" cy="242.496" rx="1.101" ry="1.139"/>
		<ellipse fill="#161616" cx="-753.369" cy="244.728" rx="1.101" ry="1.139"/>
		<ellipse fill="#161616" cx="-755.526" cy="246.959" rx="1.101" ry="1.139"/>
		<ellipse fill="#161616" cx="-759.84" cy="233.57" rx="1.101" ry="1.139"/>
		<ellipse fill="#161616" cx="-757.683" cy="235.801" rx="1.101" ry="1.139"/>
		<ellipse fill="#161616" cx="-755.526" cy="238.033" rx="1.101" ry="1.139"/>
		<ellipse fill="#161616" cx="-753.369" cy="240.265" rx="1.101" ry="1.139"/>
		<ellipse fill="#161616" cx="-755.526" cy="242.496" rx="1.101" ry="1.139"/>
		<ellipse fill="#161616" cx="-757.683" cy="244.728" rx="1.101" ry="1.139"/>
		<ellipse fill="#161616" cx="-759.84" cy="246.959" rx="1.101" ry="1.139"/>
	</g>
	<g>
		<ellipse fill="#0D1321" cx="-745.381" cy="232.478" rx="1.101" ry="1.139"/>
		<ellipse fill="#0D1321" cx="-743.224" cy="234.709" rx="1.101" ry="1.139"/>
		<ellipse fill="#0D1321" cx="-741.067" cy="236.941" rx="1.101" ry="1.139"/>
		<ellipse fill="#0D1321" cx="-738.91" cy="239.172" rx="1.101" ry="1.139"/>
		<ellipse fill="#0D1321" cx="-741.067" cy="241.404" rx="1.101" ry="1.139"/>
		<ellipse fill="#0D1321" cx="-743.224" cy="243.635" rx="1.101" ry="1.139"/>
		<ellipse fill="#0D1321" cx="-745.381" cy="245.867" rx="1.101" ry="1.139"/>
		<ellipse fill="#0D1321" cx="-749.695" cy="232.478" rx="1.101" ry="1.139"/>
		<ellipse fill="#0D1321" cx="-747.538" cy="234.709" rx="1.101" ry="1.139"/>
		<ellipse fill="#0D1321" cx="-745.381" cy="236.941" rx="1.101" ry="1.139"/>
		<ellipse fill="#0D1321" cx="-743.224" cy="239.172" rx="1.101" ry="1.139"/>
		<ellipse fill="#0D1321" cx="-745.381" cy="241.404" rx="1.101" ry="1.139"/>
		<ellipse fill="#0D1321" cx="-747.538" cy="243.635" rx="1.101" ry="1.139"/>
		<ellipse fill="#0D1321" cx="-749.695" cy="245.867" rx="1.101" ry="1.139"/>
		<ellipse fill="#0D1321" cx="-754.009" cy="232.478" rx="1.101" ry="1.139"/>
		<ellipse fill="#0D1321" cx="-751.852" cy="234.709" rx="1.101" ry="1.139"/>
		<ellipse fill="#0D1321" cx="-749.695" cy="236.941" rx="1.101" ry="1.139"/>
		<ellipse fill="#0D1321" cx="-747.538" cy="239.172" rx="1.101" ry="1.139"/>
		<ellipse fill="#0D1321" cx="-749.695" cy="241.404" rx="1.101" ry="1.139"/>
		<ellipse fill="#0D1321" cx="-751.852" cy="243.635" rx="1.101" ry="1.139"/>
		<ellipse fill="#0D1321" cx="-754.009" cy="245.867" rx="1.101" ry="1.139"/>
		<ellipse fill="#0D1321" cx="-758.323" cy="232.478" rx="1.101" ry="1.139"/>
		<ellipse fill="#0D1321" cx="-756.165" cy="234.709" rx="1.101" ry="1.139"/>
		<ellipse fill="#0D1321" cx="-754.009" cy="236.941" rx="1.101" ry="1.139"/>
		<ellipse fill="#0D1321" cx="-751.852" cy="239.172" rx="1.101" ry="1.139"/>
		<ellipse fill="#0D1321" cx="-754.009" cy="241.404" rx="1.101" ry="1.139"/>
		<ellipse fill="#0D1321" cx="-756.165" cy="243.635" rx="1.101" ry="1.139"/>
		<ellipse fill="#0D1321" cx="-758.323" cy="245.867" rx="1.101" ry="1.139"/>
	</g>
</g>
<rect fill="#00CC66" width="820" height="360"/>
<text transform="matrix(1 0 0 1 1095.2097 185.0568)" fill="#FFFFFF" font-family="'ArefRuqaa-Bold'" font-size="53">قققببببل ما تتتتخخخختتتتار طرييييققققك</text>
<text transform="matrix(1 0 0 1 677.2548 185.0568)" fill="#FFFFFF" font-family="'ArefRuqaa-Bold'" font-size="53"> </text>
<g>
	<path fill="#FFCC00" stroke="#FFCC00" stroke-width="2" stroke-miterlimit="10" d="M75.593,225.643
		c-0.173,0-0.345-0.052-0.499-0.157c-0.829-0.575-1.661-1.171-2.473-1.769c-0.402-0.297-0.497-0.873-0.21-1.29
		c0.287-0.416,0.847-0.514,1.249-0.217c0.799,0.588,1.618,1.174,2.434,1.739c0.411,0.285,0.519,0.859,0.244,1.284
		C76.164,225.5,75.881,225.643,75.593,225.643z"/>
	<path fill="#FFCC00" stroke="#FFCC00" stroke-width="2" stroke-miterlimit="10" d="M143.396,246.948c-0.001,0-0.003,0-0.004,0
		c-0.606-0.003-1.212-0.013-1.816-0.025c-1.397-0.031-2.816-0.088-4.215-0.169c-0.494-0.028-0.872-0.465-0.844-0.975
		s0.46-0.898,0.944-0.872c1.38,0.079,2.778,0.135,4.155,0.166c0.595,0.013,1.189,0.022,1.787,0.025
		c0.494,0.003,0.894,0.419,0.891,0.93C144.29,246.537,143.888,246.948,143.396,246.948z M149.382,246.788
		c-0.471,0-0.865-0.379-0.893-0.869c-0.029-0.51,0.347-0.948,0.84-0.979c2.043-0.127,4.023-0.333,5.884-0.613
		c0.49-0.075,0.944,0.277,1.015,0.783c0.071,0.505-0.267,0.975-0.758,1.049c-1.911,0.287-3.941,0.499-6.034,0.629
		C149.42,246.786,149.4,246.788,149.382,246.788z M205.327,246.286h-0.001c-2.008-0.004-4.04-0.067-6.037-0.188
		c-0.494-0.029-0.87-0.468-0.842-0.978c0.029-0.51,0.461-0.902,0.947-0.869c1.964,0.118,3.96,0.181,5.936,0.184
		c0.494,0.001,0.895,0.416,0.894,0.926C206.222,245.874,205.821,246.286,205.327,246.286z M131.44,246.263
		c-0.031,0-0.063-0.001-0.093-0.006c-1.989-0.213-4.002-0.48-5.982-0.792c-0.489-0.077-0.826-0.549-0.751-1.054
		c0.075-0.504,0.532-0.851,1.021-0.774c1.954,0.308,3.938,0.57,5.899,0.781c0.492,0.053,0.849,0.508,0.798,1.015
		C132.282,245.909,131.893,246.263,131.44,246.263z M211.314,246.125c-0.472,0-0.868-0.382-0.894-0.875
		c-0.026-0.51,0.352-0.946,0.847-0.973c1.968-0.11,3.96-0.28,5.92-0.503c0.492-0.056,0.934,0.309,0.989,0.817
		c0.054,0.508-0.299,0.965-0.791,1.021c-1.993,0.227-4.018,0.4-6.02,0.512C211.347,246.125,211.33,246.125,211.314,246.125z
		 M193.375,245.565c-0.035,0-0.07-0.003-0.104-0.007c-1.997-0.24-4.009-0.542-5.978-0.898c-0.487-0.088-0.813-0.568-0.727-1.071
		s0.551-0.838,1.037-0.751c1.936,0.351,3.912,0.648,5.875,0.883c0.492,0.059,0.844,0.518,0.787,1.025
		C194.21,245.217,193.823,245.565,193.375,245.565z M161.215,244.961c-0.398,0-0.763-0.277-0.866-0.695
		c-0.124-0.494,0.164-0.998,0.643-1.127c1.957-0.521,3.831-1.157,5.572-1.89c0.457-0.194,0.98,0.033,1.168,0.507
		c0.187,0.473-0.033,1.012-0.49,1.206c-1.816,0.764-3.767,1.427-5.801,1.969C161.365,244.951,161.29,244.961,161.215,244.961z
		 M223.214,244.764c-0.429,0-0.809-0.32-0.883-0.771c-0.082-0.504,0.246-0.98,0.735-1.065c1.95-0.338,3.909-0.738,5.825-1.189
		c0.483-0.113,0.962,0.199,1.072,0.696c0.11,0.499-0.192,0.994-0.674,1.107c-1.95,0.458-3.944,0.865-5.927,1.209
		C223.315,244.76,223.264,244.764,223.214,244.764z M119.602,244.401c-0.059,0-0.118-0.006-0.178-0.018
		c-1.964-0.408-3.944-0.87-5.884-1.373c-0.48-0.124-0.771-0.627-0.65-1.122c0.12-0.496,0.606-0.797,1.088-0.671
		c1.912,0.496,3.864,0.951,5.8,1.354c0.485,0.1,0.799,0.589,0.702,1.089C120.393,244.097,120.02,244.401,119.602,244.401z
		 M181.582,243.425c-0.068,0-0.138-0.008-0.208-0.025c-0.813-0.199-1.636-0.412-2.444-0.634c-1.167-0.319-2.309-0.659-3.395-1.008
		c-0.472-0.152-0.735-0.671-0.588-1.159c0.148-0.487,0.649-0.759,1.122-0.607c1.061,0.343,2.178,0.674,3.318,0.986
		c0.794,0.217,1.6,0.426,2.399,0.622c0.482,0.118,0.778,0.617,0.664,1.114C182.355,243.138,181.988,243.425,181.582,243.425z
		 M234.891,242.021c-0.389,0-0.746-0.263-0.861-0.668c-0.138-0.49,0.136-1.004,0.611-1.146c1.901-0.568,3.802-1.2,5.651-1.879
		c0.466-0.171,0.978,0.081,1.143,0.563c0.166,0.482-0.078,1.01-0.544,1.181c-1.883,0.691-3.817,1.334-5.753,1.912
		C235.058,242.008,234.973,242.021,234.891,242.021z M107.987,241.39c-0.086,0-0.173-0.013-0.259-0.04
		c-1.919-0.599-3.846-1.252-5.73-1.943c-0.467-0.171-0.71-0.7-0.544-1.181c0.166-0.482,0.677-0.732,1.143-0.563
		c1.856,0.681,3.757,1.326,5.65,1.915c0.473,0.148,0.741,0.664,0.599,1.153C108.728,241.131,108.371,241.39,107.987,241.39z
		 M172.245,240.248c-0.299,0-0.592-0.155-0.762-0.437c-0.26-0.434-0.132-1.004,0.288-1.274c1.645-1.054,3.185-2.288,4.579-3.667
		c0.358-0.354,0.923-0.341,1.267,0.028c0.343,0.369,0.33,0.954-0.028,1.308c-1.484,1.468-3.124,2.78-4.873,3.902
		C172.57,240.204,172.407,240.248,172.245,240.248z M170.174,239.684c-0.117,0-0.235-0.024-0.348-0.074
		c-1.969-0.861-3.806-1.809-5.46-2.819c-0.426-0.26-0.567-0.827-0.315-1.267c0.251-0.439,0.801-0.585,1.227-0.326
		c1.586,0.968,3.352,1.879,5.247,2.707c0.455,0.199,0.668,0.742,0.476,1.212C170.855,239.472,170.523,239.684,170.174,239.684z
		 M246.173,237.879c-0.348,0-0.68-0.212-0.824-0.563c-0.194-0.469,0.018-1.014,0.473-1.213c0.868-0.382,1.741-0.781,2.594-1.188
		c0.934-0.446,1.874-0.912,2.791-1.388c0.443-0.228,0.98-0.045,1.202,0.412c0.223,0.457,0.043,1.012-0.398,1.242
		c-0.934,0.485-1.893,0.961-2.845,1.415c-0.869,0.414-1.757,0.822-2.643,1.21C246.41,237.856,246.292,237.879,246.173,237.879z
		 M96.703,237.251c-0.113,0-0.228-0.022-0.34-0.07c-1.856-0.787-3.715-1.631-5.523-2.505c-0.448-0.217-0.641-0.767-0.43-1.23
		c0.21-0.462,0.745-0.661,1.191-0.444c1.781,0.862,3.612,1.693,5.442,2.469c0.457,0.194,0.677,0.734,0.489,1.207
		C97.39,237.035,97.055,237.251,96.703,237.251z M159.959,233.327c-0.209,0-0.419-0.075-0.589-0.228
		c-1.614-1.457-3.011-3.051-4.153-4.739c-0.283-0.419-0.184-0.996,0.221-1.288c0.405-0.292,0.964-0.189,1.246,0.228
		c1.06,1.565,2.359,3.047,3.864,4.405c0.372,0.336,0.411,0.92,0.085,1.305C160.456,233.22,160.208,233.327,159.959,233.327z
		 M256.877,232.33c-0.308,0-0.609-0.164-0.774-0.458c-0.249-0.441-0.106-1.007,0.322-1.264c1.702-1.026,3.394-2.121,5.029-3.254
		c0.411-0.284,0.968-0.171,1.244,0.252c0.276,0.425,0.167,0.998-0.244,1.284c-1.665,1.156-3.391,2.271-5.125,3.316
		C257.186,232.29,257.03,232.33,256.877,232.33z M85.863,231.999c-0.142,0-0.285-0.035-0.419-0.109
		c-1.776-0.975-3.543-2.005-5.254-3.064c-0.425-0.263-0.563-0.83-0.308-1.269c0.253-0.439,0.804-0.581,1.228-0.319
		c1.685,1.043,3.426,2.057,5.175,3.018c0.437,0.24,0.603,0.799,0.37,1.251C86.496,231.82,86.185,231.999,85.863,231.999z
		 M180.814,231.734c-0.17,0-0.341-0.05-0.493-0.155c-0.412-0.283-0.525-0.856-0.252-1.281c1.1-1.714,1.952-3.502,2.536-5.314
		c0.156-0.485,0.663-0.746,1.132-0.586c0.469,0.162,0.724,0.685,0.568,1.17c-0.632,1.966-1.555,3.902-2.742,5.753
		C181.389,231.589,181.103,231.734,180.814,231.734z M266.82,225.435c-0.269,0-0.535-0.124-0.712-0.362
		c-0.301-0.405-0.227-0.986,0.166-1.296c1.564-1.239,3.11-2.546,4.591-3.882c0.372-0.336,0.939-0.297,1.263,0.088
		c0.326,0.384,0.287,0.969-0.085,1.305c-1.511,1.362-3.085,2.695-4.679,3.958C267.203,225.373,267.01,225.435,266.82,225.435z
		 M153.429,223.178c-0.394,0-0.755-0.27-0.863-0.681c-0.444-1.679-0.671-3.406-0.671-5.129c0-0.437,0.015-0.876,0.043-1.305
		c0.035-0.51,0.455-0.893,0.955-0.858c0.493,0.035,0.866,0.478,0.831,0.987c-0.026,0.386-0.039,0.781-0.039,1.177
		c0,1.558,0.205,3.119,0.607,4.64c0.131,0.493-0.15,1.001-0.628,1.136C153.586,223.167,153.507,223.178,153.429,223.178z
		 M184.415,220.126c-0.492,0-0.891-0.409-0.895-0.918c-0.01-1.33-0.18-2.649-0.503-3.917c-0.149-0.588-0.347-1.175-0.586-1.75
		c-0.195-0.469,0.015-1.014,0.469-1.214c0.454-0.202,0.98,0.015,1.177,0.485c0.273,0.657,0.5,1.334,0.673,2.008
		c0.362,1.418,0.551,2.89,0.563,4.375c0.004,0.511-0.394,0.927-0.888,0.932C184.419,220.126,184.418,220.126,184.415,220.126z
		 M275.836,217.296c-0.23,0-0.46-0.091-0.635-0.273c-0.35-0.362-0.347-0.948,0.004-1.308c1.4-1.439,2.768-2.938,4.066-4.46
		c0.327-0.383,0.894-0.421,1.264-0.082c0.372,0.337,0.407,0.922,0.079,1.305c-1.324,1.551-2.72,3.082-4.148,4.548
		C276.293,217.207,276.065,217.296,275.836,217.296z M154.335,211.105c-0.131,0-0.266-0.029-0.391-0.093
		c-0.444-0.224-0.629-0.777-0.414-1.237c0.957-2.028,2.287-3.747,3.956-5.112c0.387-0.318,0.951-0.249,1.257,0.152
		s0.241,0.982-0.146,1.299c-1.457,1.189-2.619,2.695-3.456,4.47C154.986,210.912,154.667,211.105,154.335,211.105z M179.864,209.048
		c-0.228,0-0.457-0.089-0.632-0.269c-1.33-1.365-2.883-2.521-4.616-3.434c-0.44-0.233-0.616-0.79-0.391-1.244
		c0.224-0.455,0.763-0.636,1.205-0.404c1.899,1.001,3.604,2.27,5.066,3.77c0.351,0.361,0.352,0.946,0.004,1.308
		C180.323,208.957,180.094,209.048,179.864,209.048z M283.752,208.017c-0.191,0-0.383-0.063-0.546-0.192
		c-0.393-0.312-0.466-0.893-0.164-1.296c1.205-1.62,2.366-3.295,3.449-4.98c0.273-0.425,0.83-0.542,1.241-0.259
		c0.412,0.283,0.525,0.856,0.251,1.283c-1.107,1.721-2.291,3.431-3.522,5.084C284.286,207.892,284.02,208.017,283.752,208.017z
		 M163.402,203.674c-0.409,0-0.778-0.291-0.873-0.72c-0.11-0.499,0.194-0.993,0.675-1.107c1.982-0.464,4.133-0.521,6.292-0.166
		c0.489,0.081,0.822,0.554,0.744,1.058c-0.078,0.504-0.538,0.847-1.025,0.769c-1.933-0.317-3.853-0.269-5.613,0.143
		C163.535,203.667,163.468,203.674,163.402,203.674z M290.373,197.715c-0.149,0-0.301-0.039-0.44-0.12
		c-0.43-0.252-0.582-0.816-0.338-1.26c0.975-1.778,1.892-3.605,2.728-5.43c0.212-0.461,0.746-0.659,1.192-0.441
		c0.447,0.219,0.638,0.77,0.428,1.231c-0.854,1.866-1.792,3.733-2.789,5.551C290.989,197.547,290.685,197.715,290.373,197.715z
		 M295.485,186.538c-0.106,0-0.214-0.02-0.319-0.061c-0.462-0.182-0.693-0.717-0.517-1.193c0.71-1.922,1.341-3.87,1.874-5.789
		c0.136-0.492,0.635-0.774,1.107-0.634c0.475,0.141,0.751,0.653,0.614,1.143c-0.547,1.97-1.193,3.969-1.923,5.939
		C296.186,186.311,295.846,186.538,295.485,186.538z M298.766,174.657c-0.054,0-0.11-0.006-0.166-0.015
		c-0.486-0.093-0.806-0.577-0.716-1.079c0.368-2.029,0.629-4.058,0.78-6.031c0.039-0.51,0.472-0.888,0.962-0.849
		c0.493,0.04,0.862,0.486,0.823,0.994c-0.156,2.039-0.426,4.133-0.805,6.225C299.566,174.347,299.19,174.657,298.766,174.657z
		 M299.676,162.348c-0.478,0-0.875-0.39-0.894-0.887c-0.082-2.048-0.294-4.075-0.629-6.021c-0.086-0.503,0.238-0.983,0.724-1.072
		c0.486-0.091,0.953,0.245,1.039,0.749c0.35,2.028,0.57,4.137,0.655,6.268c0.021,0.51-0.363,0.941-0.858,0.962
		C299.701,162.348,299.688,162.348,299.676,162.348z M297.56,150.215c-0.375,0-0.724-0.245-0.849-0.631
		c-0.324-1.001-0.692-1.998-1.092-2.963c-0.359-0.865-0.762-1.732-1.196-2.578c-0.233-0.451-0.067-1.011,0.37-1.251
		c0.437-0.24,0.979-0.068,1.212,0.383c0.46,0.891,0.884,1.806,1.262,2.72c0.419,1.011,0.803,2.054,1.143,3.103
		c0.157,0.485-0.096,1.008-0.565,1.171C297.751,150.2,297.655,150.215,297.56,150.215z M238.07,142.391
		c-0.092,0-0.185-0.014-0.277-0.046c-0.471-0.157-0.728-0.68-0.575-1.166c0.621-1.977,1.549-3.914,2.756-5.758
		c0.277-0.423,0.834-0.535,1.244-0.248c0.409,0.285,0.517,0.861,0.24,1.284c-1.113,1.699-1.966,3.48-2.536,5.292
		C238.798,142.142,238.448,142.391,238.07,142.391z M291.972,139.342c-0.269,0-0.535-0.124-0.712-0.362
		c-1.178-1.585-2.494-3.093-3.912-4.483c-0.359-0.352-0.373-0.937-0.033-1.308c0.341-0.37,0.908-0.386,1.266-0.033
		c1.486,1.457,2.865,3.036,4.1,4.697c0.301,0.405,0.227,0.986-0.164,1.296C292.355,139.279,292.163,139.342,291.972,139.342z
		 M244.631,132.201c-0.242,0-0.483-0.1-0.66-0.298c-0.336-0.376-0.311-0.961,0.053-1.306c1.498-1.423,3.164-2.7,4.949-3.798
		c0.425-0.26,0.975-0.117,1.228,0.322c0.252,0.439,0.113,1.007-0.312,1.267c-1.679,1.031-3.245,2.232-4.651,3.568
		C245.064,132.12,244.846,132.201,244.631,132.201z M283.32,130.858c-0.175,0-0.352-0.053-0.508-0.164
		c-1.614-1.15-3.314-2.165-5.055-3.019c-0.447-0.219-0.636-0.771-0.425-1.232c0.212-0.462,0.746-0.657,1.193-0.439
		c1.827,0.895,3.611,1.962,5.304,3.168c0.407,0.29,0.51,0.866,0.228,1.287C283.884,130.718,283.604,130.858,283.32,130.858z
		 M254.856,125.916c-0.372,0-0.719-0.241-0.847-0.624c-0.162-0.483,0.086-1.01,0.554-1.177c1.972-0.703,3.997-1.184,6.014-1.429
		c0.494-0.061,0.936,0.304,0.994,0.81c0.057,0.507-0.294,0.966-0.785,1.026c-1.891,0.228-3.788,0.68-5.639,1.34
		C255.051,125.899,254.952,125.916,254.856,125.916z M272.542,125.594c-0.079,0-0.162-0.011-0.242-0.035
		c-1.886-0.545-3.809-0.909-5.719-1.088c-0.493-0.046-0.856-0.496-0.812-1.004c0.045-0.508,0.49-0.884,0.972-0.838
		c2.018,0.188,4.05,0.574,6.041,1.147c0.476,0.138,0.755,0.648,0.621,1.139C273.292,125.327,272.933,125.594,272.542,125.594z"/>
	<path fill="#FFCC00" stroke="#FFCC00" stroke-width="2" stroke-miterlimit="10" d="M237.551,151.591
		c-0.301,0-0.59-0.157-0.759-0.433c-0.494-0.813-1.072-1.589-1.716-2.303c-0.337-0.375-0.316-0.959,0.046-1.308
		c0.334-0.32,0.84-0.327,1.181-0.036c0.046-0.454,0.411-0.813,0.865-0.827c0.494-0.015,0.907,0.386,0.922,0.897
		c0.028,0.969,0.141,1.943,0.337,2.892c0.091,0.439-0.136,0.881-0.539,1.05C237.778,151.568,237.664,151.591,237.551,151.591z"/>
	<path fill="#FFCC00" stroke="#FFCC00" stroke-width="2" stroke-miterlimit="10" d="M328.088,243.479c-0.001,0-0.001,0-0.003,0
		c-1.962-0.006-3.953-0.042-5.918-0.104c-0.494-0.015-0.883-0.443-0.868-0.954c0.015-0.511,0.428-0.912,0.923-0.895
		c1.948,0.063,3.921,0.098,5.868,0.103c0.494,0.001,0.894,0.416,0.893,0.927C328.982,243.067,328.581,243.479,328.088,243.479z
		 M333.98,243.411c-0.485,0-0.883-0.398-0.895-0.901c-0.013-0.511,0.379-0.936,0.873-0.948c1.947-0.052,3.92-0.132,5.863-0.241
		c0.497-0.026,0.916,0.363,0.943,0.873c0.026,0.51-0.352,0.946-0.847,0.973c-1.961,0.11-3.951,0.191-5.914,0.242
		C333.995,243.411,333.988,243.411,333.98,243.411z M316.308,243.097c-0.018,0-0.036,0-0.054-0.001
		c-1.962-0.121-3.948-0.272-5.903-0.45c-0.493-0.045-0.858-0.493-0.813-1.003c0.043-0.508,0.479-0.884,0.971-0.84
		c1.938,0.175,3.908,0.326,5.853,0.446c0.493,0.031,0.87,0.468,0.841,0.979C317.173,242.719,316.779,243.097,316.308,243.097z
		 M345.749,242.753c-0.461,0-0.852-0.365-0.891-0.848c-0.042-0.51,0.326-0.955,0.819-0.998c1.941-0.166,3.906-0.365,5.84-0.589
		c0.492-0.057,0.934,0.308,0.99,0.816c0.056,0.508-0.298,0.965-0.79,1.022c-1.951,0.226-3.933,0.426-5.892,0.593
		C345.799,242.752,345.774,242.753,345.749,242.753z M304.569,242.032c-0.035,0-0.07-0.003-0.104-0.007
		c-1.95-0.234-3.924-0.501-5.868-0.792c-0.49-0.074-0.829-0.543-0.758-1.049s0.524-0.858,1.015-0.783
		c1.927,0.29,3.885,0.554,5.818,0.785c0.492,0.058,0.844,0.518,0.785,1.026C305.405,241.685,305.018,242.032,304.569,242.032z
		 M357.46,241.394c-0.439,0-0.822-0.333-0.886-0.795c-0.07-0.506,0.272-0.973,0.76-1.046c1.931-0.284,3.882-0.6,5.796-0.941
		c0.485-0.086,0.951,0.251,1.035,0.755c0.084,0.504-0.242,0.982-0.73,1.068c-1.931,0.344-3.899,0.664-5.849,0.95
		C357.545,241.391,357.502,241.394,357.46,241.394z M292.906,240.282c-0.051,0-0.103-0.004-0.155-0.014
		c-1.94-0.35-3.896-0.731-5.815-1.136c-0.485-0.102-0.798-0.59-0.699-1.092c0.099-0.5,0.571-0.823,1.057-0.721
		c1.902,0.401,3.842,0.78,5.765,1.127c0.487,0.088,0.813,0.567,0.728,1.069C293.711,239.965,293.334,240.282,292.906,240.282z
		 M369.075,239.325c-0.416,0-0.791-0.302-0.877-0.741c-0.099-0.5,0.214-0.989,0.699-1.09c1.912-0.402,3.839-0.838,5.73-1.298
		c0.478-0.118,0.964,0.191,1.076,0.688c0.113,0.497-0.185,0.996-0.667,1.113c-1.909,0.464-3.855,0.905-5.783,1.31
		C369.195,239.319,369.135,239.325,369.075,239.325z M281.361,237.847c-0.068,0-0.136-0.008-0.205-0.025
		c-1.915-0.464-3.846-0.961-5.743-1.48c-0.478-0.131-0.763-0.638-0.636-1.131c0.127-0.494,0.62-0.788,1.095-0.657
		c1.88,0.515,3.795,1.008,5.693,1.468c0.482,0.117,0.78,0.614,0.667,1.111C282.135,237.56,281.766,237.847,281.361,237.847z
		 M380.547,236.534c-0.395,0-0.758-0.273-0.865-0.685c-0.128-0.493,0.155-1.001,0.634-1.134c1.886-0.522,3.784-1.082,5.641-1.661
		c0.473-0.148,0.973,0.13,1.117,0.618s-0.125,1.005-0.599,1.153c-1.874,0.585-3.791,1.15-5.696,1.678
		C380.703,236.524,380.625,236.534,380.547,236.534z M269.97,234.728c-0.084,0-0.17-0.013-0.255-0.039
		c-1.887-0.578-3.788-1.193-5.648-1.827c-0.469-0.16-0.726-0.682-0.571-1.168s0.661-0.749,1.131-0.589
		c1.844,0.628,3.728,1.237,5.598,1.81c0.473,0.145,0.745,0.66,0.603,1.15C270.712,234.468,270.355,234.728,269.97,234.728z
		 M258.778,230.918c-0.102,0-0.205-0.018-0.306-0.056c-1.853-0.695-3.714-1.427-5.531-2.175c-0.46-0.189-0.684-0.727-0.5-1.202
		c0.184-0.475,0.703-0.706,1.164-0.517c1.801,0.741,3.644,1.466,5.481,2.156c0.465,0.174,0.705,0.705,0.536,1.185
		C259.488,230.684,259.144,230.918,258.778,230.918z M247.832,226.413c-0.12,0-0.241-0.025-0.357-0.077
		c-1.808-0.812-3.622-1.663-5.391-2.527c-0.447-0.219-0.638-0.77-0.426-1.231c0.212-0.461,0.746-0.659,1.193-0.44
		c1.752,0.856,3.548,1.699,5.339,2.502c0.454,0.203,0.661,0.749,0.464,1.217C248.507,226.206,248.177,226.413,247.832,226.413z
		 M237.182,221.206c-0.138,0-0.277-0.033-0.408-0.102c-1.753-0.93-3.511-1.899-5.224-2.881c-0.432-0.248-0.588-0.81-0.348-1.257
		c0.241-0.447,0.785-0.607,1.218-0.359c1.695,0.972,3.434,1.933,5.171,2.853c0.44,0.234,0.614,0.791,0.387,1.245
		C237.821,221.024,237.506,221.206,237.182,221.206z M226.882,215.296c-0.157,0-0.316-0.043-0.46-0.132
		c-0.688-0.426-1.373-0.858-2.054-1.294c-1.021-0.653-2.021-1.309-2.97-1.947c-0.415-0.279-0.532-0.852-0.262-1.28
		c0.27-0.428,0.824-0.549,1.239-0.27c0.939,0.631,1.926,1.278,2.937,1.925c0.674,0.432,1.352,0.858,2.033,1.28
		c0.425,0.263,0.561,0.831,0.306,1.269C227.483,215.136,227.186,215.296,226.882,215.296z M217.02,208.636
		c-0.181,0-0.365-0.057-0.522-0.174c-1.661-1.237-3.25-2.493-4.722-3.732c-0.383-0.323-0.44-0.905-0.128-1.301
		c0.312-0.395,0.877-0.455,1.26-0.132c1.444,1.217,3.004,2.451,4.636,3.665c0.401,0.298,0.492,0.877,0.203,1.291
		C217.573,208.503,217.299,208.636,217.02,208.636z M207.914,200.925c-0.221,0-0.443-0.084-0.617-0.253
		c-1.487-1.457-2.883-2.949-4.147-4.437c-0.326-0.384-0.29-0.968,0.082-1.305c0.372-0.337,0.937-0.299,1.264,0.085
		c1.228,1.445,2.586,2.898,4.033,4.314c0.359,0.351,0.375,0.937,0.033,1.308C208.389,200.827,208.152,200.925,207.914,200.925z
		 M200.186,191.77c-0.283,0-0.561-0.138-0.735-0.395c-1.168-1.728-2.218-3.511-3.118-5.299c-0.228-0.453-0.057-1.011,0.382-1.248
		c0.44-0.235,0.979-0.059,1.207,0.394c0.865,1.717,1.873,3.43,2.997,5.093c0.284,0.419,0.184,0.996-0.221,1.288
		C200.541,191.716,200.362,191.77,200.186,191.77z M194.841,180.974c-0.377,0-0.728-0.248-0.851-0.639
		c-0.624-1.98-1.088-4.023-1.377-6.07c-0.071-0.506,0.267-0.975,0.756-1.049c0.49-0.072,0.944,0.276,1.017,0.781
		c0.276,1.944,0.716,3.884,1.309,5.767c0.153,0.486-0.104,1.008-0.575,1.166C195.026,180.958,194.933,180.974,194.841,180.974z
		 M193.16,168.988c-0.01,0-0.02,0-0.029,0c-0.494-0.017-0.883-0.443-0.866-0.954c0.065-2.118,0.324-4.204,0.77-6.204
		c0.111-0.497,0.593-0.808,1.074-0.693c0.482,0.114,0.783,0.611,0.673,1.108c-0.419,1.883-0.663,3.85-0.726,5.849
		C194.039,168.593,193.642,168.988,193.16,168.988z M195.82,157.218c-0.128,0-0.258-0.028-0.382-0.089
		c-0.447-0.217-0.639-0.769-0.429-1.231c0.873-1.913,1.954-3.71,3.21-5.34c0.309-0.4,0.872-0.465,1.259-0.148
		c0.387,0.317,0.451,0.9,0.143,1.299c-1.17,1.518-2.177,3.193-2.991,4.977C196.479,157.022,196.155,157.218,195.82,157.218z
		 M203.11,147.8c-0.272,0-0.54-0.127-0.716-0.368c-0.298-0.408-0.219-0.987,0.175-1.295c1.578-1.228,3.363-2.274,5.307-3.111
		c0.457-0.196,0.98,0.026,1.171,0.497c0.191,0.471-0.025,1.014-0.482,1.21c-1.805,0.777-3.459,1.746-4.917,2.881
		C203.487,147.739,203.298,147.8,203.11,147.8z M231.067,145.475c-0.143,0-0.288-0.036-0.423-0.11
		c-1.597-0.887-3.376-1.576-5.285-2.047c-0.48-0.118-0.778-0.617-0.663-1.114c0.116-0.497,0.599-0.804,1.079-0.685
		c2.061,0.508,3.984,1.253,5.719,2.217c0.436,0.242,0.599,0.803,0.365,1.253C231.695,145.298,231.386,145.475,231.067,145.475z
		 M213.863,143.086c-0.423,0-0.801-0.312-0.88-0.758c-0.089-0.503,0.233-0.985,0.719-1.076c1.987-0.377,4.022-0.55,6.044-0.511
		c0.494,0.01,0.888,0.43,0.879,0.941c-0.008,0.506-0.408,0.908-0.895,0.908c-0.006,0-0.011,0-0.017,0
		c-1.901-0.035-3.816,0.125-5.686,0.48C213.972,143.081,213.918,143.086,213.863,143.086z"/>
	<path fill="#FFCC00" stroke="#FFCC00" stroke-width="2" stroke-miterlimit="10" d="M391.862,233c-0.373,0-0.723-0.244-0.848-0.629
		c-0.159-0.483,0.093-1.008,0.561-1.173c0.936-0.326,1.88-0.664,2.806-1.005c0.466-0.171,0.978,0.079,1.145,0.561
		c0.166,0.482-0.077,1.01-0.543,1.181c-0.936,0.344-1.89,0.685-2.834,1.015C392.054,232.985,391.956,233,391.862,233z"/>
</g>
<g>
	<polygon fill="#0D1321" points="402.431,230.424 402.431,230.424 409.817,211.201 411.795,212.159 	"/>
	<path fill="#0D1321" d="M413.474,198.06c-4.004,0-7.248,3.377-7.248,7.545c0,4.167,3.245,7.545,7.248,7.545
		s7.248-3.377,7.248-7.545C420.724,201.437,417.478,198.06,413.474,198.06z M413.474,211.751c-3.261,0-5.906-2.752-5.906-6.143
		c0-3.398,2.643-6.145,5.906-6.145s5.906,2.748,5.906,6.145C419.38,208.999,416.737,211.751,413.474,211.751z"/>
	<path fill="#0D1321" d="M418.43,205.608c0,2.845-2.22,5.155-4.956,5.155c-2.736,0-4.956-2.309-4.956-5.155
		c0-2.852,2.22-5.158,4.956-5.158C416.211,200.45,418.43,202.756,418.43,205.608z"/>
</g>
<g>
	<g opacity="0.1">
		<ellipse fill="#161616" cx="48.317" cy="214.242" rx="1.533" ry="1.586"/>
		<ellipse fill="#161616" cx="51.321" cy="217.349" rx="1.533" ry="1.586"/>
		<ellipse fill="#161616" cx="54.325" cy="220.457" rx="1.533" ry="1.586"/>
		<ellipse fill="#161616" cx="57.328" cy="223.565" rx="1.533" ry="1.586"/>
		<ellipse fill="#161616" cx="54.325" cy="226.672" rx="1.533" ry="1.586"/>
		<ellipse fill="#161616" cx="51.321" cy="229.78" rx="1.533" ry="1.586"/>
		<ellipse fill="#161616" cx="48.317" cy="232.887" rx="1.533" ry="1.586"/>
		<ellipse fill="#161616" cx="42.31" cy="214.242" rx="1.533" ry="1.586"/>
		<ellipse fill="#161616" cx="45.313" cy="217.349" rx="1.533" ry="1.586"/>
		<ellipse fill="#161616" cx="48.317" cy="220.457" rx="1.533" ry="1.586"/>
		<ellipse fill="#161616" cx="51.321" cy="223.565" rx="1.533" ry="1.586"/>
		<ellipse fill="#161616" cx="48.317" cy="226.672" rx="1.533" ry="1.586"/>
		<ellipse fill="#161616" cx="45.313" cy="229.78" rx="1.533" ry="1.586"/>
		<ellipse fill="#161616" cx="42.31" cy="232.887" rx="1.533" ry="1.586"/>
		<ellipse fill="#161616" cx="36.302" cy="214.242" rx="1.533" ry="1.586"/>
		<ellipse fill="#161616" cx="39.306" cy="217.349" rx="1.533" ry="1.586"/>
		<ellipse fill="#161616" cx="42.31" cy="220.457" rx="1.533" ry="1.586"/>
		<ellipse fill="#161616" cx="45.313" cy="223.565" rx="1.533" ry="1.586"/>
		<ellipse fill="#161616" cx="42.31" cy="226.672" rx="1.533" ry="1.586"/>
		<ellipse fill="#161616" cx="39.306" cy="229.78" rx="1.533" ry="1.586"/>
		<ellipse fill="#161616" cx="36.302" cy="232.887" rx="1.533" ry="1.586"/>
		<ellipse fill="#161616" cx="30.295" cy="214.242" rx="1.533" ry="1.586"/>
		<ellipse fill="#161616" cx="33.298" cy="217.349" rx="1.533" ry="1.586"/>
		<ellipse fill="#161616" cx="36.302" cy="220.457" rx="1.533" ry="1.586"/>
		<ellipse fill="#161616" cx="39.306" cy="223.565" rx="1.533" ry="1.586"/>
		<ellipse fill="#161616" cx="36.302" cy="226.672" rx="1.533" ry="1.586"/>
		<ellipse fill="#161616" cx="33.298" cy="229.78" rx="1.533" ry="1.586"/>
		<ellipse fill="#161616" cx="30.295" cy="232.887" rx="1.533" ry="1.586"/>
	</g>
	<g>
		<ellipse fill="#0D1321" cx="50.431" cy="212.721" rx="1.533" ry="1.586"/>
		<ellipse fill="#0D1321" cx="53.435" cy="215.828" rx="1.533" ry="1.586"/>
		<ellipse fill="#0D1321" cx="56.438" cy="218.936" rx="1.533" ry="1.586"/>
		<ellipse fill="#0D1321" cx="59.442" cy="222.043" rx="1.533" ry="1.586"/>
		<ellipse fill="#0D1321" cx="56.438" cy="225.151" rx="1.533" ry="1.586"/>
		<ellipse fill="#0D1321" cx="53.435" cy="228.258" rx="1.533" ry="1.586"/>
		<ellipse fill="#0D1321" cx="50.431" cy="231.366" rx="1.533" ry="1.586"/>
		<ellipse fill="#0D1321" cx="44.423" cy="212.721" rx="1.533" ry="1.586"/>
		<ellipse fill="#0D1321" cx="47.427" cy="215.828" rx="1.533" ry="1.586"/>
		<ellipse fill="#0D1321" cx="50.431" cy="218.936" rx="1.533" ry="1.586"/>
		<ellipse fill="#0D1321" cx="53.435" cy="222.043" rx="1.533" ry="1.586"/>
		<ellipse fill="#0D1321" cx="50.431" cy="225.151" rx="1.533" ry="1.586"/>
		<ellipse fill="#0D1321" cx="47.427" cy="228.258" rx="1.533" ry="1.586"/>
		<ellipse fill="#0D1321" cx="44.423" cy="231.366" rx="1.533" ry="1.586"/>
		<ellipse fill="#0D1321" cx="38.416" cy="212.721" rx="1.533" ry="1.586"/>
		<ellipse fill="#0D1321" cx="41.42" cy="215.828" rx="1.533" ry="1.586"/>
		<ellipse fill="#0D1321" cx="44.423" cy="218.936" rx="1.533" ry="1.586"/>
		<ellipse fill="#0D1321" cx="47.427" cy="222.043" rx="1.533" ry="1.586"/>
		<ellipse fill="#0D1321" cx="44.423" cy="225.151" rx="1.533" ry="1.586"/>
		<ellipse fill="#0D1321" cx="41.42" cy="228.258" rx="1.533" ry="1.586"/>
		<ellipse fill="#0D1321" cx="38.416" cy="231.366" rx="1.533" ry="1.586"/>
		<ellipse fill="#0D1321" cx="32.408" cy="212.721" rx="1.533" ry="1.586"/>
		<ellipse fill="#0D1321" cx="35.412" cy="215.828" rx="1.533" ry="1.586"/>
		<ellipse fill="#0D1321" cx="38.416" cy="218.936" rx="1.533" ry="1.586"/>
		<ellipse fill="#0D1321" cx="41.42" cy="222.043" rx="1.533" ry="1.586"/>
		<ellipse fill="#0D1321" cx="38.416" cy="225.151" rx="1.533" ry="1.586"/>
		<ellipse fill="#0D1321" cx="35.412" cy="228.258" rx="1.533" ry="1.586"/>
		<ellipse fill="#0D1321" cx="32.408" cy="231.366" rx="1.533" ry="1.586"/>
	</g>
</g>
<g>
	<path fill="#FFFFFF" d="M426.082,141.839c0.963,1.315,1.447,3.054,1.447,5.214c0,1.644-0.226,3.182-0.67,4.614
		c-0.448,1.433-0.976,2.808-1.584,4.122c-1.175,2.442-2.738,4.498-4.686,6.164c-1.951,1.668-4.287,2.995-7.011,3.981
		c-0.328,0.095-0.61,0.025-0.847-0.211c-0.235-0.235-0.303-0.517-0.21-0.846l2.888-8.877c0.141-0.328,0.469-0.539,0.988-0.634
		c0.515-0.094,0.914-0.187,1.196-0.281c0.235-0.093,0.434-0.176,0.6-0.247c0.164-0.07,0.339-0.129,0.529-0.176l2.043-0.916
		c-0.471-2.582-1.411-3.875-2.819-3.875c-0.236,0-0.469,0.012-0.706,0.035c-0.235,0.025-0.469,0.083-0.702,0.176
		c-2.726,1.127-4.862,2.818-6.413,5.073c-0.752,1.127-1.48,2.255-2.184,3.382c-0.704,1.127-1.385,2.301-2.043,3.522
		c-0.376,0.659-0.563,1.268-0.563,1.832c0,1.363,0.961,2.795,2.888,4.297c1.455,1.081,3.311,1.668,5.566,1.761h0.212
		c3.334,0,6.481-0.493,9.44-1.479c2.958-0.987,5.612-2.019,7.962-3.1c0.423-0.235,0.833-0.445,1.231-0.634
		c0.399-0.187,0.764-0.375,1.094-0.564l-2.113-25.644l5.142-8.595c0.235-0.376,0.538-0.517,0.916-0.423
		c0.376,0.095,0.586,0.353,0.635,0.775l2.888,42.554l-5.001,7.679c-0.191,0.329-0.483,0.458-0.882,0.387
		c-0.399-0.071-0.598-0.317-0.598-0.74l-0.704-9.652c-1.411,1.691-3.112,3.218-5.109,4.58c-1.997,1.363-4.075,2.513-6.234,3.452
		c-1.457,0.611-3.077,1.152-4.862,1.62c-1.785,0.47-3.641,0.705-5.566,0.705c-1.692,0-3.311-0.211-4.86-0.634
		c-2.022-0.516-3.641-1.537-4.862-3.064c-1.221-1.526-2.068-3.369-2.537-5.531c-0.141-0.798-0.212-1.503-0.212-2.113
		c0-1.221,0.153-2.36,0.459-3.417s0.67-2.054,1.092-2.995c0.75-1.596,1.561-3.216,2.431-4.861c0.868-1.643,1.748-3.146,2.641-4.509
		c5.448-8.547,9.957-13.127,13.527-13.738c0.282-0.046,0.575-0.081,0.882-0.105c0.303-0.024,0.621-0.035,0.949-0.035
		C423.676,139.867,425.119,140.525,426.082,141.839z"/>
	<path fill="#FFFFFF" d="M466.135,141.98c-2.161,0.376-4.31,0.775-6.446,1.198c-2.138,0.423-4.287,0.821-6.446,1.198
		c-0.328,0.046-0.6-0.059-0.812-0.317c-0.212-0.259-0.222-0.553-0.035-0.881l3.946-8.031c0.048-0.094,0.139-0.176,0.28-0.247
		c0.141-0.071,0.259-0.129,0.353-0.176c2.209-0.376,4.38-0.763,6.517-1.163c2.138-0.399,4.262-0.811,6.376-1.233
		c0.328-0.094,0.61-0.011,0.847,0.246c0.233,0.259,0.233,0.576,0,0.952l-4.015,7.961C466.604,141.674,466.417,141.84,466.135,141.98
		z"/>
	<path fill="#FFFFFF" d="M436.686,180.94c-0.33,0.046-0.587-0.011-0.774-0.176c-0.187-0.164-0.258-0.41-0.212-0.739l1.268-8.807
		c0-0.376,0.235-0.61,0.704-0.705l11.837-1.832c1.126-2.488,2.442-4.967,3.945-7.432c1.503-2.466,3.077-4.686,4.721-6.658
		c0.704-0.846,1.524-1.656,2.466-2.431c0.939-0.774,2.064-1.163,3.38-1.163c0.376,0,0.752,0.035,1.129,0.106
		c0.374,0.071,0.727,0.224,1.055,0.458c1.785,0.94,2.678,2.631,2.678,5.073c0,0.564-0.048,1.163-0.141,1.797
		c-0.095,0.634-0.236,1.304-0.423,2.008c-1.408,3.852-3.31,7.281-5.705,10.287c-1.223,1.55-2.667,2.853-4.333,3.909
		c-1.669,1.058-3.535,1.892-5.603,2.502l-9.369,2.325L436.686,180.94z M460.289,162.447c-0.423-0.728-0.801-1.185-1.129-1.374
		c-0.752,0.282-1.385,0.752-1.902,1.41l-1.831,2.395c-0.141,0.282-0.212,0.493-0.212,0.634c0,0.282,0.095,0.553,0.282,0.811
		c0.187,0.258,0.376,0.435,0.565,0.528c1.267-0.141,2.699-0.564,4.297-1.268c0.374-0.235,0.563-0.54,0.563-0.916
		C460.922,163.915,460.712,163.175,460.289,162.447z"/>
	<path fill="#FFFFFF" d="M481.351,191.86c-2.161,0.376-4.31,0.775-6.446,1.198c-2.136,0.423-4.285,0.821-6.448,1.198
		c-0.328,0.046-0.598-0.059-0.808-0.317c-0.212-0.259-0.222-0.553-0.035-0.881l3.945-8.031c0.046-0.094,0.141-0.176,0.282-0.247
		c0.141-0.071,0.258-0.129,0.351-0.176c2.209-0.376,4.38-0.763,6.518-1.163c2.135-0.399,4.262-0.811,6.376-1.233
		c0.328-0.093,0.609-0.011,0.843,0.246c0.236,0.259,0.236,0.576,0,0.952l-4.015,7.961
		C481.818,191.554,481.631,191.72,481.351,191.86z"/>
	<path fill="#FFFFFF" d="M487.058,151.104c0.328,0.353,0.623,0.916,0.882,1.691c0.258,0.775,0.48,1.585,0.669,2.431
		c0.187,0.845,0.305,1.504,0.351,1.972c0.048,0.799,0.048,1.48,0,2.044c-0.61,4.838-2.23,8.76-4.86,11.765
		c-2.63,3.007-6.106,5.12-10.428,6.341c-1.877,0.517-4.061,0.963-6.552,1.338c-1.455,0.189-2.876,0.353-4.262,0.493
		c-1.385,0.141-2.83,0.212-4.333,0.212c-1.879,0-3.535-0.258-4.966-0.775c-1.434-0.516-2.196-1.666-2.29-3.452
		c0.422-1.597,0.845-3.136,1.268-4.615c0.423-1.479,0.891-2.899,1.408-4.262c0.187-0.328,0.469-0.493,0.847-0.493
		c0.374,0,0.633,0.188,0.774,0.564c0.235,0.799,0.739,1.386,1.515,1.761c0.774,0.377,1.701,0.624,2.782,0.74
		c1.081,0.118,2.136,0.176,3.17,0.176c3.101,0,6.012-0.293,8.736-0.881c2.724-0.587,5.285-1.256,7.681-2.008
		c0.515-0.187,0.995-0.352,1.443-0.493c0.446-0.141,0.833-0.282,1.163-0.423c-0.048-0.939-0.199-1.843-0.457-2.712
		c-0.259-0.869-0.554-1.749-0.882-2.643c-0.046-0.094-0.046-0.234,0-0.423c0.046-0.187,0.094-0.304,0.141-0.352l5.144-7.679
		C486.377,150.858,486.73,150.752,487.058,151.104z"/>
	<path fill="#FFFFFF" d="M517.422,171.358c-0.61,0.564-1.161,1.245-1.655,2.044c-0.494,0.799-0.951,1.597-1.372,2.395
		c-1.316,2.537-3.077,4.087-5.285,4.65c-0.423,0.094-0.857,0.165-1.302,0.212c-0.448,0.047-0.907,0.07-1.376,0.07
		c-1.08,0-2.325-0.14-3.733-0.423c-0.469-0.094-1.221-0.281-2.255-0.564c-1.034-0.281-2.161-0.622-3.382-1.021
		c-1.223-0.399-2.348-0.786-3.382-1.163c-1.034-0.375-1.785-0.728-2.255-1.057c-0.986-0.939-0.822-1.714,0.494-2.325
		c1.595-0.564,3.241-1.067,4.933-1.515c1.69-0.445,3.451-0.81,5.282-1.092c3.525-0.564,6.905-1.268,10.147-2.113
		c1.03-0.282,1.902-0.821,2.606-1.62c0.517-0.751,1.198-1.033,2.043-0.846c1.362,0.236,1.904,1.127,1.621,2.677
		C518.41,170.467,518.032,171.031,517.422,171.358z"/>
	<path fill="#FFFFFF" d="M513.407,172.803c-0.376-0.539-0.565-1.092-0.565-1.656c0-0.564,0.12-1.044,0.353-1.444
		c0.235-0.399,0.494-0.786,0.776-1.163c0.233-0.375,0.457-0.786,0.669-1.233c0.21-0.445,0.411-0.833,0.598-1.163
		c1.503-2.442,3.429-4.202,5.778-5.284c1.08-0.469,2.196-0.869,3.347-1.198c1.15-0.328,2.313-0.61,3.488-0.845
		c1.972-2.301,3.957-4.532,5.954-6.693c1.995-2.16,4.096-4.274,6.305-6.341c0.656-0.609,1.584-1.162,2.782-1.656
		c1.198-0.493,2.525-0.739,3.982-0.739c1.736,0,3.122,0.634,4.156,1.902c0.374,0.423,0.692,0.893,0.951,1.41
		c0.258,0.517,0.386,1.104,0.386,1.761c0,0.094,0,0.165,0,0.211c0,0.048,0,0.118,0,0.212c0,1.504-0.457,2.936-1.372,4.297
		c-0.917,1.363-1.725,2.536-2.431,3.523c-2.819,3.711-6.6,6.481-11.343,8.313c-2.348,0.894-4.65,1.668-6.905,2.325
		c-2.255,0.659-4.484,1.198-6.693,1.62c-2.724,0.518-5,1.62-6.833,3.311c-0.235,0.282-0.517,0.576-0.845,0.881
		c-0.33,0.306-0.706,0.458-1.129,0.458C514.252,173.614,513.783,173.344,513.407,172.803z M532.64,126.763
		c0.236-0.376,0.54-0.505,0.917-0.387c0.374,0.117,0.586,0.387,0.633,0.81l1.41,22.122l-5.074,8.172
		c-0.187,0.329-0.482,0.47-0.88,0.423c-0.4-0.046-0.623-0.281-0.669-0.704l-1.48-22.122L532.64,126.763z M542.891,153.041
		c-0.587-0.375-1.279-0.564-2.078-0.564c-0.517,0-0.986,0.118-1.41,0.353c-1.175,0.61-2.23,1.338-3.168,2.184
		c-0.942,0.845-1.858,1.738-2.748,2.677c1.925-0.376,3.768-0.811,5.529-1.304c1.762-0.493,3.394-1.115,4.897-1.866v-0.071
		C543.817,153.887,543.478,153.418,542.891,153.041z"/>
	<path fill="#FFFFFF" d="M596.54,161.495v0.282c-0.328,1.504-0.774,3.1-1.337,4.791c-0.565,1.691-1.187,3.265-1.868,4.721
		c-0.681,1.456-1.42,2.677-2.217,3.663c-1.598,1.832-3.56,3.288-5.885,4.368c-2.325,1.081-5.201,1.62-8.63,1.62h-0.633
		c-2.676-0.093-5.001-0.235-6.974-0.423c-2.113-0.187-3.5-0.587-4.158-1.198c-0.235-0.235-0.351-0.587-0.351-1.057
		c0-0.61,0.281-1.139,0.843-1.585c0.565-0.446,1.235-0.834,2.009-1.163c0.774-0.328,1.491-0.61,2.149-0.846
		c0.658-0.234,1.42-0.504,2.29-0.81c0.868-0.305,1.819-0.622,2.853-0.951c2.678-0.846,5.321-1.761,7.926-2.748
		c2.606-0.987,4.991-2.184,7.15-3.594c1.879-1.268,3.334-3.029,4.368-5.284c0.187-0.61,0.658-0.916,1.411-0.916
		C596.094,160.415,596.445,160.791,596.54,161.495z"/>
	<path fill="#FFFFFF" d="M606.684,132.962c0.187-0.375,0.483-0.516,0.882-0.423c0.399,0.094,0.621,0.329,0.669,0.705l2.607,38.96
		l-4.297,8.313c-0.189,0.329-0.494,0.468-0.916,0.423c-0.423-0.046-0.635-0.305-0.635-0.775l-2.749-39.031L606.684,132.962z"/>
	<path fill="#FFFFFF" d="M625.214,157.127c-2.163,0.376-4.312,0.775-6.446,1.198c-2.138,0.423-4.287,0.821-6.448,1.198
		c-0.328,0.046-0.598-0.059-0.81-0.317c-0.212-0.259-0.222-0.553-0.035-0.881l3.945-8.031c0.048-0.093,0.141-0.176,0.282-0.247
		c0.141-0.071,0.258-0.129,0.353-0.176c2.209-0.376,4.379-0.763,6.517-1.163c2.136-0.399,4.262-0.811,6.376-1.233
		c0.328-0.094,0.61-0.011,0.845,0.246c0.235,0.259,0.235,0.576,0,0.952l-4.015,7.961
		C625.682,156.821,625.495,156.987,625.214,157.127z"/>
	<path fill="#FFFFFF" d="M618.662,178.474c-1.785,0.611-3.828,1.117-6.13,1.515c-2.302,0.4-4.557,0.716-6.762,0.951
		c-0.282,0.046-0.505-0.035-0.67-0.247c-0.164-0.211-0.222-0.458-0.176-0.739l1.41-8.596c0.094-0.375,0.351-0.61,0.774-0.704
		c4.181-0.376,7.538-0.798,10.075-1.268c1.268-0.235,2.36-0.493,3.276-0.775c0.916-0.281,1.609-0.539,2.078-0.774
		c1.08-0.657,1.926-1.643,2.537-2.959c0.233-0.423,0.586-0.634,1.057-0.634c0.609,0,0.916,0.4,0.916,1.198
		c0,0.752-0.118,1.398-0.353,1.938s-0.469,1.139-0.704,1.796c-0.704,1.88-1.505,3.653-2.396,5.32
		c-0.893,1.667-1.972,3.182-3.241,4.544c-0.187,0.189-0.378,0.282-0.565,0.282h-0.071
		C619.154,179.32,618.803,179.038,618.662,178.474z"/>
	<path fill="#FFFFFF" d="M638.177,134.584c-0.471,0.611-0.942,1.198-1.41,1.761c-0.471,0.564-0.94,1.127-1.41,1.691
		c-0.469,0.564-0.822,0.986-1.057,1.268c-0.235,0.282-0.457,0.575-0.669,0.881c-0.212,0.305-0.554,0.74-1.023,1.304
		c-0.141,0.187-0.328,0.292-0.563,0.317c-0.235,0.023-0.446-0.059-0.633-0.247l-4.721-4.439c-0.328-0.329-0.353-0.681-0.071-1.057
		c0.94-1.173,1.866-2.324,2.784-3.452c0.914-1.127,1.821-2.277,2.711-3.452c0.141-0.187,0.34-0.305,0.598-0.352
		s0.482,0.024,0.67,0.211l4.65,4.439C638.364,133.786,638.41,134.161,638.177,134.584z"/>
	<path fill="#FFFFFF" d="M635.005,166.181c4.086-1.15,7.773-2.665,11.061-4.544c-0.141-0.094-0.293-0.176-0.457-0.246
		c-0.166-0.071-0.388-0.129-0.669-0.176c-1.083-0.235-2.339-0.387-3.77-0.458c-1.434-0.071-2.782-0.152-4.052-0.247
		c-0.328-0.046-0.656-0.081-0.984-0.106c-0.33-0.023-0.612-0.058-0.847-0.105c-0.565-0.094-0.893-0.353-0.986-0.775
		c-0.094-0.423-0.035-0.927,0.176-1.515c0.21-0.587,0.446-1.139,0.704-1.656c0.258-0.516,0.434-0.892,0.529-1.127
		c0.328-0.657,0.55-1.08,0.669-1.268c0.118-0.187,0.34-0.609,0.669-1.268h-0.071c0.236-0.423,0.459-0.846,0.67-1.268
		c0.212-0.423,0.411-0.846,0.6-1.268c0.092-0.281,0.328-0.423,0.704-0.423c1.173-0.093,2.336-0.071,3.488,0.071
		c1.15,0.141,2.336,0.306,3.556,0.493c1.551,0.236,3.077,0.564,4.58,0.986c1.503,0.423,2.56,1.175,3.172,2.255
		c0.187,0.329,0.28,0.729,0.28,1.198c0,0.564-0.118,1.116-0.351,1.656c-0.236,0.541-0.448,1.021-0.635,1.444
		c-0.565,1.268-1.175,2.455-1.831,3.558c-0.66,1.103-1.339,2.219-2.043,3.347l-0.565,0.916c-1.738,2.536-4.885,4.932-9.442,7.186
		c-2.255,1.127-4.848,2.208-7.783,3.241c-2.935,1.034-6.213,2.02-9.83,2.959l-1.619,0.352c-0.328,0.046-0.586-0.023-0.774-0.212
		c-0.189-0.187-0.258-0.445-0.212-0.774l1.762-8.807c0.092-0.423,0.374-0.634,0.843-0.634l0.141-0.071
		C626.481,168.237,630.919,167.333,635.005,166.181z"/>
	<path fill="#FFFFFF" d="M664.666,125.356c-2.161,0.376-4.31,0.775-6.446,1.198s-4.285,0.821-6.448,1.198
		c-0.328,0.046-0.598-0.059-0.808-0.317c-0.212-0.259-0.222-0.553-0.035-0.881l3.945-8.031c0.046-0.093,0.141-0.176,0.282-0.247
		c0.141-0.071,0.258-0.129,0.351-0.176c2.209-0.376,4.38-0.763,6.518-1.163c2.135-0.399,4.262-0.811,6.376-1.233
		c0.328-0.093,0.609-0.011,0.843,0.246c0.236,0.259,0.236,0.576,0,0.952l-4.015,7.961
		C665.133,125.05,664.946,125.216,664.666,125.356z"/>
	<path fill="#FFFFFF" d="M637.965,151c0.235-0.564,0.469-1.033,0.704-1.41c0.986-1.502,2.089-2.947,3.311-4.333
		c1.221-1.385,2.558-2.735,4.015-4.051c2.724-2.582,6.012-4.649,9.863-6.199v-0.071c0.845-0.282,1.657-0.564,2.431-0.846
		c0.774-0.281,1.678-0.423,2.711-0.423c1.034,0,2.091,0.236,3.172,0.705l0.423,0.564c0.046,0.047,0.104,0.165,0.175,0.352
		c0.071,0.188,0.058,0.329-0.035,0.423c-0.517,1.316-1.034,2.619-1.551,3.91c-0.515,1.292-1.104,2.548-1.761,3.769
		c-0.469,0.846-1.362,1.104-2.678,0.775c-0.187-0.046-0.422-0.071-0.704-0.071c-0.189,0-0.305,0-0.351,0c-0.049,0-0.166,0-0.353,0
		c-0.847,0-1.69,0.118-2.537,0.352h0.071c-2.913,0.987-5.425,2.396-7.538,4.228c-0.471,0.47-0.986,0.951-1.551,1.444
		c-0.563,0.493-1.055,0.976-1.478,1.445c-0.189,0.188-0.378,0.281-0.565,0.281h-5.003C637.988,151.845,637.729,151.564,637.965,151z
		"/>
	<path fill="#FFFFFF" d="M687.209,132.962c0.187-0.375,0.482-0.516,0.882-0.423c0.397,0.094,0.621,0.329,0.667,0.705l2.607,38.96
		l-4.297,8.313c-0.187,0.329-0.494,0.468-0.916,0.423s-0.633-0.305-0.633-0.775l-2.749-39.031L687.209,132.962z"/>
	<path fill="#FFFFFF" d="M703.06,160.016c0.658-0.939,1.48-1.432,2.466-1.479c0.797-0.235,1.831-0.353,3.1-0.353
		c0.187,0,0.318,0,0.388,0s0.198,0,0.388,0c1.36,0,2.477,0.271,3.345,0.811c0.868,0.541,1.14,1.515,0.811,2.924
		c-0.565,2.724-1.129,4.604-1.692,5.636c-0.517,0.94-1.244,1.985-2.184,3.136c-0.94,1.151-1.949,2.126-3.029,2.923
		c-1.881,1.363-4.015,2.502-6.411,3.417s-4.91,1.703-7.54,2.36c-0.563,0.141-1.14,0.281-1.725,0.423
		c-0.587,0.141-1.186,0.282-1.796,0.423l-2.678,0.705c-0.328,0.046-0.586-0.023-0.774-0.212c-0.189-0.187-0.258-0.445-0.212-0.774
		l1.48-8.736c0.092-0.376,0.328-0.61,0.704-0.705c2.066-0.235,4.028-0.551,5.883-0.951c1.854-0.399,3.673-0.856,5.458-1.374
		l2.396-5.425C701.862,161.872,702.402,160.956,703.06,160.016z"/>
	<path fill="#FFFFFF" d="M732.932,152.054c0,0.659-0.141,1.233-0.423,1.726c-0.281,0.493-0.54,0.999-0.773,1.515
		c-0.519,1.033-1.069,2.125-1.657,3.276c-0.587,1.151-1.021,2.384-1.304,3.699c-0.095,0.377-0.166,0.787-0.212,1.233
		c-0.046,0.446-0.071,0.857-0.071,1.232c0,1.223,0.222,2.15,0.67,2.783c0.445,0.634,1.185,1.187,2.219,1.656
		c0.656,0.095,1.302,0.176,1.937,0.247c0.635,0.071,1.279,0.106,1.937,0.106c1.08,0,2.113-0.094,3.101-0.282
		c0.984-0.187,1.923-0.423,2.816-0.704c2.819-0.987,5.285-2.301,7.399-3.945l-1.902-30.013l5.142-8.243
		c0.235-0.375,0.54-0.516,0.916-0.423c0.376,0.094,0.587,0.352,0.635,0.775l1.69,26.63c0,0.048,0,0.083,0,0.106
		c0,0.024,0,0.059,0,0.106s0.011,0.094,0.035,0.141c0.023,0.047,0.035,0.117,0.035,0.211c0,0.094,0,0.165,0,0.212s0,0.117,0,0.211
		l0.071,0.705l-0.071,0.141c0,3.382-0.529,6.481-1.584,9.3c-1.058,2.818-2.339,5.331-3.841,7.538
		c-2.584,3.711-5.894,6.318-9.934,7.82c-1.034,0.329-2.02,0.599-2.96,0.811c-0.939,0.211-1.856,0.317-2.747,0.317
		c-0.799,0-1.586-0.106-2.359-0.317c-0.776-0.212-1.54-0.482-2.29-0.811v0.071c-1.505-0.751-2.667-1.948-3.489-3.594
		c-0.822-1.643-1.348-3.522-1.584-5.636c0-0.093-0.011-0.176-0.035-0.247c-0.023-0.071-0.035-0.152-0.035-0.246
		c0-0.141,0-0.247,0-0.318c0-0.071,0-0.152,0-0.246c0-2.114,0.54-4.721,1.62-7.82c0.519-1.503,1.15-3.088,1.904-4.756
		c0.75-1.666,1.621-3.392,2.606-5.178c0.423-0.705,0.87-1.057,1.341-1.057C732.534,150.787,732.932,151.209,732.932,152.054z"/>
	<path fill="#FFFFFF" d="M766.747,176.994c-0.469,0.611-0.94,1.198-1.408,1.761c-0.471,0.564-0.942,1.127-1.411,1.691
		c-0.469,0.564-0.822,0.986-1.055,1.268c-0.236,0.282-0.459,0.575-0.67,0.881c-0.212,0.305-0.552,0.74-1.021,1.304
		c-0.141,0.187-0.33,0.292-0.563,0.317c-0.236,0.023-0.446-0.059-0.635-0.247l-4.721-4.439c-0.328-0.329-0.351-0.681-0.071-1.057
		c0.942-1.173,1.868-2.324,2.784-3.452c0.916-1.127,1.821-2.277,2.713-3.452c0.141-0.187,0.339-0.305,0.598-0.352
		c0.258-0.047,0.482,0.024,0.669,0.211l4.65,4.439C766.934,176.196,766.982,176.571,766.747,176.994z"/>
	<path fill="#FFFFFF" d="M763.367,163.608c-1.785,0.611-3.828,1.117-6.13,1.515c-2.302,0.4-4.557,0.716-6.762,0.951
		c-0.282,0.046-0.505-0.035-0.67-0.247c-0.164-0.211-0.222-0.458-0.176-0.739l1.41-8.596c0.094-0.375,0.351-0.61,0.774-0.704
		c4.181-0.376,7.538-0.798,10.075-1.268c1.268-0.235,2.36-0.493,3.276-0.775c0.916-0.281,1.609-0.539,2.078-0.774
		c1.08-0.657,1.926-1.643,2.537-2.959c0.233-0.423,0.586-0.634,1.057-0.634c0.609,0,0.916,0.4,0.916,1.198
		c0,0.752-0.118,1.398-0.353,1.938s-0.469,1.139-0.704,1.796c-0.704,1.88-1.505,3.653-2.396,5.32
		c-0.893,1.667-1.972,3.182-3.241,4.544c-0.187,0.189-0.378,0.282-0.565,0.282h-0.071
		C763.859,164.454,763.508,164.172,763.367,163.608z"/>
	<path fill="#FFFFFF" d="M786.968,121.831c-2.163,0.376-4.312,0.775-6.446,1.198c-2.138,0.423-4.287,0.821-6.448,1.198
		c-0.328,0.046-0.598-0.059-0.81-0.317c-0.212-0.259-0.222-0.553-0.035-0.881l3.945-8.031c0.048-0.093,0.141-0.176,0.282-0.247
		s0.258-0.129,0.353-0.176c2.209-0.376,4.379-0.763,6.517-1.163c2.136-0.399,4.262-0.811,6.376-1.233
		c0.328-0.093,0.61-0.011,0.845,0.246c0.235,0.259,0.235,0.576,0,0.952l-4.015,7.961
		C787.435,121.525,787.248,121.691,786.968,121.831z"/>
	<path fill="#FFFFFF" d="M775.765,146.384c-0.751-0.54-1.127-1.397-1.127-2.571c0-1.033,0.212-1.903,0.633-2.607
		c0.799-1.455,1.538-2.899,2.219-4.333c0.681-1.432,1.492-2.806,2.431-4.121c0.893-1.174,1.856-1.761,2.89-1.761
		c0.422,0,0.785,0.083,1.09,0.246c0.307,0.166,0.6,0.341,0.882,0.529c1.362,0.986,2.537,2.372,3.521,4.156
		c0.988,1.785,1.482,3.781,1.482,5.988c0,0.752-0.06,1.492-0.176,2.219c-0.12,0.729-0.272,1.421-0.459,2.078
		c-0.469,1.832-1.057,3.535-1.761,5.108c-0.706,1.574-1.598,2.948-2.678,4.122v-0.071c-0.986,1.127-2.02,2.113-3.101,2.958
		c-1.08,0.846-2.184,1.574-3.31,2.184c-2.255,1.175-6.834,2.513-13.739,4.016c-0.328,0.046-0.586-0.023-0.774-0.212
		c-0.187-0.187-0.258-0.445-0.212-0.774l1.551-8.736c0-0.328,0.212-0.54,0.633-0.634c2.442-0.516,4.638-1.021,6.587-1.515
		c1.949-0.494,3.675-0.975,5.178-1.445c1.503-0.468,2.784-0.916,3.841-1.338c1.057-0.423,1.889-0.821,2.5-1.198l-0.563-1.832
		c-0.093-0.328-0.189-0.599-0.28-0.81c-0.095-0.212-0.141-0.363-0.141-0.459c-0.471,0.377-1.081,0.74-1.833,1.092
		c-0.752,0.353-1.574,0.528-2.465,0.528C777.456,147.194,776.517,146.925,775.765,146.384z"/>
</g>
</svg>
