<?xml version="1.0" encoding="utf-8"?>
<!-- Generator: Adobe Illustrator 26.0.1, SVG Export Plug-In . SVG Version: 6.00 Build 0)  -->
<svg version="1.1" id="Layer_1" xmlns="http://www.w3.org/2000/svg" xmlns:xlink="http://www.w3.org/1999/xlink" x="0px" y="0px"
	 viewBox="0 0 100 81.4" style="enable-background:new 0 0 100 81.4;" xml:space="preserve">
<style type="text/css">
	.st0{opacity:0.33;}
	.st1{fill:#FFFFFF;}
</style>
<g>
	<g class="st0">
		<ellipse class="st1" cx="60.4" cy="13.6" rx="4.7" ry="5.2"/>
		<ellipse class="st1" cx="69.4" cy="23.7" rx="4.7" ry="5.2"/>
		<ellipse class="st1" cx="78.5" cy="33.8" rx="4.7" ry="5.2"/>
		<ellipse class="st1" cx="87.6" cy="43.9" rx="4.7" ry="5.2"/>
		<ellipse class="st1" cx="78.5" cy="54" rx="4.7" ry="5.2"/>
		<ellipse class="st1" cx="69.4" cy="64.1" rx="4.7" ry="5.2"/>
		<ellipse class="st1" cx="60.4" cy="74.2" rx="4.7" ry="5.2"/>
		<ellipse class="st1" cx="42.2" cy="13.6" rx="4.7" ry="5.2"/>
		<ellipse class="st1" cx="51.3" cy="23.7" rx="4.7" ry="5.2"/>
		<ellipse class="st1" cx="60.4" cy="33.8" rx="4.7" ry="5.2"/>
		<ellipse class="st1" cx="69.4" cy="43.9" rx="4.7" ry="5.2"/>
		<ellipse class="st1" cx="60.4" cy="54" rx="4.7" ry="5.2"/>
		<ellipse class="st1" cx="51.3" cy="64.1" rx="4.7" ry="5.2"/>
		<ellipse class="st1" cx="42.2" cy="74.2" rx="4.7" ry="5.2"/>
		<ellipse class="st1" cx="24.1" cy="13.6" rx="4.7" ry="5.2"/>
		<ellipse class="st1" cx="33.2" cy="23.7" rx="4.7" ry="5.2"/>
		<ellipse class="st1" cx="42.2" cy="33.8" rx="4.7" ry="5.2"/>
		<ellipse class="st1" cx="51.3" cy="43.9" rx="4.7" ry="5.2"/>
		<ellipse class="st1" cx="42.2" cy="54" rx="4.7" ry="5.2"/>
		<ellipse class="st1" cx="33.2" cy="64.1" rx="4.7" ry="5.2"/>
		<ellipse class="st1" cx="24.1" cy="74.2" rx="4.7" ry="5.2"/>
		<ellipse class="st1" cx="5.9" cy="13.6" rx="4.7" ry="5.2"/>
		<ellipse class="st1" cx="15" cy="23.7" rx="4.7" ry="5.2"/>
		<ellipse class="st1" cx="24.1" cy="33.8" rx="4.7" ry="5.2"/>
		<ellipse class="st1" cx="33.2" cy="43.9" rx="4.7" ry="5.2"/>
		<ellipse class="st1" cx="24.1" cy="54" rx="4.7" ry="5.2"/>
		<ellipse class="st1" cx="15" cy="64.1" rx="4.7" ry="5.2"/>
		<ellipse class="st1" cx="5.9" cy="74.2" rx="4.7" ry="5.2"/>
	</g>
	<g>
		<ellipse class="st1" cx="66.8" cy="7.1" rx="4.7" ry="5.2"/>
		<ellipse class="st1" cx="75.9" cy="17.2" rx="4.7" ry="5.2"/>
		<ellipse class="st1" cx="85" cy="27.3" rx="4.7" ry="5.2"/>
		<ellipse class="st1" cx="94.1" cy="37.5" rx="4.7" ry="5.2"/>
		<ellipse class="st1" cx="85" cy="47.6" rx="4.7" ry="5.2"/>
		<ellipse class="st1" cx="75.9" cy="57.7" rx="4.7" ry="5.2"/>
		<ellipse class="st1" cx="66.8" cy="67.8" rx="4.7" ry="5.2"/>
		<ellipse class="st1" cx="48.7" cy="7.1" rx="4.7" ry="5.2"/>
		<ellipse class="st1" cx="57.8" cy="17.2" rx="4.7" ry="5.2"/>
		<ellipse class="st1" cx="66.8" cy="27.3" rx="4.7" ry="5.2"/>
		<ellipse class="st1" cx="75.9" cy="37.5" rx="4.7" ry="5.2"/>
		<ellipse class="st1" cx="66.8" cy="47.6" rx="4.7" ry="5.2"/>
		<ellipse class="st1" cx="57.8" cy="57.7" rx="4.7" ry="5.2"/>
		<ellipse class="st1" cx="48.7" cy="67.8" rx="4.7" ry="5.2"/>
		<ellipse class="st1" cx="30.6" cy="7.1" rx="4.7" ry="5.2"/>
		<ellipse class="st1" cx="39.6" cy="17.2" rx="4.7" ry="5.2"/>
		<ellipse class="st1" cx="48.7" cy="27.3" rx="4.7" ry="5.2"/>
		<ellipse class="st1" cx="57.8" cy="37.5" rx="4.7" ry="5.2"/>
		<ellipse class="st1" cx="48.7" cy="47.6" rx="4.7" ry="5.2"/>
		<ellipse class="st1" cx="39.6" cy="57.7" rx="4.7" ry="5.2"/>
		<ellipse class="st1" cx="30.6" cy="67.8" rx="4.7" ry="5.2"/>
		<ellipse class="st1" cx="12.4" cy="7.1" rx="4.7" ry="5.2"/>
		<ellipse class="st1" cx="21.5" cy="17.2" rx="4.7" ry="5.2"/>
		<ellipse class="st1" cx="30.6" cy="27.3" rx="4.7" ry="5.2"/>
		<ellipse class="st1" cx="39.6" cy="37.5" rx="4.7" ry="5.2"/>
		<ellipse class="st1" cx="30.6" cy="47.6" rx="4.7" ry="5.2"/>
		<ellipse class="st1" cx="21.5" cy="57.7" rx="4.7" ry="5.2"/>
		<ellipse class="st1" cx="12.4" cy="67.8" rx="4.7" ry="5.2"/>
	</g>
</g>
</svg>
