<?xml version="1.0" encoding="utf-8"?>
<!-- Generator: Adobe Illustrator 26.0.1, SVG Export Plug-In . SVG Version: 6.00 Build 0)  -->
<svg version="1.1" id="Layer_1" xmlns="http://www.w3.org/2000/svg" xmlns:xlink="http://www.w3.org/1999/xlink" x="0px" y="0px"
	 viewBox="0 0 100 40.9" style="enable-background:new 0 0 100 40.9;" xml:space="preserve">
<style type="text/css">
	.st0{fill:#FFFFFF;}
	.st1{opacity:5.000000e-02;}
</style>
<g>
	<g>
		<path class="st0" d="M23.1,13.3c0,3.1-1.5,5.1-4.8,5.1c-2.8,0-3.4-1.7-3.4-1.7s-0.6,1.7-3.4,1.7c-3.4,0-4.8-2-4.8-5.1V6.8
			c0-3.2-0.2-4-0.2-4h3.1v12.1c0,1.1,0.6,1.9,2,1.9s2-0.8,2-1.9V6.8c0-3.2-0.6-4-0.6-4h3.1c0,0,0.4,0.4,0.4,4v8.1
			c0,1.1,0.6,1.9,2,1.9s2-0.8,2-1.9V6.8c0-3.2-0.6-4-0.6-4h3.1c0,0,0.4,0.4,0.4,4L23.1,13.3L23.1,13.3z"/>
		<path class="st0" d="M26.3,20.6c0,0-0.4-1-0.2-2.6l0.8-11.5c-0.7-0.4-1.2-1.1-1.2-2.1c0-1.6,1.3-2.4,2.7-2.4S31,2.8,31,4.4
			c0,1-0.5,1.7-1.3,2.1l-0.9,10.7c-0.2,2.3,0.5,3.4,0.5,3.4S26.3,20.6,26.3,20.6z M28.3,6c0.5,0,0.8-0.5,0.8-1.6s-0.3-1.6-0.8-1.6
			c-0.5,0-0.8,0.5-0.8,1.6S27.8,6,28.3,6z"/>
		<path class="st0" d="M35.3,2.7v4.1c3.8,0,5.9,2.4,5.9,7.3V15c0,2.2,0.4,3,0.4,3h-3.1c0,0-0.2-0.4-0.2-3v-3.4c0-3.3-2-3.3-3-3.3V14
			c0,3.2,0.2,4,0.2,4h-3.1V2.7H35.3z"/>
		<path class="st0" d="M48.3,18c-3.4,0-5.5-0.9-5.5-3.6c0-2.7,2.1-3.6,5.5-3.6h0.8c0-3.4-1.2-4-1.2-4h3.3c0,0,0.8,0.8,0.8,4V18H48.3
			z M49.1,16.6v-4.4h-0.8c-1.7,0-2.2,0.7-2.2,2.2s0.6,2.2,2.2,2.2H49.1z"/>
	</g>
	<g>
		<path class="st0" d="M15.4,32h1.8v2.4h-2.1c-1.3,0-2.3-0.4-3-1.3c-0.6,0.4-1.3,0.7-2.2,0.7c-1.3,0-2.3-0.5-3-1.4
			c-0.6-0.8-0.9-1.7-0.9-2.8c0-1.3,0.4-2.4,1.3-3.2c0.7-0.7,1.6-1,2.6-1c0.5,0,1,0.1,1.4,0.3v-0.5l2.6-1.3v6.7
			c0,0.5,0.1,0.9,0.3,1.1C14.5,31.9,14.9,32,15.4,32z M8.7,23.1c-0.4,0-0.7-0.1-1-0.4s-0.4-0.6-0.4-1c0-0.9,0.5-1.3,1.4-1.3
			c0.4,0,0.7,0.1,1,0.4s0.4,0.6,0.4,1C10.1,22.6,9.6,23.1,8.7,23.1z M11.4,28.3c-0.4-0.3-0.8-0.4-1.2-0.4c-0.5,0-0.8,0.2-1.1,0.5
			s-0.4,0.8-0.4,1.4c0,0.6,0.1,1.1,0.4,1.4c0.3,0.4,0.6,0.5,1.1,0.5c0.5,0,0.9-0.2,1.2-0.5c0-0.1,0-0.3,0-0.5
			C11.4,30.7,11.4,28.3,11.4,28.3z M11.9,23.1c-0.4,0-0.7-0.1-1-0.4s-0.4-0.6-0.4-1c0-0.9,0.5-1.3,1.4-1.3c0.4,0,0.7,0.1,1,0.4
			c0.2,0.2,0.4,0.6,0.4,1C13.2,22.6,12.8,23.1,11.9,23.1z"/>
		<path class="st0" d="M30,32h1.8v2.4h-2.1c-1,0-1.8-0.3-2.5-0.8c-0.7,0.5-1.5,0.8-2.5,0.8h-2.6c-0.5,0-0.9-0.1-1.3-0.2
			c-0.4,0.1-0.9,0.2-1.3,0.2H16V32h2.1c-0.2-0.5-0.3-1-0.3-1.6c0-0.8,0.2-1.5,0.7-2.1c0.3-1.1,1-2,1.8-2.7c0.9-0.6,1.9-1,3.1-1
			c1.6,0,2.8,0.5,3.8,1.5c0.9,0.9,1.4,2.2,1.4,3.7v0.7c0,0.5,0.1,0.9,0.3,1.1C29.1,31.9,29.5,32,30,32z M20.8,31.9
			c0.9-0.3,1.3-0.8,1.3-1.7c0-0.4-0.1-0.8-0.4-1c-0.2-0.2-0.6-0.4-1-0.4c-0.4,0-0.7,0.1-1,0.4c-0.2,0.2-0.4,0.6-0.4,1
			C19.5,31,19.9,31.6,20.8,31.9z M24.7,32c0.5,0,0.9-0.1,1-0.3c0.2-0.2,0.3-0.6,0.3-1.2v-0.7c0-0.8-0.2-1.5-0.8-2
			c-0.5-0.5-1.2-0.8-2-0.8c-0.6,0-1,0.1-1.5,0.4c0.6,0.2,1.2,0.6,1.5,1.1c0.4,0.5,0.6,1.2,0.6,1.9c0,0.6-0.1,1.1-0.3,1.6H24.7z"/>
		<path class="st0" d="M30.6,34.5V32h3.1c2.4,0,4.3-0.7,5.7-2.1c-0.9-1.6-2.1-2.4-3.4-2.4c-1.1,0-2.3,0.6-3.6,1.8V27
			c1.2-1.2,2.5-1.9,3.9-1.9c1.1,0,2.1,0.4,3.1,1.1c1,0.8,1.9,1.9,2.7,3.3v1c-1,1.2-2.2,2.2-3.7,2.9c-1.5,0.7-3.1,1-4.8,1L30.6,34.5
			L30.6,34.5z M37,39c-0.4,0-0.7-0.1-1-0.4s-0.4-0.6-0.4-1c0-0.4,0.1-0.7,0.4-0.9c0.2-0.2,0.6-0.4,1-0.4c0.4,0,0.7,0.1,1,0.4
			s0.4,0.6,0.4,1C38.3,38.5,37.9,39,37,39z"/>
		<path class="st0" d="M49.7,33.9C49.3,34,48.8,34,48.4,34c-1.3,0-2.3-0.5-3-1.4c-0.6-0.8-0.9-1.7-0.9-2.8c0-1.5,0.4-2.6,1.2-3.5
			c0.7-0.8,1.7-1.1,2.9-1.1c1.2,0,2.2,0.4,2.9,1.1c0.6,0.7,0.9,1.5,0.9,2.6v4.3c0,1.6-0.4,2.8-1.3,3.8c-0.8,0.9-1.9,1.3-3.2,1.3
			c-0.9,0-1.7-0.2-2.5-0.7v-2.2c0.7,0.4,1.5,0.6,2.2,0.6C48.8,36,49.5,35.3,49.7,33.9z M49.7,28.9c0-0.9-0.4-1.3-1.2-1.3
			c-0.5,0-0.9,0.2-1.2,0.6C47.1,28.5,47,29,47,29.7c0,1.4,0.5,2.1,1.6,2.1c0.5,0,0.9-0.1,1.2-0.4V28.9z"/>
	</g>
</g>
<g>
	<g class="st1">
		<ellipse class="st0" cx="78.6" cy="10.8" rx="1.8" ry="2"/>
		<ellipse class="st0" cx="82.1" cy="14.7" rx="1.8" ry="2"/>
		<ellipse class="st0" cx="85.6" cy="18.6" rx="1.8" ry="2"/>
		<ellipse class="st0" cx="89.1" cy="22.5" rx="1.8" ry="2"/>
		<ellipse class="st0" cx="85.6" cy="26.4" rx="1.8" ry="2"/>
		<ellipse class="st0" cx="82.1" cy="30.3" rx="1.8" ry="2"/>
		<ellipse class="st0" cx="78.6" cy="34.2" rx="1.8" ry="2"/>
		<ellipse class="st0" cx="71.6" cy="10.8" rx="1.8" ry="2"/>
		<ellipse class="st0" cx="75.1" cy="14.7" rx="1.8" ry="2"/>
		<ellipse class="st0" cx="78.6" cy="18.6" rx="1.8" ry="2"/>
		<ellipse class="st0" cx="82.1" cy="22.5" rx="1.8" ry="2"/>
		<ellipse class="st0" cx="78.6" cy="26.4" rx="1.8" ry="2"/>
		<ellipse class="st0" cx="75.1" cy="30.3" rx="1.8" ry="2"/>
		<ellipse class="st0" cx="71.6" cy="34.2" rx="1.8" ry="2"/>
		<ellipse class="st0" cx="64.6" cy="10.8" rx="1.8" ry="2"/>
		<ellipse class="st0" cx="68.1" cy="14.7" rx="1.8" ry="2"/>
		<ellipse class="st0" cx="71.6" cy="18.6" rx="1.8" ry="2"/>
		<ellipse class="st0" cx="75.1" cy="22.5" rx="1.8" ry="2"/>
		<ellipse class="st0" cx="71.6" cy="26.4" rx="1.8" ry="2"/>
		<ellipse class="st0" cx="68.1" cy="30.3" rx="1.8" ry="2"/>
		<ellipse class="st0" cx="64.6" cy="34.2" rx="1.8" ry="2"/>
		<ellipse class="st0" cx="57.6" cy="10.8" rx="1.8" ry="2"/>
		<ellipse class="st0" cx="61.1" cy="14.7" rx="1.8" ry="2"/>
		<ellipse class="st0" cx="64.6" cy="18.6" rx="1.8" ry="2"/>
		<ellipse class="st0" cx="68.1" cy="22.5" rx="1.8" ry="2"/>
		<ellipse class="st0" cx="64.6" cy="26.4" rx="1.8" ry="2"/>
		<ellipse class="st0" cx="61.1" cy="30.3" rx="1.8" ry="2"/>
		<ellipse class="st0" cx="57.6" cy="34.2" rx="1.8" ry="2"/>
	</g>
	<g>
		<ellipse class="st0" cx="81.1" cy="8.3" rx="1.8" ry="2"/>
		<ellipse class="st0" cx="84.6" cy="12.2" rx="1.8" ry="2"/>
		<ellipse class="st0" cx="88.1" cy="16.1" rx="1.8" ry="2"/>
		<ellipse class="st0" cx="91.6" cy="20" rx="1.8" ry="2"/>
		<ellipse class="st0" cx="88.1" cy="23.9" rx="1.8" ry="2"/>
		<ellipse class="st0" cx="84.6" cy="27.8" rx="1.8" ry="2"/>
		<ellipse class="st0" cx="81.1" cy="31.7" rx="1.8" ry="2"/>
		<ellipse class="st0" cx="74.1" cy="8.3" rx="1.8" ry="2"/>
		<ellipse class="st0" cx="77.6" cy="12.2" rx="1.8" ry="2"/>
		<ellipse class="st0" cx="81.1" cy="16.1" rx="1.8" ry="2"/>
		<ellipse class="st0" cx="84.6" cy="20" rx="1.8" ry="2"/>
		<ellipse class="st0" cx="81.1" cy="23.9" rx="1.8" ry="2"/>
		<ellipse class="st0" cx="77.6" cy="27.8" rx="1.8" ry="2"/>
		<ellipse class="st0" cx="74.1" cy="31.7" rx="1.8" ry="2"/>
		<ellipse class="st0" cx="67.1" cy="8.3" rx="1.8" ry="2"/>
		<ellipse class="st0" cx="70.6" cy="12.2" rx="1.8" ry="2"/>
		<ellipse class="st0" cx="74.1" cy="16.1" rx="1.8" ry="2"/>
		<ellipse class="st0" cx="77.6" cy="20" rx="1.8" ry="2"/>
		<ellipse class="st0" cx="74.1" cy="23.9" rx="1.8" ry="2"/>
		<ellipse class="st0" cx="70.6" cy="27.8" rx="1.8" ry="2"/>
		<ellipse class="st0" cx="67.1" cy="31.7" rx="1.8" ry="2"/>
		<ellipse class="st0" cx="60.1" cy="8.3" rx="1.8" ry="2"/>
		<ellipse class="st0" cx="63.6" cy="12.2" rx="1.8" ry="2"/>
		<ellipse class="st0" cx="67.1" cy="16.1" rx="1.8" ry="2"/>
		<ellipse class="st0" cx="70.6" cy="20" rx="1.8" ry="2"/>
		<ellipse class="st0" cx="67.1" cy="23.9" rx="1.8" ry="2"/>
		<ellipse class="st0" cx="63.6" cy="27.8" rx="1.8" ry="2"/>
		<ellipse class="st0" cx="60.1" cy="31.7" rx="1.8" ry="2"/>
	</g>
</g>
</svg>
