<?xml version="1.0" encoding="utf-8"?>
<!-- Generator: Adobe Illustrator 17.0.0, SVG Export Plug-In . SVG Version: 6.00 Build 0)  -->
<!DOCTYPE svg PUBLIC "-//W3C//DTD SVG 1.1//EN" "http://www.w3.org/Graphics/SVG/1.1/DTD/svg11.dtd">
<svg version="1.1" id="Layer_1" xmlns="http://www.w3.org/2000/svg" xmlns:xlink="http://www.w3.org/1999/xlink" x="0px" y="0px"
	 width="100px" height="40.922px" viewBox="0 0 100 40.922" enable-background="new 0 0 100 40.922" xml:space="preserve">
<g>
	<g>
		<path fill="#00CC66" d="M23.124,13.258c0,3.107-1.458,5.145-4.826,5.145c-2.772,0-3.388-1.715-3.388-1.715
			s-0.616,1.715-3.388,1.715c-3.368,0-4.826-2.038-4.826-5.145V6.782c0-3.228-0.205-4.035-0.205-4.035h3.08v12.126
			c0,1.15,0.575,1.916,1.951,1.916c1.376,0,1.951-0.766,1.951-1.916v-8.09c0-3.228-0.616-4.035-0.616-4.035h3.08
			c0,0,0.411,0.403,0.411,4.035v8.09c0,1.15,0.575,1.916,1.951,1.916c1.376,0,1.951-0.766,1.951-1.916v-8.09
			c0-3.228-0.616-4.035-0.616-4.035h3.08c0,0,0.411,0.403,0.411,4.035V13.258z"/>
		<path fill="#00CC66" d="M26.263,20.623c0,0-0.37-0.989-0.246-2.623l0.842-11.541c-0.719-0.403-1.232-1.089-1.232-2.078
			c0-1.554,1.294-2.441,2.67-2.441s2.69,0.887,2.69,2.441c0,0.989-0.534,1.695-1.253,2.078l-0.863,10.734
			c-0.185,2.32,0.472,3.43,0.472,3.43H26.263z M28.296,5.995c0.534,0,0.842-0.484,0.842-1.614s-0.308-1.634-0.842-1.634
			c-0.534,0-0.821,0.505-0.821,1.634S27.762,5.995,28.296,5.995z"/>
		<path fill="#00CC66" d="M35.277,2.747v4.055c3.758,0,5.873,2.422,5.873,7.344v0.827c0,2.219,0.411,3.026,0.411,3.026h-3.08
			c0,0-0.205-0.404-0.205-3.026v-3.45c0-3.289-1.951-3.309-2.998-3.309v5.75c0,3.228,0.226,4.035,0.226,4.035h-3.08V2.747H35.277z"
			/>
		<path fill="#00CC66" d="M48.316,18c-3.389,0-5.524-0.868-5.524-3.591c0-2.724,2.136-3.592,5.524-3.592h0.822
			c0-3.43-1.232-4.035-1.232-4.035h3.286c0,0,0.822,0.807,0.822,4.035V18H48.316z M49.137,16.587v-4.358h-0.822
			c-1.684,0-2.238,0.747-2.238,2.179c0,1.432,0.555,2.179,2.238,2.179H49.137z"/>
	</g>
	<g>
		<path fill="#00CC66" d="M15.378,32.042h1.848v2.441h-2.095c-1.273,0-2.258-0.416-2.957-1.251
			c-0.589,0.444-1.307,0.666-2.156,0.666c-1.26,0-2.265-0.464-3.018-1.392c-0.616-0.766-0.924-1.687-0.924-2.763
			c0-1.332,0.438-2.414,1.314-3.248c0.739-0.699,1.594-1.049,2.566-1.049c0.506,0,0.971,0.094,1.396,0.283v-0.525l2.566-1.331v6.717
			c0,0.525,0.113,0.898,0.339,1.12C14.485,31.931,14.858,32.042,15.378,32.042z M8.746,23.086c-0.411,0-0.739-0.121-0.985-0.363
			c-0.246-0.242-0.37-0.571-0.37-0.988c0-0.874,0.451-1.311,1.355-1.311c0.411,0,0.736,0.118,0.975,0.353
			c0.239,0.235,0.36,0.554,0.36,0.958C10.081,22.635,9.636,23.086,8.746,23.086z M11.354,28.27c-0.356-0.296-0.76-0.444-1.211-0.444
			c-0.452,0-0.818,0.182-1.099,0.545c-0.281,0.363-0.421,0.841-0.421,1.432c0,0.592,0.136,1.062,0.411,1.412
			c0.274,0.35,0.649,0.524,1.129,0.524c0.52,0,0.924-0.174,1.211-0.524c-0.014-0.108-0.02-0.276-0.02-0.505V28.27z M11.908,23.086
			c-0.411,0-0.739-0.121-0.985-0.363s-0.37-0.571-0.37-0.988c0-0.874,0.451-1.311,1.355-1.311c0.411,0,0.736,0.118,0.976,0.353
			c0.239,0.235,0.359,0.554,0.359,0.958C13.243,22.635,12.798,23.086,11.908,23.086z"/>
		<path fill="#00CC66" d="M30.018,32.042h1.848v2.441h-2.095c-1.013,0-1.848-0.269-2.505-0.807
			c-0.657,0.538-1.506,0.807-2.546,0.807h-2.587c-0.465,0-0.904-0.067-1.314-0.202c-0.425,0.134-0.863,0.202-1.314,0.202h-3.511
			v-2.441h2.095C17.856,31.545,17.74,31,17.74,30.408c0-0.834,0.226-1.533,0.677-2.098c0.342-1.13,0.955-2.017,1.838-2.662
			c0.883-0.646,1.906-0.969,3.07-0.969c1.561,0,2.84,0.505,3.839,1.513c0.931,0.941,1.396,2.158,1.396,3.651v0.746
			c0,0.525,0.113,0.898,0.339,1.12C29.125,31.931,29.498,32.042,30.018,32.042z M20.82,31.86c0.876-0.283,1.314-0.841,1.314-1.674
			c0-0.417-0.12-0.75-0.359-0.999c-0.24-0.248-0.558-0.373-0.955-0.373c-0.398,0-0.716,0.125-0.955,0.373
			c-0.239,0.249-0.359,0.582-0.359,0.999C19.505,31.02,19.944,31.578,20.82,31.86z M24.679,32.042c0.507,0,0.852-0.104,1.037-0.312
			c0.185-0.209,0.277-0.596,0.277-1.16v-0.726c0-0.848-0.25-1.526-0.75-2.037c-0.5-0.511-1.16-0.767-1.981-0.767
			c-0.561,0-1.047,0.121-1.458,0.363c0.643,0.188,1.153,0.551,1.53,1.09c0.376,0.537,0.564,1.176,0.564,1.916
			c0,0.592-0.116,1.137-0.349,1.633H24.679z"/>
		<path fill="#00CC66" d="M30.635,34.483v-2.441h3.059c2.409,0,4.325-0.705,5.749-2.118c-0.932-1.6-2.06-2.401-3.388-2.401
			c-1.095,0-2.293,0.585-3.593,1.755v-2.24c1.15-1.237,2.45-1.855,3.901-1.855c1.068,0,2.108,0.383,3.121,1.15
			c1.013,0.766,1.91,1.855,2.69,3.268v1.008c-0.985,1.237-2.214,2.192-3.685,2.865c-1.472,0.673-3.077,1.008-4.815,1.008H30.635z
			 M37,38.982c-0.411,0-0.74-0.121-0.986-0.363c-0.246-0.242-0.37-0.572-0.37-0.989c0-0.39,0.123-0.705,0.37-0.948
			c0.246-0.242,0.575-0.363,0.986-0.363c0.41,0,0.736,0.118,0.975,0.353c0.239,0.235,0.359,0.555,0.359,0.958
			C38.334,38.531,37.889,38.982,37,38.982z"/>
		<path fill="#00CC66" d="M49.688,33.898c-0.424,0.08-0.862,0.121-1.314,0.121c-1.26,0-2.266-0.464-3.018-1.392
			c-0.616-0.78-0.924-1.721-0.924-2.824c0-1.479,0.41-2.643,1.232-3.489c0.725-0.753,1.684-1.13,2.874-1.13
			c1.218,0,2.17,0.383,2.854,1.15c0.589,0.659,0.883,1.519,0.883,2.582v4.317c0,1.587-0.425,2.837-1.273,3.752
			c-0.794,0.861-1.876,1.291-3.245,1.291c-0.862,0-1.704-0.229-2.525-0.686v-2.199c0.739,0.416,1.478,0.626,2.217,0.626
			C48.778,36.016,49.524,35.31,49.688,33.898z M49.709,28.875c0-0.887-0.391-1.331-1.171-1.331c-0.493,0-0.88,0.195-1.16,0.585
			c-0.281,0.39-0.421,0.921-0.421,1.594c0,1.426,0.52,2.138,1.561,2.138c0.547,0,0.944-0.134,1.191-0.403V28.875z"/>
	</g>
</g>
<g>
	<g opacity="0.05">
		<ellipse fill="#161616" cx="78.591" cy="10.842" rx="1.786" ry="1.983"/>
		<ellipse fill="#161616" cx="82.09" cy="14.727" rx="1.786" ry="1.983"/>
		<ellipse fill="#161616" cx="85.589" cy="18.613" rx="1.786" ry="1.983"/>
		<ellipse fill="#161616" cx="89.087" cy="22.498" rx="1.786" ry="1.983"/>
		<ellipse fill="#161616" cx="85.589" cy="26.383" rx="1.786" ry="1.983"/>
		<ellipse fill="#161616" cx="82.09" cy="30.269" rx="1.786" ry="1.983"/>
		<ellipse fill="#161616" cx="78.591" cy="34.154" rx="1.786" ry="1.983"/>
		<ellipse fill="#161616" cx="71.593" cy="10.842" rx="1.786" ry="1.983"/>
		<ellipse fill="#161616" cx="75.092" cy="14.727" rx="1.786" ry="1.983"/>
		<ellipse fill="#161616" cx="78.591" cy="18.613" rx="1.786" ry="1.983"/>
		<ellipse fill="#161616" cx="82.09" cy="22.498" rx="1.786" ry="1.983"/>
		<ellipse fill="#161616" cx="78.591" cy="26.383" rx="1.786" ry="1.983"/>
		<ellipse fill="#161616" cx="75.092" cy="30.269" rx="1.786" ry="1.983"/>
		<ellipse fill="#161616" cx="71.593" cy="34.154" rx="1.786" ry="1.983"/>
		<ellipse fill="#161616" cx="64.595" cy="10.842" rx="1.786" ry="1.983"/>
		<ellipse fill="#161616" cx="68.094" cy="14.727" rx="1.786" ry="1.983"/>
		<ellipse fill="#161616" cx="71.593" cy="18.613" rx="1.786" ry="1.983"/>
		<ellipse fill="#161616" cx="75.092" cy="22.498" rx="1.786" ry="1.983"/>
		<ellipse fill="#161616" cx="71.593" cy="26.383" rx="1.786" ry="1.983"/>
		<ellipse fill="#161616" cx="68.094" cy="30.269" rx="1.786" ry="1.983"/>
		<ellipse fill="#161616" cx="64.595" cy="34.154" rx="1.786" ry="1.983"/>
		<ellipse fill="#161616" cx="57.597" cy="10.842" rx="1.786" ry="1.983"/>
		<ellipse fill="#161616" cx="61.096" cy="14.727" rx="1.786" ry="1.983"/>
		<ellipse fill="#161616" cx="64.595" cy="18.613" rx="1.786" ry="1.983"/>
		<ellipse fill="#161616" cx="68.094" cy="22.498" rx="1.786" ry="1.983"/>
		<ellipse fill="#161616" cx="64.595" cy="26.383" rx="1.786" ry="1.983"/>
		<ellipse fill="#161616" cx="61.096" cy="30.269" rx="1.786" ry="1.983"/>
		<ellipse fill="#161616" cx="57.597" cy="34.154" rx="1.786" ry="1.983"/>
	</g>
	<g>
		<ellipse fill="#FFCC00" cx="81.089" cy="8.344" rx="1.786" ry="1.983"/>
		<ellipse fill="#FFCC00" cx="84.588" cy="12.229" rx="1.786" ry="1.983"/>
		<ellipse fill="#FFCC00" cx="88.087" cy="16.114" rx="1.786" ry="1.983"/>
		<ellipse fill="#FFCC00" cx="91.586" cy="19.999" rx="1.786" ry="1.983"/>
		<ellipse fill="#FFCC00" cx="88.087" cy="23.884" rx="1.786" ry="1.983"/>
		<ellipse fill="#FFCC00" cx="84.588" cy="27.77" rx="1.786" ry="1.983"/>
		<ellipse fill="#FFCC00" cx="81.089" cy="31.655" rx="1.786" ry="1.983"/>
		<ellipse fill="#FFCC00" cx="74.091" cy="8.344" rx="1.786" ry="1.983"/>
		<ellipse fill="#FFCC00" cx="77.59" cy="12.229" rx="1.786" ry="1.983"/>
		<ellipse fill="#FFCC00" cx="81.089" cy="16.114" rx="1.786" ry="1.983"/>
		<ellipse fill="#FFCC00" cx="84.588" cy="19.999" rx="1.786" ry="1.983"/>
		<ellipse fill="#FFCC00" cx="81.089" cy="23.884" rx="1.786" ry="1.983"/>
		<ellipse fill="#FFCC00" cx="77.59" cy="27.77" rx="1.786" ry="1.983"/>
		<ellipse fill="#FFCC00" cx="74.091" cy="31.655" rx="1.786" ry="1.983"/>
		<ellipse fill="#FFCC00" cx="67.094" cy="8.344" rx="1.786" ry="1.983"/>
		<ellipse fill="#FFCC00" cx="70.593" cy="12.229" rx="1.786" ry="1.983"/>
		<ellipse fill="#FFCC00" cx="74.091" cy="16.114" rx="1.786" ry="1.983"/>
		<ellipse fill="#FFCC00" cx="77.59" cy="19.999" rx="1.786" ry="1.983"/>
		<ellipse fill="#FFCC00" cx="74.091" cy="23.884" rx="1.786" ry="1.983"/>
		<ellipse fill="#FFCC00" cx="70.593" cy="27.77" rx="1.786" ry="1.983"/>
		<ellipse fill="#FFCC00" cx="67.094" cy="31.655" rx="1.786" ry="1.983"/>
		<ellipse fill="#FFCC00" cx="60.096" cy="8.344" rx="1.786" ry="1.983"/>
		<ellipse fill="#FFCC00" cx="63.595" cy="12.229" rx="1.786" ry="1.983"/>
		<ellipse fill="#FFCC00" cx="67.094" cy="16.114" rx="1.786" ry="1.983"/>
		<ellipse fill="#FFCC00" cx="70.593" cy="19.999" rx="1.786" ry="1.983"/>
		<ellipse fill="#FFCC00" cx="67.094" cy="23.884" rx="1.786" ry="1.983"/>
		<ellipse fill="#FFCC00" cx="63.595" cy="27.77" rx="1.786" ry="1.983"/>
		<ellipse fill="#FFCC00" cx="60.096" cy="31.655" rx="1.786" ry="1.983"/>
	</g>
</g>
</svg>
