<?xml version="1.0" encoding="utf-8"?>
<!-- Generator: Adobe Illustrator 17.0.0, SVG Export Plug-In . SVG Version: 6.00 Build 0)  -->
<!DOCTYPE svg PUBLIC "-//W3C//DTD SVG 1.1//EN" "http://www.w3.org/Graphics/SVG/1.1/DTD/svg11.dtd">
<svg version="1.1" id="Layer_1" xmlns="http://www.w3.org/2000/svg" xmlns:xlink="http://www.w3.org/1999/xlink" x="0px" y="0px"
	 width="170px" height="170px" viewBox="0 0 170 170" enable-background="new 0 0 170 170" xml:space="preserve">
<rect fill="#FFFFFF" width="170" height="170"/>
<g>
	<g>
		<path fill="#00CC66" d="M37.137,72.6c0,5.559-2.609,9.205-8.634,9.205c-4.959,0-6.062-3.069-6.062-3.069s-1.102,3.069-6.062,3.069
			c-6.025,0-8.634-3.646-8.634-9.205V61.014c0-5.776-0.367-7.219-0.367-7.219h5.511v21.693c0,2.057,1.029,3.428,3.491,3.428
			c2.461,0,3.49-1.371,3.49-3.428V61.014c0-5.776-1.102-7.219-1.102-7.219h5.511c0,0,0.735,0.721,0.735,7.219v14.473
			c0,2.057,1.029,3.428,3.49,3.428c2.462,0,3.491-1.371,3.491-3.428V61.014c0-5.776-1.102-7.219-1.102-7.219h5.511
			c0,0,0.735,0.721,0.735,7.219V72.6z"/>
		<path fill="#00CC66" d="M42.752,85.775c0,0-0.661-1.769-0.441-4.693l1.506-20.646c-1.286-0.721-2.204-1.948-2.204-3.717
			c0-2.779,2.314-4.367,4.776-4.367s4.813,1.588,4.813,4.367c0,1.769-0.955,3.032-2.241,3.717l-1.543,19.202
			c-0.331,4.15,0.845,6.136,0.845,6.136H42.752z M46.389,59.606c0.955,0,1.506-0.866,1.506-2.887s-0.551-2.923-1.506-2.923
			s-1.469,0.903-1.469,2.923S45.434,59.606,46.389,59.606z"/>
		<path fill="#00CC66" d="M58.878,53.795v7.254c6.723,0,10.507,4.332,10.507,13.139v1.48c0,3.97,0.735,5.414,0.735,5.414h-5.511
			c0,0-0.367-0.722-0.367-5.414v-6.172c0-5.883-3.49-5.92-5.364-5.92v10.287c0,5.776,0.404,7.219,0.404,7.219h-5.511V53.795H58.878z
			"/>
		<path fill="#00CC66" d="M82.204,81.082c-6.062,0-9.883-1.553-9.883-6.424c0-4.873,3.821-6.425,9.883-6.425h1.47
			c0-6.136-2.205-7.218-2.205-7.218h5.878c0,0,1.47,1.444,1.47,7.218v12.85H82.204z M83.674,78.555v-7.796h-1.47
			c-3.012,0-4.005,1.336-4.005,3.899c0,2.562,0.992,3.898,4.005,3.898H83.674z"/>
	</g>
	<g>
		<path fill="#00CC66" d="M23.28,106.203h3.307v4.367h-3.747c-2.277,0-4.04-0.745-5.29-2.237c-1.053,0.794-2.339,1.191-3.856,1.191
			c-2.254,0-4.053-0.83-5.4-2.49c-1.102-1.371-1.653-3.019-1.653-4.943c0-2.383,0.784-4.318,2.351-5.811
			c1.322-1.251,2.852-1.877,4.591-1.877c0.905,0,1.738,0.169,2.498,0.506v-0.939l4.591-2.381v12.017
			c0,0.939,0.203,1.606,0.606,2.003C21.682,106.005,22.35,106.203,23.28,106.203z M11.416,90.18c-0.735,0-1.322-0.217-1.763-0.65
			c-0.441-0.433-0.661-1.022-0.661-1.768c0-1.564,0.808-2.346,2.424-2.346c0.735,0,1.316,0.211,1.744,0.632
			c0.428,0.421,0.644,0.992,0.644,1.714C13.803,89.374,13.007,90.18,11.416,90.18z M16.081,99.455
			c-0.637-0.53-1.36-0.795-2.167-0.795c-0.809,0-1.464,0.326-1.966,0.975c-0.502,0.649-0.752,1.504-0.752,2.562
			c0,1.059,0.244,1.901,0.735,2.527c0.49,0.626,1.162,0.938,2.02,0.938c0.93,0,1.653-0.312,2.167-0.938
			c-0.025-0.193-0.036-0.493-0.036-0.903V99.455z M17.072,90.18c-0.735,0-1.322-0.217-1.763-0.65
			c-0.441-0.433-0.661-1.022-0.661-1.768c0-1.564,0.808-2.346,2.424-2.346c0.735,0,1.316,0.211,1.745,0.632
			c0.428,0.421,0.642,0.992,0.642,1.714C19.46,89.374,18.664,90.18,17.072,90.18z"/>
		<path fill="#00CC66" d="M49.47,106.203h3.307v4.367h-3.747c-1.813,0-3.305-0.481-4.481-1.444
			c-1.176,0.963-2.694,1.444-4.555,1.444h-4.629c-0.833,0-1.616-0.12-2.35-0.361c-0.76,0.24-1.544,0.361-2.351,0.361h-6.281v-4.367
			h3.747c-0.417-0.889-0.625-1.863-0.625-2.922c0-1.491,0.404-2.743,1.212-3.754c0.612-2.021,1.708-3.608,3.288-4.763
			c1.579-1.156,3.409-1.733,5.491-1.733c2.792,0,5.081,0.903,6.869,2.707c1.665,1.684,2.498,3.861,2.498,6.532v1.335
			c0,0.939,0.203,1.606,0.606,2.003C47.872,106.005,48.54,106.203,49.47,106.203z M33.015,105.878
			c1.566-0.506,2.35-1.504,2.35-2.995c0-0.746-0.214-1.341-0.642-1.787c-0.429-0.444-0.998-0.667-1.708-0.667
			c-0.711,0-1.281,0.223-1.709,0.667c-0.428,0.446-0.642,1.04-0.642,1.787C30.663,104.375,31.447,105.373,33.015,105.878z
			 M39.919,106.203c0.906,0,1.525-0.185,1.856-0.558c0.331-0.373,0.496-1.065,0.496-2.076v-1.298c0-1.516-0.447-2.731-1.341-3.645
			c-0.894-0.914-2.076-1.372-3.544-1.372c-1.004,0-1.873,0.217-2.608,0.65c1.151,0.337,2.062,0.987,2.737,1.949
			c0.672,0.962,1.009,2.105,1.009,3.428c0,1.059-0.208,2.033-0.624,2.922H39.919z"/>
		<path fill="#00CC66" d="M50.573,110.57v-4.367h5.473c4.309,0,7.738-1.262,10.285-3.789c-1.666-2.862-3.686-4.294-6.061-4.294
			c-1.959,0-4.102,1.047-6.428,3.14v-4.006c2.057-2.212,4.383-3.319,6.979-3.319c1.911,0,3.771,0.685,5.583,2.057
			c1.813,1.371,3.417,3.319,4.813,5.846v1.804c-1.763,2.214-3.961,3.921-6.593,5.125c-2.633,1.203-5.505,1.804-8.614,1.804H50.573z
			 M61.96,118.618c-0.735,0-1.323-0.217-1.764-0.65c-0.441-0.433-0.661-1.023-0.661-1.769c0-0.697,0.22-1.262,0.661-1.695
			c0.441-0.433,1.029-0.65,1.764-0.65c0.734,0,1.316,0.21,1.744,0.631c0.428,0.421,0.642,0.993,0.642,1.714
			C64.346,117.811,63.551,118.618,61.96,118.618z"/>
		<path fill="#00CC66" d="M84.659,109.523c-0.759,0.144-1.542,0.217-2.35,0.217c-2.254,0-4.054-0.83-5.4-2.49
			c-1.102-1.395-1.653-3.079-1.653-5.052c0-2.646,0.734-4.728,2.204-6.243c1.297-1.347,3.012-2.021,5.142-2.021
			c2.18,0,3.881,0.685,5.106,2.057c1.053,1.178,1.58,2.718,1.58,4.619v7.723c0,2.838-0.76,5.076-2.277,6.712
			c-1.421,1.54-3.355,2.31-5.804,2.31c-1.542,0-3.049-0.409-4.517-1.227v-3.934c1.322,0.745,2.644,1.119,3.966,1.119
			C83.03,113.313,84.365,112.05,84.659,109.523z M84.697,100.537c0-1.588-0.699-2.381-2.095-2.381c-0.881,0-1.574,0.349-2.075,1.047
			c-0.502,0.697-0.754,1.648-0.754,2.851c0,2.55,0.93,3.825,2.792,3.825c0.979,0,1.689-0.24,2.131-0.721V100.537z"/>
	</g>
</g>
<image overflow="visible" width="283" height="279" xlink:href="8FCED3AB.png"  transform="matrix(0.24 0 0 0.24 94.7414 52.1788)">
</image>
<g>
	<g opacity="0.05">
		<ellipse fill="#161616" cx="133.313" cy="76.22" rx="1.832" ry="2.034"/>
		<ellipse fill="#161616" cx="136.902" cy="80.205" rx="1.832" ry="2.034"/>
		<ellipse fill="#161616" cx="140.491" cy="84.19" rx="1.832" ry="2.034"/>
		<ellipse fill="#161616" cx="144.08" cy="88.176" rx="1.832" ry="2.034"/>
		<ellipse fill="#161616" cx="140.491" cy="92.161" rx="1.832" ry="2.034"/>
		<ellipse fill="#161616" cx="136.902" cy="96.146" rx="1.832" ry="2.034"/>
		<ellipse fill="#161616" cx="133.313" cy="100.132" rx="1.832" ry="2.034"/>
		<ellipse fill="#161616" cx="126.135" cy="76.22" rx="1.832" ry="2.034"/>
		<ellipse fill="#161616" cx="129.724" cy="80.205" rx="1.832" ry="2.034"/>
		<ellipse fill="#161616" cx="133.313" cy="84.19" rx="1.832" ry="2.034"/>
		<ellipse fill="#161616" cx="136.902" cy="88.176" rx="1.832" ry="2.034"/>
		<ellipse fill="#161616" cx="133.313" cy="92.161" rx="1.832" ry="2.034"/>
		<ellipse fill="#161616" cx="129.724" cy="96.146" rx="1.832" ry="2.034"/>
		<ellipse fill="#161616" cx="126.135" cy="100.132" rx="1.832" ry="2.034"/>
		<ellipse fill="#161616" cx="118.957" cy="76.22" rx="1.832" ry="2.034"/>
		<ellipse fill="#161616" cx="122.546" cy="80.205" rx="1.832" ry="2.034"/>
		<ellipse fill="#161616" cx="126.135" cy="84.19" rx="1.832" ry="2.034"/>
		<ellipse fill="#161616" cx="129.724" cy="88.176" rx="1.832" ry="2.034"/>
		<ellipse fill="#161616" cx="126.135" cy="92.161" rx="1.832" ry="2.034"/>
		<ellipse fill="#161616" cx="122.546" cy="96.146" rx="1.832" ry="2.034"/>
		<ellipse fill="#161616" cx="118.957" cy="100.132" rx="1.832" ry="2.034"/>
		<ellipse fill="#161616" cx="111.778" cy="76.22" rx="1.832" ry="2.034"/>
		<ellipse fill="#161616" cx="115.368" cy="80.205" rx="1.832" ry="2.034"/>
		<ellipse fill="#161616" cx="118.957" cy="84.19" rx="1.832" ry="2.034"/>
		<ellipse fill="#161616" cx="122.546" cy="88.176" rx="1.832" ry="2.034"/>
		<ellipse fill="#161616" cx="118.957" cy="92.161" rx="1.832" ry="2.034"/>
		<ellipse fill="#161616" cx="115.368" cy="96.146" rx="1.832" ry="2.034"/>
		<ellipse fill="#161616" cx="111.778" cy="100.132" rx="1.832" ry="2.034"/>
	</g>
	<g>
		<ellipse fill="#FFCC00" cx="135.876" cy="73.656" rx="1.832" ry="2.034"/>
		<ellipse fill="#FFCC00" cx="139.465" cy="77.642" rx="1.832" ry="2.034"/>
		<ellipse fill="#FFCC00" cx="143.054" cy="81.627" rx="1.832" ry="2.034"/>
		<ellipse fill="#FFCC00" cx="146.643" cy="85.613" rx="1.832" ry="2.034"/>
		<ellipse fill="#FFCC00" cx="143.054" cy="89.598" rx="1.832" ry="2.034"/>
		<ellipse fill="#FFCC00" cx="139.465" cy="93.583" rx="1.832" ry="2.034"/>
		<ellipse fill="#FFCC00" cx="135.876" cy="97.568" rx="1.832" ry="2.034"/>
		<ellipse fill="#FFCC00" cx="128.698" cy="73.656" rx="1.832" ry="2.034"/>
		<ellipse fill="#FFCC00" cx="132.287" cy="77.642" rx="1.832" ry="2.034"/>
		<ellipse fill="#FFCC00" cx="135.876" cy="81.627" rx="1.832" ry="2.034"/>
		<ellipse fill="#FFCC00" cx="139.465" cy="85.613" rx="1.832" ry="2.034"/>
		<ellipse fill="#FFCC00" cx="135.876" cy="89.598" rx="1.832" ry="2.034"/>
		<ellipse fill="#FFCC00" cx="132.287" cy="93.583" rx="1.832" ry="2.034"/>
		<ellipse fill="#FFCC00" cx="128.698" cy="97.568" rx="1.832" ry="2.034"/>
		<ellipse fill="#FFCC00" cx="121.52" cy="73.656" rx="1.832" ry="2.034"/>
		<ellipse fill="#FFCC00" cx="125.109" cy="77.642" rx="1.832" ry="2.034"/>
		<ellipse fill="#FFCC00" cx="128.698" cy="81.627" rx="1.832" ry="2.034"/>
		<ellipse fill="#FFCC00" cx="132.287" cy="85.613" rx="1.832" ry="2.034"/>
		<ellipse fill="#FFCC00" cx="128.698" cy="89.598" rx="1.832" ry="2.034"/>
		<ellipse fill="#FFCC00" cx="125.109" cy="93.583" rx="1.832" ry="2.034"/>
		<ellipse fill="#FFCC00" cx="121.52" cy="97.568" rx="1.832" ry="2.034"/>
		<ellipse fill="#FFCC00" cx="114.342" cy="73.656" rx="1.832" ry="2.034"/>
		<ellipse fill="#FFCC00" cx="117.931" cy="77.642" rx="1.832" ry="2.034"/>
		<ellipse fill="#FFCC00" cx="121.52" cy="81.627" rx="1.832" ry="2.034"/>
		<ellipse fill="#FFCC00" cx="125.109" cy="85.613" rx="1.832" ry="2.034"/>
		<ellipse fill="#FFCC00" cx="121.52" cy="89.598" rx="1.832" ry="2.034"/>
		<ellipse fill="#FFCC00" cx="117.931" cy="93.583" rx="1.832" ry="2.034"/>
		<ellipse fill="#FFCC00" cx="114.342" cy="97.568" rx="1.832" ry="2.034"/>
	</g>
</g>
</svg>
